<?xml version="1.0" encoding="utf-8"?>
<!-- Generator: Adobe Illustrator 19.0.0, SVG Export Plug-In . SVG Version: 6.00 Build 0)  -->
<svg version="1.1" id="Layer_1" xmlns="http://www.w3.org/2000/svg" xmlns:xlink="http://www.w3.org/1999/xlink" x="0px" y="0px"
	 viewBox="-19 21 24 24" style="enable-background:new -19 21 24 24;" xml:space="preserve">
<style type="text/css">
	.st0{fill:#B8B8B8;}
</style>
<title>DAF08AC1-6933-45AC-83D7-44AE697DF74B</title>
<desc>Created with sketchtool.</desc>
<g id="BDA">
	<g id="Desktop" transform="translate(-723.000000, -746.000000)">
		<g id="Page-1" transform="translate(723.000000, 746.000000)">
			<path id="Fill-1" class="st0" d="M-6.5,44.8L4.8,34.2c0.3-0.3,0.3-0.7,0-0.9c-0.2-0.3-0.7-0.3-0.9,0l-10.2,9.6V21.7
				c0-0.4-0.3-0.7-0.7-0.7c-0.4,0-0.7,0.3-0.7,0.7v21.1l-10.2-9.6c-0.3-0.2-0.7-0.2-0.9,0c-0.2,0.3-0.2,0.7,0,0.9l11.3,10.7
				C-7.1,45.1-6.8,45-6.5,44.8"/>
		</g>
	</g>
</g>
</svg>
