<?xml version="1.0" encoding="UTF-8" standalone="no"?>
<svg width="24px" height="24px" viewBox="0 0 24 24" version="1.1" xmlns="http://www.w3.org/2000/svg" xmlns:xlink="http://www.w3.org/1999/xlink">
    <!-- Generator: sketchtool 41.2 (35397) - http://www.bohemiancoding.com/sketch -->
    <title>DAF08AC1-6933-45AC-83D7-44AE697DF74B</title>
    <desc>Created with sketchtool.</desc>
    <defs></defs>
    <g id="BDA" stroke="none" stroke-width="1" fill="none" fill-rule="evenodd">
        <g id="Desktop" transform="translate(-723.000000, -746.000000)" fill="#B8B8B8">
            <g id="Page-1" transform="translate(723.000000, 746.000000)">
                <path d="M23.8338667,11.5402667 L13.1672,0.206933333 C12.9085333,-0.0624 12.4672,-0.0644 12.2192,0.1756 C11.9658667,0.4196 11.9478667,0.8676 12.1872,1.1236 L21.7918667,11.3322667 L0.666533333,11.3322667 C0.298533333,11.3322667 -0.000133333333,11.6302667 -0.000133333333,11.9982667 C-0.000133333333,12.3669333 0.298533333,12.6649333 0.666533333,12.6649333 L21.7918667,12.6649333 L12.1872,22.8736 C11.9472,23.1302667 11.9618667,23.5822667 12.2192,23.8216 C12.4752,24.0616 12.8878667,24.0676 13.1672,23.7902667 L23.8338667,12.4569333 C24.0872,12.1449333 24.0205333,11.7622667 23.8338667,11.5402667" id="Fill-1"></path>
            </g>
        </g>
    </g>
</svg>