<?xml version="1.0" encoding="UTF-8" standalone="no"?>
<svg width="58px" height="56px" viewBox="0 0 58 56" version="1.1" xmlns="http://www.w3.org/2000/svg" xmlns:xlink="http://www.w3.org/1999/xlink">
    <!-- Generator: sketchtool 41.2 (35397) - http://www.bohemiancoding.com/sketch -->
    <title>DC8A21FF-F373-4103-9F0C-6F2208088554</title>
    <desc>Created with sketchtool.</desc>
    <defs>
        <polygon id="path-1" points="0 56 58 56 58 0 0 0"></polygon>
    </defs>
    <g id="BDA" stroke="none" stroke-width="1" fill="none" fill-rule="evenodd">
        <g id="Desktop" transform="translate(-786.000000, -1574.000000)">
            <g id="Page-1" transform="translate(786.000000, 1574.000000)">
                <path d="M36,53.082 L36,51.082 C37.767,51.082 39,49.849 39,48.082 L39,36 C39,32.947 32.434,31 29,31 C25.566,31 19,32.947 19,36 L19,48.082 C19,49.849 20.233,51.082 22,51.082 L22,53.082 C19.103,53.082 17,50.979 17,48.082 L17,36 C17,31.339 24.693,29 29,29 C33.307,29 41,31.339 41,36 L41,48.082 C41,50.979 38.897,53.082 36,53.082 Z" id="Fill-1" fill="#C0C0C0"></path>
                <path d="M29,16.082 C26.794,16.082 25,17.922 25,20.184 L25,21.886 C25,24.147 26.794,25.987 29,25.987 C31.206,25.987 33,24.147 33,21.886 L33,20.184 C33,17.922 31.206,16.082 29,16.082 M29,27.987 C25.691,27.987 23,25.25 23,21.886 L23,20.184 C23,16.819 25.691,14.082 29,14.082 C32.309,14.082 35,16.819 35,20.184 L35,21.886 C35,25.25 32.309,27.987 29,27.987" id="Fill-3" fill="#C0C0C0"></path>
                <path d="M21,2 C18.794,2 17,3.84 17,6.102 L17,7.804 C17,10.065 18.794,11.905 21,11.905 C23.206,11.905 25,10.065 25,7.804 L25,6.102 C25,3.84 23.206,2 21,2 M21,13.905 C17.691,13.905 15,11.168 15,7.804 L15,6.102 C15,2.737 17.691,0 21,0 C24.309,0 27,2.737 27,6.102 L27,7.804 C27,11.168 24.309,13.905 21,13.905" id="Fill-5" fill="#C0C0C0"></path>
                <path d="M37,2 C34.794,2 33,3.84 33,6.102 L33,7.804 C33,10.065 34.794,11.905 37,11.905 C39.206,11.905 41,10.065 41,7.804 L41,6.102 C41,3.84 39.206,2 37,2 M37,13.905 C33.691,13.905 31,11.168 31,7.804 L31,6.102 C31,2.737 33.691,0 37,0 C40.309,0 43,2.737 43,6.102 L43,7.804 C43,11.168 40.309,13.905 37,13.905" id="Fill-7" fill="#C0C0C0"></path>
                <mask id="mask-2" fill="white">
                    <use xlink:href="#path-1"></use>
                </mask>
                <g id="Clip-10"></g>
                <polygon id="Fill-9" fill="#C0C0C0" mask="url(#mask-2)" points="34 56 36 56 36 40 34 40"></polygon>
                <polygon id="Fill-11" fill="#C0C0C0" mask="url(#mask-2)" points="22 56 24 56 24 40 22 40"></polygon>
                <polygon id="Fill-12" fill="#C0C0C0" mask="url(#mask-2)" points="5 56 7 56 7 40 5 40"></polygon>
                <path d="M12,16 C9.794,16 8,17.84 8,20.102 L8,21.804 C8,24.065 9.794,25.905 12,25.905 C14.206,25.905 16,24.065 16,21.804 L16,20.102 C16,17.84 14.206,16 12,16 M12,27.905 C8.691,27.905 6,25.168 6,21.804 L6,20.102 C6,16.737 8.691,14 12,14 C15.309,14 18,16.737 18,20.102 L18,21.804 C18,25.168 15.309,27.905 12,27.905" id="Fill-13" fill="#C0C0C0" mask="url(#mask-2)"></path>
                <path d="M5,53.082 C2.103,53.082 0,50.979 0,48.082 L0,36 C0,31.339 7.693,29 12,29 C13.885,29 16.317,29.465 18.348,30.214 L17.655,32.091 C15.832,31.418 13.665,31 12,31 C8.566,31 2,32.947 2,36 L2,48.082 C2,49.849 3.234,51.082 5,51.082 L5,53.082 Z" id="Fill-14" fill="#C0C0C0" mask="url(#mask-2)"></path>
                <polygon id="Fill-15" fill="#C0C0C0" mask="url(#mask-2)" points="51 56 53 56 53 40 51 40"></polygon>
                <path d="M46,16 C43.794,16 42,17.84 42,20.102 L42,21.804 C42,24.065 43.794,25.905 46,25.905 C48.206,25.905 50,24.065 50,21.804 L50,20.102 C50,17.84 48.206,16 46,16 M46,27.905 C42.691,27.905 40,25.168 40,21.804 L40,20.102 C40,16.737 42.691,14 46,14 C49.309,14 52,16.737 52,20.102 L52,21.804 C52,25.168 49.309,27.905 46,27.905" id="Fill-16" fill="#C0C0C0" mask="url(#mask-2)"></path>
                <path d="M53.001,53.082 L53.001,51.082 C54.767,51.082 56,49.849 56,48.082 L56,36 C56,32.947 49.434,31 46.001,31 C44.337,31 42.17,31.418 40.346,32.091 L39.654,30.214 C41.685,29.465 44.117,29 46.001,29 C50.308,29 58,31.339 58,36 L58,48.082 C58,50.979 55.897,53.082 53.001,53.082" id="Fill-17" fill="#C0C0C0" mask="url(#mask-2)"></path>
            </g>
        </g>
    </g>
</svg>