<?xml version="1.0" encoding="UTF-8" standalone="no"?>
<svg width="72px" height="66px" viewBox="0 0 72 66" version="1.1" xmlns="http://www.w3.org/2000/svg" xmlns:xlink="http://www.w3.org/1999/xlink">
    <!-- Generator: sketchtool 41.2 (35397) - http://www.bohemiancoding.com/sketch -->
    <title>DB9C5CF0-ACDC-4286-BA52-51F23544BC4E</title>
    <desc>Created with sketchtool.</desc>
    <defs></defs>
    <g id="BDA" stroke="none" stroke-width="1" fill="none" fill-rule="evenodd">
        <g id="Desktop" transform="translate(-1359.000000, -1569.000000)" fill="#B8B8B8">
            <g id="Page-1" transform="translate(1359.000000, 1569.000000)">
                <path d="M11.607874,-1.41327623e-05 L11.607874,9.25694518 L5.81102362,9.25694518 L5.81102362,63.6822128 L0,63.6822128 L0,65.9999859 L8.13543307,65.9999859 L8.13543307,33.5794291 L47.6220472,33.5794291 L47.6220472,65.9999859 L72,65.9999859 L72,63.6822128 L66.1889764,63.6822128 L66.1889764,9.25694518 L60.3779528,9.25694518 L60.3779528,-1.41327623e-05 L11.607874,-1.41327623e-05 Z M13.9322835,9.25694518 L58.0677165,9.25694518 L58.0677165,2.31775889 L13.9322835,2.31775889 L13.9322835,9.25694518 Z M8.12111811,11.5747182 L63.8644252,11.5747182 L63.8644252,63.6822128 L49.9322835,63.6822128 L49.9322835,19.6869238 L8.12111811,19.6869238 L8.12111811,11.5747182 Z M8.13543307,21.990564 L47.6220472,21.990564 L47.6220472,25.4672236 L47.6080157,25.4672236 L8.13543307,25.4672236 L8.13543307,21.990564 Z M8.13543307,31.2617974 L47.6219055,31.2617974 L47.6219055,27.7849966 L8.13543307,27.7849966 L8.13543307,31.2617974 Z" id="Fill-1"></path>
                <polygon id="Fill-2" points="34.8377953 6.95331906 37.1622047 6.95331906 37.1622047 4.63554604 34.8377953 4.63554604"></polygon>
                <polygon id="Fill-3" points="39.4866142 6.95331906 41.8110236 6.95331906 41.8110236 4.63554604 39.4866142 4.63554604"></polygon>
                <polygon id="Fill-4" points="30.1889764 6.95331906 32.5133858 6.95331906 32.5133858 4.63554604 30.1889764 4.63554604"></polygon>
                <path d="M15.4084677,45.6638313 C16.1236488,45.66157 16.3833024,45.6040497 16.6949717,45.4755829 C16.8018378,45.4314887 16.912389,45.3859812 17.3524677,45.3400497 C18.1012394,45.2613302 18.8468929,45.9200582 18.963822,46.0287392 C19.5072236,46.6795529 19.7252079,47.4407435 19.6116803,48.2918184 C19.3554283,50.2118955 17.5843417,51.980752 17.1062787,52.3100454 C16.9180583,52.4396428 16.7192079,52.5026749 16.498389,52.5026749 C16.1433496,52.5026749 15.8413181,52.3384522 15.7854756,52.3060882 C15.668263,52.237827 15.5367354,52.2036257 15.4054913,52.2036257 C15.2745307,52.2036257 15.1437118,52.237827 15.0277748,52.3056642 C14.9709402,52.3385936 14.6693339,52.5026749 14.314011,52.5026749 C14.0927669,52.5026749 13.8934913,52.4396428 13.7055543,52.3106107 C13.2272079,51.9806107 11.4561213,50.2100582 11.200578,48.2916771 C11.0870504,47.4401782 11.3016331,46.6829448 11.8380898,46.0403281 C11.9378693,45.9454972 12.610389,45.3341139 13.3356331,45.3341139 C13.3774441,45.3341139 13.4199638,45.3360925 13.4607827,45.340191 C13.8994441,45.3856985 14.0098535,45.4313473 14.1175701,45.4758655 C14.4292394,45.603767 14.6890346,45.6612874 15.4084677,45.6638313 Z M16.4577118,41.8696086 C16.7688142,41.5387606 17.3405622,41.3743966 18.1440425,41.3876814 C17.850515,41.7677113 17.420074,42.1101482 16.8221055,42.1101482 C16.6667669,42.1101482 16.5015071,42.0883837 16.327885,42.0451375 C16.3616173,41.9863452 16.4039953,41.9267049 16.4577118,41.8696086 Z M12.8497748,53.5458141 C13.2918378,53.8500925 13.7844992,54.0044223 14.314011,54.0044223 C14.7472866,54.0044223 15.1237276,53.9008291 15.4064835,53.7870604 C15.6896646,53.9008291 16.0662472,54.0044223 16.498389,54.0044223 C17.028326,54.0044223 17.5208457,53.8499512 17.9617748,53.5456728 C18.8130189,52.9597285 20.7862157,50.8731675 21.1044047,48.4899597 C21.2776016,47.1922895 20.9341843,46.0264779 20.0837906,45.0248891 L20.0598378,44.9987435 C20.0071134,44.945039 18.7507984,43.6851032 17.1950031,43.8469233 C16.6290661,43.9059983 16.3711134,43.9885336 16.1970661,44.0570775 C16.1909717,43.8788634 16.1739638,43.7072916 16.1487354,43.5419383 C16.3777748,43.5874458 16.6028457,43.6116128 16.822389,43.6116128 C19.1424047,43.6116128 20.0847827,41.1549148 20.0853496,40.7459126 C20.0853496,40.3752103 19.8188929,40.0635829 19.4515228,40.0046493 C17.5459323,39.7002296 16.1690031,39.9816128 15.3594283,40.8420154 C15.2481685,40.9603066 15.1571764,41.082131 15.0797906,41.2036728 C14.9363575,41.0323837 14.8327512,40.9340197 14.8163102,40.9188976 C14.5127197,40.6372317 14.0356488,40.6544737 13.7526094,40.9574801 C13.4707039,41.2597799 13.4871449,41.7353473 13.7854913,42.0136214 C13.8250346,42.0516385 14.6370189,42.848161 14.6905937,44.087463 C14.5135701,44.0145379 14.2703575,43.9147606 13.6172551,43.8469233 C12.0394913,43.6841139 10.7889874,44.9612916 10.7365465,45.0158441 L10.7155701,45.0390218 C9.87410551,46.0315657 9.53494016,47.1922895 9.70771181,48.4893944 C10.0250504,50.8706236 11.9981055,52.9585979 12.8497748,53.5458141 Z" id="Fill-5"></path>
                <path d="M28.0887307,45.6638313 C28.8037701,45.66157 29.0635654,45.6040497 29.3753764,45.4755829 C29.4822425,45.4314887 29.5925102,45.3859812 30.0327307,45.3400497 C30.7819276,45.2614715 31.5272976,45.9201996 31.6442268,46.0288805 C32.1874866,46.6795529 32.4054709,47.4408848 32.2919433,48.2918184 C32.0356913,50.2120368 30.2647465,51.980752 29.7865417,52.3100454 C29.5983213,52.4396428 29.3994709,52.5026749 29.178652,52.5026749 C28.8233291,52.5026749 28.5217228,52.3384522 28.4655969,52.3059469 C28.3483843,52.237827 28.2169984,52.2036257 28.0858961,52.2036257 C27.9547937,52.2036257 27.8238331,52.237827 27.7078961,52.3056642 C27.6512031,52.3385936 27.3497386,52.5026749 26.994274,52.5026749 C26.7730299,52.5026749 26.5737543,52.4396428 26.3858173,52.3106107 C25.9074709,51.9806107 24.136526,50.2101996 23.8808409,48.2916771 C23.7673134,47.4401782 23.9818961,46.6829448 24.5183528,46.0403281 C24.6181323,45.9454972 25.290652,45.3341139 26.0158961,45.3341139 C26.0577071,45.3341139 26.1002268,45.3360925 26.1410457,45.340191 C26.5797071,45.3856985 26.6901165,45.4313473 26.7978331,45.4758655 C27.1095024,45.603767 27.3692976,45.6612874 28.0887307,45.6638313 M29.1379748,41.8696086 C29.4490772,41.5387606 30.0221008,41.3743966 30.8243055,41.3876814 C30.530778,41.7677113 30.100337,42.1101482 29.5023685,42.1101482 C29.3470299,42.1101482 29.1817701,42.0883837 29.008148,42.0451375 C29.0418803,41.9863452 29.0842583,41.9267049 29.1379748,41.8696086 M23.4170929,45.0155615 L23.3958331,45.0390218 C22.5543685,46.0315657 22.2152031,47.1922895 22.3879748,48.4893944 C22.7053134,50.8706236 24.6783685,52.9585979 25.5301795,53.5458141 C25.9721008,53.8500925 26.4647622,54.0044223 26.994274,54.0044223 C27.4275496,54.0044223 27.8039906,53.9008291 28.0867465,53.7870604 C28.3699276,53.9008291 28.7465102,54.0044223 29.178652,54.0044223 C29.708589,54.0044223 30.2011087,53.8499512 30.6418961,53.5456728 C31.4932819,52.9597285 33.4664787,50.8734501 33.7846677,48.4899597 C33.9578646,47.1922895 33.6144472,46.0264779 32.7640535,45.0248891 L32.7401008,44.9987435 C32.6873764,44.945039 31.4312031,43.6827006 29.8752661,43.8470647 C29.3093291,43.9059983 29.0515181,43.9885336 28.8774709,44.0570775 C28.8712346,43.8788634 28.8542268,43.7072916 28.8289984,43.5419383 C29.0580378,43.5875872 29.2831087,43.6116128 29.502652,43.6116128 C31.8226677,43.6116128 32.7650457,41.1549148 32.7656126,40.7459126 C32.7656126,40.3752103 32.4991559,40.0635829 32.1317858,40.0046493 C30.226337,39.7002296 28.8492661,39.9816128 28.0396913,40.8420154 C27.9284315,40.9603066 27.8374394,41.082131 27.7600535,41.2036728 C27.6166205,41.0323837 27.5130142,40.9340197 27.4965732,40.9188976 C27.1928409,40.6372317 26.7159118,40.6544737 26.4331559,40.9573388 C26.1508252,41.2597799 26.1674079,41.7354887 26.4653291,42.0131974 C26.4751087,42.0225251 27.3109039,42.8392574 27.3697228,44.087039 C27.1928409,44.0141139 26.9492031,43.9146193 26.2975181,43.8469233 C24.7214551,43.6842552 23.4695339,44.961009 23.4170929,45.0155615" id="Fill-7"></path>
                <path d="M41.6849386,52.5026184 C41.3296157,52.5026184 41.0278677,52.3383957 40.9721669,52.3060317 C40.8548126,52.2377704 40.723285,52.2037105 40.5920409,52.2037105 C40.4609386,52.2037105 40.3302614,52.2377704 40.2144661,52.3054664 C40.1576315,52.338537 39.8557417,52.5026184 39.5005606,52.5026184 C39.2793165,52.5026184 39.0800409,52.4395863 38.8921039,52.3106955 C38.4138992,51.9806955 36.6426709,50.2100017 36.3869858,48.2916206 C36.2736,47.440263 36.4881827,46.6828882 37.0246394,46.0402715 C37.1244189,45.945582 37.7969386,45.3340574 38.5223244,45.3340574 C38.5639937,45.3340574 38.6065134,45.336036 38.6473323,45.3401345 C39.085852,45.3857833 39.1965449,45.4314321 39.3041197,45.4756677 C39.6156472,45.6038518 39.8754425,45.6613722 40.5951591,45.6637747 C41.3100567,45.6616548 41.569852,45.6039931 41.881663,45.4755263 C41.9885291,45.4315734 42.0989386,45.386066 42.5390173,45.3399931 C43.2882142,45.2621216 44.0333008,45.9200017 44.1505134,46.0286827 C44.6937732,46.6796377 44.9117575,47.4409696 44.7982299,48.2917619 C44.5418362,50.2121216 42.7708913,51.9808368 42.2928283,52.3101302 C42.1046079,52.4397276 41.9057575,52.5026184 41.6849386,52.5026184 L41.6849386,52.5026184 Z M41.6442614,41.8696934 C41.9553638,41.5387041 42.5288126,41.3723615 43.3304504,41.3877662 C43.0370646,41.7676548 42.6066236,42.110233 42.0086551,42.110233 C41.8533165,42.110233 41.6880567,42.0884685 41.5144346,42.0450809 C41.5480252,41.9862887 41.5905449,41.9266484 41.6442614,41.8696934 L41.6442614,41.8696934 Z M45.2463874,44.9986869 C45.1935213,44.9448411 43.9364976,43.6822201 42.3816945,43.8470081 C41.8450961,43.9029739 41.5889858,43.9777362 41.3837575,44.0573036 C41.377663,43.8789482 41.3606551,43.7075178 41.3354268,43.5420231 C41.5644661,43.5875306 41.789537,43.6115563 42.0089386,43.6115563 C44.3281039,43.6115563 45.2713323,41.1551409 45.2720409,40.7458561 C45.2720409,40.3751537 45.0054425,40.0635263 44.6380724,40.0045927 C42.7323402,39.7000317 41.355411,39.9816976 40.545978,40.8419589 C40.4347181,40.9602501 40.343726,41.0819332 40.2663402,41.2036163 C40.1230488,41.0323272 40.0193008,40.9341045 40.0031433,40.9191238 C39.8557417,40.7821773 39.6680882,40.7106655 39.4621512,40.7184385 C39.2618835,40.7259289 39.0763559,40.8107255 38.9393008,40.9574236 C38.6572535,41.2597233 38.6736945,41.7352908 38.9720409,42.0137062 C39.0115843,42.051582 39.823285,42.8481045 39.8770016,44.0874064 C39.699978,44.0144814 39.4567654,43.9147041 38.8038047,43.8468668 C37.2260409,43.68434 35.975537,44.9613764 35.9232378,45.0157876 L35.9022614,45.0389653 C35.0606551,46.0313679 34.7214898,47.1923743 34.8942614,48.4894792 C35.2117417,50.8707084 37.1847969,52.958824 38.0364661,53.5457576 C38.4783874,53.850036 38.9710488,54.0043657 39.5005606,54.0043657 C39.933978,54.0043657 40.3102772,53.9009139 40.5930331,53.7870039 C40.8762142,53.9009139 41.2527969,54.0043657 41.6849386,54.0043657 C42.2147339,54.0043657 42.7072535,53.8498946 43.1483244,53.5456163 C43.9995685,52.9595306 45.9729071,50.8732522 46.2909543,48.4899032 C46.4641512,47.1925156 46.1207339,46.0267041 45.2704819,45.0249739 L45.2463874,44.9986869 Z" id="Fill-9"></path>
                <polygon id="Fill-11" points="10.7029134 58.0008565 45.4699843 58.0008565 45.4699843 55.6830835 10.7029134 55.6830835"></polygon>
            </g>
        </g>
    </g>
</svg>