<?xml version="1.0" encoding="UTF-8" standalone="no"?>
<svg width="61px" height="60px" viewBox="0 0 61 60" version="1.1" xmlns="http://www.w3.org/2000/svg" xmlns:xlink="http://www.w3.org/1999/xlink">
    <!-- Generator: sketchtool 41.2 (35397) - http://www.bohemiancoding.com/sketch -->
    <title>23380DB0-861D-434C-9040-CD79F759069A</title>
    <desc>Created with sketchtool.</desc>
    <defs></defs>
    <g id="BDA" stroke="none" stroke-width="1" fill="none" fill-rule="evenodd">
        <g id="Desktop" transform="translate(-491.000000, -1576.000000)" stroke="#979797" stroke-width="0.2" fill="#C0C0C0">
            <g id="Page-1" transform="translate(492.000000, 1576.000000)">
                <path d="M6.08680034,9.84087722 L17.7176023,18.4115242 L18.069918,6.01881229 C16.2133951,5.88246571 9.83957662,5.74989846 6.08680034,9.84087722 M18.2697389,20.1235604 C18.1467498,20.1235604 18.024637,20.084895 17.9220973,20.0095991 L4.88758295,10.4039973 C4.75962748,10.3100955 4.67607664,10.1679346 4.65591928,10.0112378 C4.63546977,9.85425023 4.68045868,9.69580911 4.77978485,9.57254483 C6.74001596,7.14447102 9.78319441,5.56994424 13.5794989,5.01874358 C16.4167216,4.60679667 18.6547739,4.90274724 18.7485495,4.91553881 C19.0441909,4.95565785 19.261832,5.21119866 19.253068,5.50802138 L18.8537184,19.5586961 C18.8478756,19.77499 18.7210887,19.9703522 18.5253577,20.0651262 C18.444144,20.1043731 18.3567954,20.1235604 18.2697389,20.1235604" id="Fill-1"></path>
                <path d="M7.42653505,47.8688098 C7.19370283,47.8688098 6.97372458,47.729556 6.88316249,47.5013426 C2.94896989,37.6140354 4.4119859,29.1745021 6.33190227,23.8357632 C8.41307759,18.0490284 11.3881884,14.6447247 11.5135147,14.5025638 C11.7267738,14.2615589 12.0954491,14.2380107 12.3379218,14.4499439 C12.5803945,14.6618771 12.6040575,15.0293442 12.3910906,15.2706398 C12.361877,15.3037816 9.41714828,18.68163 7.41572602,24.2730025 C5.57556272,29.4140534 4.177693,37.5431003 7.96932333,47.0731156 C8.08851473,47.3716826 7.94157043,47.7097872 7.64125485,47.8278186 C7.57085012,47.8557275 7.49781618,47.8688098 7.42653505,47.8688098" id="Fill-3"></path>
                <path d="M10.8360226,47.1985311 C9.24914099,47.1985311 8.02392351,47.5848949 7.18987585,48.3614017 C4.95153147,50.4455566 5.78645554,54.8836522 6.42097447,57.1820659 C9.48956874,51.0025716 15.112014,49.4012988 18.4487889,49.0140629 C15.3828239,47.8058403 12.8257594,47.1985311 10.8360226,47.1985311 M6.33070451,59.4156496 L6.32865956,59.4156496 C6.08677113,59.4147775 5.87000638,59.2653486 5.78441059,59.0400424 C5.65850007,58.7094964 2.74619844,50.9066348 6.39146875,47.5125062 C8.94181414,45.137343 13.9665496,45.6286558 21.3248657,48.9730717 C21.5845744,49.091103 21.7204176,49.3783321 21.6465072,49.6524788 C21.5725969,49.9266256 21.3134724,50.1077427 21.026303,50.0807059 C20.606796,50.0417497 10.6808985,49.233264 6.87582988,59.043531 C6.78877342,59.267965 6.57200867,59.4156496 6.33070451,59.4156496" id="Fill-5"></path>
                <path d="M16.1900243,26.7100304 C15.9428774,26.7100304 15.7132587,26.5524615 15.6337977,26.3056422 C12.8690247,17.7065048 1.65042633,16.7235885 1.53766192,16.7145762 C1.21602042,16.6892838 0.97588481,16.4093227 1.00130062,16.0895333 C1.0264243,15.7694532 1.29898699,15.5301925 1.62910042,15.5551942 C1.75208959,15.5650786 4.68162722,15.8057929 8.01635719,17.188446 C12.4796077,19.0391545 15.4985389,22.0693046 16.7468351,25.9512574 C16.8449927,26.2570923 16.675554,26.5844404 16.3682271,26.6821215 C16.3092157,26.7010182 16.2490357,26.7100304 16.1900243,26.7100304" id="Fill-8"></path>
                <path d="M13.1166098,31.6685397 C12.9337328,31.6685397 12.753485,31.5833594 12.639552,31.4237555 C9.00859638,26.3335801 6.1693287,24.9442405 4.42644662,24.675036 C2.84277853,24.4296703 1.97601167,25.0625626 1.94007896,25.0895993 C1.68446015,25.281473 1.31812188,25.2343767 1.12326731,24.9820338 C0.927828474,24.7296909 0.970480298,24.3697824 1.22171707,24.1723851 C1.27196443,24.133429 2.46679978,23.2182498 4.53891889,23.5162354 C7.41616423,23.928473 10.462264,26.3626519 13.592499,30.7504534 C13.7794659,31.01239 13.7175331,31.3754963 13.4540266,31.5612649 C13.3517791,31.6336536 13.2334641,31.6685397 13.1166098,31.6685397" id="Fill-10"></path>
                <path d="M11.0776481,36.4766026 C10.9926366,36.4766026 10.9064565,36.4582874 10.8249506,36.4190405 C4.289581,33.2958608 1.06323341,35.7216089 1.03139061,35.7466106 C0.778108885,35.9445893 0.410309933,35.9012724 0.211073329,35.6480573 C0.0118367246,35.3957144 0.0559492279,35.0299916 0.309815224,34.8317222 C0.462894374,34.7119465 4.14701874,31.937628 11.3309298,35.3710034 C11.6216049,35.5099664 11.7443019,35.857374 11.604661,36.1466381 C11.5041663,36.3550826 11.2949971,36.4766026 11.0776481,36.4766026" id="Fill-12"></path>
                <path d="M13.3896399,9.77218063 C12.7215253,9.77218063 12.1781528,10.3132062 12.1781528,10.9780774 C12.1781528,11.6432394 12.7215253,12.184265 13.3896399,12.184265 C14.0580465,12.184265 14.6017112,11.6432394 14.6017112,10.9780774 C14.6017112,10.3132062 14.0580465,9.77218063 13.3896399,9.77218063 M13.3896399,13.3471356 C12.0773659,13.3471356 11.0096096,12.2845626 11.0096096,10.9780774 C11.0096096,9.67188305 12.0773659,8.60931004 13.3896399,8.60931004 C14.7022059,8.60931004 15.7702544,9.67188305 15.7702544,10.9780774 C15.7702544,12.2845626 14.7022059,13.3471356 13.3896399,13.3471356" id="Fill-15"></path>
                <path d="M36.894885,1.9101579 C35.6851507,2.61427605 33.9615496,3.93151771 32.8832764,6.12440094 C31.660396,8.61090899 31.522508,11.6358261 32.4690279,15.1337409 C32.8596134,14.2871711 33.4637502,13.3496067 34.3442475,12.8600381 C34.8318221,12.5885079 35.3527002,12.4754187 35.8984099,12.5204799 C35.8166118,10.5485421 35.7283868,5.2787033 36.894885,1.9101579 M32.4401065,17.5807113 C32.1935439,17.5807113 31.9715207,17.4257588 31.8891384,17.1917311 C30.2926163,12.6646759 30.2771331,8.76295432 31.8426888,5.5950041 C33.8598864,1.51274688 37.7525957,0.192888753 37.9170681,0.138524552 C38.1504846,0.0617750931 38.4090248,0.139105988 38.5609354,0.332723942 C38.712846,0.526051178 38.7262842,0.793511415 38.594531,1.00108382 C36.5305917,4.25363287 37.0982115,13.1208119 37.1040542,13.2097715 C37.1172003,13.4051337 37.0307282,13.5935188 36.8741434,13.7118409 C36.7178507,13.8301629 36.5121871,13.8618512 36.3263888,13.7967304 C35.8022972,13.6121247 35.3404305,13.6382893 34.9142044,13.8749335 C33.7938637,14.4982321 33.1610976,16.4297601 33.011524,17.1213774 C32.9568947,17.3760461 32.738085,17.5629775 32.4772077,17.5795484 C32.4646459,17.5801299 32.4523762,17.5807113 32.4401065,17.5807113" id="Fill-17"></path>
                <path d="M51.7541379,3.85220994 C52.2653756,6.6288542 51.9942736,9.93344171 50.9425847,13.7084104 C50.5373924,15.1625801 50.0793235,16.4501685 49.680266,17.4624474 C52.7319164,14.6381254 54.2311572,11.8408402 54.1426401,9.12524665 C54.0666848,6.79107465 52.7993998,4.96769356 51.7541379,3.85220994 M48.1427554,20.1068151 C48.0112943,20.1068151 47.8801253,20.0629167 47.7726193,19.97512 C47.561113,19.8030152 47.4980117,19.507646 47.6207087,19.2646061 C47.6703718,19.1654714 52.591107,9.26740758 50.1473911,2.32826803 C50.0641324,2.09133314 50.142717,1.82823367 50.3425378,1.67531619 C50.5426508,1.52210799 50.818427,1.51425861 51.027012,1.65496595 C51.1955743,1.76863655 55.1543063,4.49411451 55.3103068,9.07553393 C55.4335881,12.6999109 53.1432436,16.3699305 48.5026667,19.9832601 C48.3969135,20.0658239 48.2698344,20.1068151 48.1427554,20.1068151" id="Fill-19"></path>
                <path d="M31.3559906,9.90320708 C31.3063275,9.90320708 31.255788,9.89681129 31.2055406,9.883729 C29.7457381,9.49765596 28.3344302,7.83475101 27.0113472,4.9403661 C26.0639508,2.86842142 25.5106457,0.929916136 25.4875669,0.848515194 C25.3999262,0.539482333 25.5807583,0.218239332 25.8912986,0.131024037 C26.2024232,0.0438087425 26.524649,0.224053685 26.6122897,0.532795828 C27.2035725,2.61753209 29.2350848,8.15948262 31.5058562,8.75952385 C31.8175651,8.84208766 32.0033635,9.16042349 31.9203969,9.47090994 C31.8508686,9.73110223 31.6145307,9.90320708 31.3559906,9.90320708" id="Fill-21"></path>
                <path d="M26.961392,6.15451929 C25.6283764,7.2156387 24.9380595,8.81603936 24.9065089,10.9283938 C24.8919021,11.8871806 25.0210261,12.7834631 25.1612513,13.4608352 C26.0744677,11.5633211 26.6759753,8.26367583 26.961392,6.15451929 M24.9333854,15.4682406 C24.8945313,15.4682406 24.855093,15.4641705 24.8162389,15.4563212 C24.6152495,15.41533 24.4501928,15.2725876 24.3821251,15.0798418 C24.3549565,15.0030924 21.7295322,7.36535829 27.4215058,4.48754429 C27.6122705,4.39189818 27.8398443,4.40614335 28.0160021,4.52591902 C28.19216,4.64598541 28.288857,4.8518135 28.2678232,5.06316523 C28.2356883,5.38615254 27.4588992,13.0061528 25.3637014,15.2795648 C25.2518134,15.4010848 25.0952286,15.4682406 24.9333854,15.4682406" id="Fill-23"></path>
                <path d="M41.790438,9.42666271 C41.6385274,9.42666271 41.491291,9.36764703 41.3811558,9.2600815 L36.5226456,4.51237158 C36.2924426,4.28735612 36.288937,3.91930757 36.5150501,3.69022207 C36.7411632,3.46084584 37.1107149,3.45764795 37.3415022,3.68266341 L41.6177858,7.86143889 L43.1208244,4.75395794 C43.1964876,4.59667969 43.3399262,4.48155551 43.5102414,4.44085503 C43.6811408,4.39957313 43.8608043,4.43736642 44.0004453,4.54289693 L47.3471528,7.07214047 L51.2454127,5.91421208 C51.5553687,5.8223453 51.8802237,5.99764804 51.9725386,6.30522732 C52.0648536,6.61280659 51.8889878,6.93695677 51.5799082,7.02853283 L47.3968159,8.27106006 C47.2177366,8.32426139 47.024927,8.28908455 46.8762299,8.17686754 L43.8634336,5.8996762 L42.3168667,9.09727961 C42.2350687,9.26647728 42.076439,9.38567152 41.8909328,9.41794118 C41.8573371,9.42375553 41.8237415,9.42666271 41.790438,9.42666271" id="Fill-25"></path>
                <path d="M49.9782153,15.4681534 C49.8636981,15.4681534 49.7483044,15.4347209 49.6466412,15.3652393 L47.4892184,13.8825793 L41.9500318,15.4460588 C41.7732897,15.496353 41.582525,15.4605947 41.436165,15.3489591 L36.0900801,11.2928665 C35.8335849,11.0983764 35.784214,10.7335258 35.9796528,10.4779849 C36.1750917,10.2230256 36.5414299,10.1730221 36.7988016,10.3683844 L41.9123463,14.2480114 L47.4354654,12.6891834 C47.6034435,12.6420871 47.7833992,12.6714496 47.92713,12.7700029 L50.310958,14.4081968 C50.5762172,14.5907675 50.6428242,14.9530017 50.4593629,15.2169733 C50.3463064,15.3803567 50.1637215,15.4681534 49.9782153,15.4681534" id="Fill-27"></path>
                <path d="M15.756115,38.299693 C17.2506817,39.8864299 20.3788716,42.6206294 23.7837142,42.0569279 C27.4742656,41.4467115 30.6004106,37.2126997 33.0745085,29.472633 C33.0876546,29.4316418 33.1054749,29.3921042 33.1273851,29.3548924 L36.0396867,24.4054244 C32.7043725,23.7478211 30.6889277,26.5436527 28.1800656,30.0215079 C25.2750674,34.0499824 22.0122028,38.5776191 15.756115,38.299693 M22.8737112,43.2939315 C20.9201992,43.2939315 18.8536307,42.4706191 16.8320511,40.8760328 C15.0555734,39.4747737 13.9410754,37.9839736 13.8943337,37.9211786 C13.7538163,37.73134 13.7418388,37.4760899 13.8645358,37.2746226 C13.987525,37.0728645 14.2200651,36.9655897 14.4543579,37.001348 C20.9789185,38.0113011 24.1573559,33.6048937 27.2309164,29.3435544 C29.955959,25.5650971 32.5308438,21.9953751 37.1132857,23.4864659 C37.2815559,23.5411208 37.4156463,23.6684552 37.4781633,23.8330014 C37.5409725,23.9972568 37.5254893,24.1812811 37.4360958,24.3330357 L34.1682649,29.8869057 C31.5516047,38.0409543 28.1210542,42.5214947 23.9706811,43.2049719 C23.6098934,43.2642783 23.2438473,43.2939315 22.8737112,43.2939315" id="Fill-29"></path>
                <path d="M45.2780719,58.806945 C42.1078144,58.806945 38.9956919,58.0580563 36.5116613,56.2125807 C31.2500037,52.3038819 29.6540659,44.5327084 31.7673762,33.1153542 C31.8258033,32.7996349 32.1302088,32.5911903 32.4477604,32.6487524 C32.7650199,32.7071867 32.9750655,33.0101144 32.9166383,33.3261245 C30.9190139,44.1178544 32.40394,51.709655 37.2107422,55.2805399 C40.7090682,57.8795557 47.8284173,58.9790498 55.1952053,55.2517589 C56.7531655,54.4633326 57.7607418,53.6792671 58.27753,53.0585849 C51.8385652,54.6206109 47.279202,54.3118687 44.3636869,52.1230555 C40.269696,49.0487164 40.1759204,42.948588 40.0853583,37.0493455 C40.0012232,31.5887959 39.9217623,26.4308833 36.6396168,24.5426722 C36.360335,24.3819054 36.2645144,24.0260669 36.4260655,23.7481409 C36.5879087,23.4699241 36.9451908,23.3754409 37.2244726,23.535917 C41.0800807,25.7540927 41.1642158,31.2320853 41.2536093,37.0316117 C41.3400815,42.6514745 41.4294751,48.4626296 45.067442,51.1947941 C47.8476982,53.2824375 52.447084,53.4280871 59.1279372,51.6410457 C59.3032187,51.5948216 59.4890171,51.6305798 59.6327479,51.7390175 C59.7764787,51.8477459 59.8620745,52.0163622 59.8641194,52.1960257 C59.8842768,53.9888814 56.9760651,55.6549843 55.7248475,56.2881673 C52.7731075,57.7818746 48.9858593,58.806945 45.2780719,58.806945" id="Fill-31"></path>
                <path d="M41.8152404,42.9276272 C41.500318,42.9276272 41.1813057,42.9253015 40.8564507,42.9209407 C40.5336407,42.9162893 40.2756848,42.6523176 40.280359,42.3310746 C40.2850331,42.0098316 40.5593486,41.7627216 40.8728103,41.7580701 C50.8907306,41.9037197 54.0682915,39.8213092 54.9733282,38.0531644 C55.6504989,36.7289455 55.188048,35.2875674 54.7562713,34.4061115 C53.8205604,35.9262741 52.5231854,36.9635547 50.8881014,37.4958587 C46.2650526,39.0011947 40.5944049,35.929472 40.3554379,35.7980676 C40.0732347,35.6428244 39.9709872,35.2893117 40.1266955,35.0081878 C40.2832803,34.7270638 40.6385174,34.6256033 40.9204285,34.7802651 C40.9747657,34.8099183 46.3915474,37.7386079 50.527898,36.389678 C52.1585999,35.8579555 53.3943343,34.70933 54.2003369,32.9763621 C54.286517,32.791175 54.4641355,32.6644221 54.6683384,32.6426183 C54.874002,32.622268 55.0729465,32.7074483 55.1968121,32.8699595 C55.2876663,32.9900259 57.4109092,35.8376052 56.01859,38.5726769 C54.5471021,41.4638639 49.7698056,42.9276272 41.8152404,42.9276272" id="Fill-34"></path>
                <path d="M38.3953236,26.2633718 C38.2121545,25.9991095 38.2787614,25.6368753 38.5443129,25.4545953 L45.0560195,20.9830672 L44.0066677,19.4649396 L36.1932041,24.2856197 C35.9191807,24.4553988 35.5592694,24.3710907 35.3889543,24.0978161 C35.2189312,23.8251229 35.3036506,23.466668 35.577674,23.2974704 L43.8641055,18.1846191 C44.1287805,18.0212358 44.4764221,18.0936245 44.6531642,18.3491653 L46.3495967,20.8022408 C46.5324737,21.0665031 46.4655746,21.4281559 46.2000232,21.6101451 L39.2080454,26.4116378 C39.1066742,26.4811193 38.9912806,26.5145519 38.8767634,26.5145519 C38.690965,26.5145519 38.5086723,26.4267551 38.3953236,26.2633718 Z" id="Fill-36"></path>
            </g>
        </g>
    </g>
</svg>