<?xml version="1.0" encoding="UTF-8" standalone="no"?>
<svg width="71px" height="71px" viewBox="0 0 71 71" version="1.1" xmlns="http://www.w3.org/2000/svg" xmlns:xlink="http://www.w3.org/1999/xlink">
    <!-- Generator: sketchtool 41.2 (35397) - http://www.bohemiancoding.com/sketch -->
    <title>0AE67D89-76C9-4E3F-8421-C20DA9DB31FB</title>
    <desc>Created with sketchtool.</desc>
    <defs>
        <polygon id="path-1" points="0 70.5 70.5 70.5 70.5 0.372 0 0.372"></polygon>
    </defs>
    <g id="BDA" stroke="none" stroke-width="1" fill="none" fill-rule="evenodd">
        <g id="Desktop" transform="translate(-393.000000, -723.000000)">
            <g id="Page-1" transform="translate(393.000000, 723.000000)">
                <polygon id="Fill-1" fill="#9A9A9A" points="7.12665 40.9373 0.76665 48.5678 69.73365 48.5678 63.37515 40.9373"></polygon>
                <polygon id="Fill-2" fill="#666666" points="58.3632 40.9373 64.7232 48.5678 69.7332 48.5678 63.3747 40.9373"></polygon>
                <g id="Group-79" transform="translate(0.000000, 0.127850)">
                    <path d="M2.40255,47.67135 L68.09805,47.67135 L63.01455,41.57835 L7.48605,41.57835 L2.40255,47.67135 Z M69.73305,49.20285 L0.76605,49.20285 C0.46905,49.20285 0.19905,49.03185 0.07155,48.76485 C-0.05295,48.49485 -0.01095,48.17535 0.17805,47.94735 L6.53805,40.31985 C6.68355,40.14435 6.89955,40.04385 7.12605,40.04385 L63.37305,40.04385 C63.60105,40.04385 63.81705,40.14435 63.96255,40.32135 L70.32255,47.94735 C70.51155,48.17535 70.55205,48.49485 70.42905,48.76485 C70.30155,49.03185 70.03155,49.20285 69.73305,49.20285 Z" id="Fill-3" fill="#333333"></path>
                    <path d="M56.4378,5.6055 C55.8318,7.341 48.6138,17.9085 48.6138,17.9085 C48.6138,17.9085 49.5498,5.1435 50.1573,3.4095 C50.7633,1.6755 52.6593,0.762 54.3963,1.368 C56.1303,1.974 57.0438,3.87 56.4378,5.6055" id="Fill-5" fill="#A0D167"></path>
                    <path d="M54.39585,1.3677 C53.91285,1.1982 53.41635,1.1487 52.93785,1.2012 C54.25935,1.9947 54.88785,3.6327 54.35835,5.1477 C53.98635,6.2157 51.09285,10.6512 48.93285,13.8927 C48.74085,16.1712 48.61485,17.9082 48.61485,17.9082 C48.61485,17.9082 55.83135,7.3407 56.43735,5.6052 C57.04485,3.8697 56.12985,1.9737 54.39585,1.3677" id="Fill-7" fill="#79BD28"></path>
                    <path d="M62.35425,13.0278 C60.80925,14.0238 48.61425,17.9088 48.61425,17.9088 C48.61425,17.9088 57.20775,8.4258 58.75575,7.4328 C60.30075,6.4383 62.35875,6.8838 63.35325,8.4318 C64.34775,9.9768 63.89925,12.0348 62.35425,13.0278" id="Fill-9" fill="#A0D167"></path>
                    <path d="M63.35325,8.4312 C63.04425,7.9512 62.63175,7.5762 62.16225,7.3182 C62.75925,8.7747 62.25375,10.4922 60.88425,11.3727 C59.94525,11.9757 55.08375,13.6467 51.40725,14.8647 C49.82025,16.5807 48.61425,17.9082 48.61425,17.9082 C48.61425,17.9082 60.80925,14.0247 62.35425,13.0272 C63.89925,12.0342 64.34775,9.9762 63.35325,8.4312" id="Fill-11" fill="#79BD28"></path>
                    <path d="M40.90455,5.53365 C41.49555,7.27365 48.61455,17.90865 48.61455,17.90865 C48.61455,17.90865 47.79555,5.13765 47.20605,3.39765 C46.61655,1.65765 44.72655,0.72315 42.98655,1.31415 C41.24655,1.90365 40.31355,3.79365 40.90455,5.53365" id="Fill-13" fill="#A0D167"></path>
                    <path d="M45.4632,4.5699 C45.8292,5.6469 46.2807,10.9389 46.5732,14.8239 C47.7372,16.5999 48.6147,17.9094 48.6147,17.9094 C48.6147,17.9094 47.7957,5.1384 47.2062,3.3984 C46.6167,1.6584 44.7267,0.7239 42.9867,1.3149 C42.3402,1.5354 41.8062,1.9314 41.4207,2.4339 C43.1082,1.9629 44.8947,2.8884 45.4632,4.5699" id="Fill-15" fill="#79BD28"></path>
                    <path d="M53.2971,1.9449 C52.2096,1.9449 51.2391,2.6364 50.8791,3.6639 C50.5326,4.6554 49.9896,10.2879 49.6011,15.0849 C52.2861,11.0889 55.3686,6.3459 55.7136,5.3514 C56.1801,4.0194 55.4736,2.5569 54.1416,2.0904 C53.8686,1.9944 53.5836,1.9449 53.2971,1.9449 M48.6141,18.6759 C48.5301,18.6759 48.4446,18.6624 48.3621,18.6324 C48.0336,18.5184 47.8251,18.1989 47.8506,17.8524 C47.9466,16.5384 48.8121,4.9359 49.4331,3.1584 C50.0076,1.5174 51.5586,0.4134 53.2971,0.4134 C53.7576,0.4134 54.2106,0.4914 54.6471,0.6444 C56.7786,1.3884 57.9051,3.7269 57.1611,5.8584 C56.5401,7.6374 49.9911,17.2524 49.2471,18.3429 C49.1016,18.5559 48.8631,18.6759 48.6141,18.6759" id="Fill-17" fill="#333333"></path>
                    <path d="M60.5511,7.6695 C60.0621,7.6695 59.5821,7.8105 59.1696,8.076 C58.2846,8.6445 54.3921,12.75 51.1311,16.2915 C55.7061,14.7945 61.0551,12.9525 61.9401,12.384 C62.5146,12.0135 62.9121,11.4435 63.0576,10.7745 C63.2031,10.1055 63.0771,9.4215 62.7081,8.844 C62.2356,8.109 61.4286,7.6695 60.5511,7.6695 M48.6141,18.6765 C48.3591,18.6765 48.1146,18.5475 47.9691,18.3255 C47.7816,18.0315 47.8146,17.6505 48.0471,17.3955 C48.9336,16.4175 56.7561,7.8075 58.3386,6.7875 C59.0031,6.363 59.7681,6.138 60.5511,6.138 C61.9521,6.138 63.2391,6.8385 63.9981,8.0145 C64.5876,8.9355 64.7871,10.0305 64.5561,11.1 C64.3236,12.168 63.6891,13.083 62.7696,13.6725 C61.1841,14.694 50.1051,18.24 48.8466,18.639 C48.7701,18.6645 48.6921,18.6765 48.6141,18.6765" id="Fill-19" fill="#333333"></path>
                    <path d="M44.05545,1.9038 C43.77645,1.9038 43.49895,1.9488 43.23195,2.0403 C41.89545,2.4933 41.17545,3.9513 41.62995,5.2878 C41.96595,6.2838 45.00645,11.0568 47.65245,15.0753 C47.30895,10.2738 46.81845,4.6383 46.47945,3.6438 C46.12845,2.6028 45.15195,1.9038 44.05545,1.9038 M48.61395,18.6768 C48.36345,18.6768 48.12345,18.5538 47.97645,18.3363 C47.24295,17.2383 40.78395,7.5633 40.17795,5.7798 C39.45495,3.6423 40.60245,1.3143 42.73995,0.5883 C43.16595,0.4443 43.60845,0.3723 44.05545,0.3723 C45.81045,0.3723 47.36745,1.4883 47.93145,3.1518 C48.53745,4.9353 49.29495,16.5438 49.38045,17.8608 C49.39995,18.2073 49.18845,18.5238 48.85995,18.6348 C48.77895,18.6618 48.69645,18.6768 48.61395,18.6768" id="Fill-21" fill="#333333"></path>
                    <path d="M43.3611,11.6949 C41.7561,11.1354 39.9981,11.9349 39.3636,13.5114 C35.1681,23.9409 31.4046,37.0659 34.0836,48.6699 C34.3281,49.7229 35.0856,50.5809 36.1026,50.9469 C37.1181,51.3129 38.2506,51.1374 39.1086,50.4834 C48.7056,43.1799 55.1226,30.9864 58.5441,20.2794 C59.0691,18.6384 58.1916,16.8774 56.5656,16.3089 L43.3611,11.6949 Z" id="Fill-23" fill="#ED5C5C"></path>
                    <path d="M56.56665,16.30905 L43.36065,11.69505 C43.16865,11.62905 42.97665,11.58405 42.78465,11.55405 L52.41765,14.91855 C54.04365,15.48855 54.92115,17.24955 54.39765,18.89055 C50.97465,29.59755 44.55765,41.79105 34.96215,49.09455 C34.77765,49.23255 34.58115,49.34955 34.37565,49.44705 C34.74015,50.13555 35.35065,50.67555 36.10215,50.94705 C37.11915,51.31305 38.25015,51.13755 39.10815,50.48355 C48.70665,43.18155 55.12215,30.98655 58.54365,20.27805 C59.06865,18.63855 58.19265,16.87755 56.56665,16.30905" id="Fill-25" fill="#E83434"></path>
                    <path d="M42.3108,12.28365 C41.3223,12.28365 40.4448,12.87765 40.0758,13.79865 C34.4073,27.88665 32.6928,39.23865 34.8318,48.49815 C35.0163,49.30065 35.5893,49.94565 36.3633,50.22615 C37.1208,50.49915 38.0043,50.36415 38.6463,49.87515 C46.7388,43.71465 53.7243,32.84415 57.8148,20.04765 C58.2168,18.79065 57.5553,17.46615 56.3133,17.03265 L43.1073,12.41865 C42.8493,12.32715 42.5823,12.28365 42.3108,12.28365 M37.1808,51.90165 L37.1808,51.90165 C36.7233,51.90165 36.2733,51.82215 35.8428,51.66765 C34.5768,51.21015 33.6393,50.15565 33.3378,48.84315 C31.1268,39.26565 32.8653,27.61815 38.6523,13.22715 C39.2583,11.72115 40.6938,10.75215 42.3108,10.75215 C42.7548,10.75215 43.1928,10.82415 43.6128,10.97115 L56.8188,15.58515 C58.8498,16.29765 59.9298,18.45915 59.2743,20.51265 C57.3948,26.39715 54.8088,32.11815 51.7968,37.05765 C48.2223,42.91965 44.1093,47.64165 39.5733,51.09315 C38.8893,51.61515 38.0388,51.90165 37.1808,51.90165" id="Fill-27" fill="#333333"></path>
                    <path d="M53.19465,25.93305 C53.10915,25.93305 53.02665,25.91805 52.94265,25.88955 L49.74165,24.77355 C49.34265,24.63255 49.13115,24.19605 49.27065,23.79555 C49.41015,23.39655 49.84815,23.18505 50.24715,23.32605 L53.44665,24.44355 C53.84715,24.58305 54.05715,25.01955 53.91765,25.42005 C53.80665,25.73505 53.51115,25.93305 53.19465,25.93305" id="Fill-29" fill="#333333"></path>
                    <path d="M50.8362,29.14995 C50.7522,29.14995 50.6667,29.13495 50.5827,29.10645 L47.3832,27.98745 C46.9842,27.84945 46.7727,27.41145 46.9122,27.01095 C47.0532,26.61345 47.4897,26.40195 47.8887,26.54145 L51.0882,27.65895 C51.4887,27.79995 51.7002,28.23645 51.5592,28.63395 C51.4482,28.95045 51.1527,29.14995 50.8362,29.14995" id="Fill-31" fill="#333333"></path>
                    <path d="M44.0979,38.99955 C44.0139,38.99955 43.9299,38.98455 43.8459,38.95605 L40.6434,37.83855 C40.2459,37.69905 40.0344,37.26255 40.1754,36.86055 C40.3149,36.46305 40.7514,36.25155 41.1504,36.39105 L44.3514,37.50855 C44.7519,37.64955 44.9604,38.08605 44.8209,38.48355 C44.7114,38.80005 44.4144,38.99955 44.0979,38.99955" id="Fill-33" fill="#333333"></path>
                    <path d="M42.4632,30.3891 C42.3792,30.3891 42.2937,30.3741 42.2097,30.3456 L39.0102,29.2296 C38.6112,29.0886 38.3997,28.6521 38.5392,28.2516 C38.6802,27.8526 39.1167,27.6411 39.5157,27.7821 L42.7152,28.9011 C43.1157,29.0391 43.3272,29.4771 43.1862,29.8761 C43.0752,30.1926 42.7797,30.3891 42.4632,30.3891" id="Fill-35" fill="#333333"></path>
                    <path d="M44.52855,20.2818 C44.44455,20.2818 44.35905,20.2668 44.27655,20.2383 L41.07555,19.1223 C40.67655,18.9813 40.46505,18.5448 40.60605,18.1443 C40.74555,17.7453 41.18205,17.5338 41.58105,17.6748 L44.78205,18.7923 C45.18105,18.9318 45.39105,19.3683 45.25155,19.7688 C45.14205,20.0838 44.84505,20.2818 44.52855,20.2818" id="Fill-37" fill="#333333"></path>
                    <path d="M29.5461,48.78465 L34.0461,49.97565 C34.8876,50.19615 35.7531,49.74615 36.0561,48.93165 C41.4411,34.41765 52.0866,27.49215 67.1481,30.15165 C68.0646,30.31365 68.6751,31.18665 68.5146,32.10015 C65.8776,47.16465 55.7346,54.81165 40.2531,54.91965 C39.3861,54.92565 38.6631,55.58865 38.5851,56.45115 L38.1696,61.08915 L29.5461,48.78465 Z" id="Fill-39" fill="#F9CD00"></path>
                    <path d="M67.1472,30.1518 C66.6897,30.0693 66.2382,29.9988 65.7882,29.9343 C65.7867,30.0048 65.7792,30.0783 65.7657,30.1488 C63.1272,45.2133 52.9872,52.8603 37.5027,52.9683 C36.6372,52.9743 35.9157,53.6358 35.8377,54.4998 L35.5782,57.3903 L38.1702,61.0893 L38.5857,56.4513 C38.6637,55.5873 39.3852,54.9258 40.2522,54.9198 C55.7352,54.8103 65.8752,47.1648 68.5137,32.1003 C68.6757,31.1853 68.0622,30.3123 67.1472,30.1518" id="Fill-41" fill="#F6B300"></path>
                    <path d="M31.3773,50.06205 L37.5948,58.93005 L37.8228,56.38455 C37.9353,55.12155 38.9778,54.16155 40.2468,54.15405 C55.7223,54.04305 65.2368,46.37355 67.7598,31.96755 C67.8453,31.46955 67.5123,30.99255 67.0143,30.90555 C64.9593,30.54105 62.9523,30.35805 61.0518,30.35805 C49.7403,30.35805 41.3463,36.87255 36.7743,49.19805 C36.4188,50.15505 35.4963,50.79855 34.4793,50.79855 C34.2693,50.79855 34.0563,50.77155 33.8493,50.71755 L31.3773,50.06205 Z M38.1693,61.85355 C37.9233,61.85355 37.6878,61.73655 37.5408,61.52955 L28.9188,49.22355 C28.7343,48.96105 28.7343,48.61155 28.9173,48.34605 C29.1018,48.08505 29.4318,47.96205 29.7423,48.04305 L34.2423,49.23555 C34.3218,49.25655 34.4013,49.26555 34.4793,49.26555 C34.8588,49.26555 35.2038,49.02555 35.3388,48.66405 C40.1523,35.68605 49.0428,28.82655 61.0518,28.82655 C63.0408,28.82655 65.1363,29.01855 67.2813,29.39655 C68.6103,29.63055 69.5013,30.90555 69.2688,32.23305 C67.9368,39.84405 64.7088,45.72555 59.6748,49.71855 C54.7563,53.62155 48.2208,55.63005 40.2573,55.68705 C39.7833,55.69005 39.3918,56.04705 39.3483,56.52105 L38.9328,61.15605 C38.9058,61.47555 38.6778,61.74555 38.3673,61.82805 C38.3013,61.84455 38.2353,61.85355 38.1693,61.85355 L38.1693,61.85355 Z" id="Fill-43" fill="#333333"></path>
                    <path d="M67.1487,30.1518 C68.0622,30.3123 68.6742,31.1853 68.5137,32.1003 C67.6047,37.3008 65.7987,41.6718 63.1287,45.1488 C60.2622,44.1288 57.6762,42.2418 55.7967,39.5613 C53.9187,36.8808 53.0262,33.8043 53.0457,30.7608 C57.2262,29.4393 61.9497,29.2323 67.1487,30.1518" id="Fill-45" fill="#6ECCC6"></path>
                    <path d="M68.4963,31.4322 C68.4873,31.3917 68.4753,31.3512 68.4633,31.3122 C68.4603,31.3002 68.4573,31.2882 68.4528,31.2762 C68.2788,30.7617 67.8618,30.3447 67.3158,30.1902 C67.2603,30.1752 67.2063,30.1602 67.1493,30.1512 C66.8688,30.1017 66.5913,30.0582 66.3168,30.0147 C66.2088,29.9982 66.0993,29.9817 65.9928,29.9667 C65.9238,29.9562 65.8563,29.9472 65.7873,29.9382 C65.7843,30.0087 65.7783,30.0792 65.7663,30.1497 C64.8078,35.6217 62.8563,40.1157 60.0213,43.6257 C60.9963,44.2512 62.0328,44.7597 63.1113,45.1437 C65.0283,42.6522 66.5178,39.6897 67.5423,36.2547 C67.5588,36.1992 67.5753,36.1467 67.5903,36.0897 C67.6383,35.9262 67.6848,35.7627 67.7313,35.5947 C67.7628,35.4852 67.7913,35.3757 67.8213,35.2647 C67.8573,35.1237 67.8963,34.9857 67.9308,34.8432 C67.9908,34.6017 68.0508,34.3557 68.1063,34.1097 C68.1303,34.0107 68.1528,33.9072 68.1753,33.8052 C68.2173,33.6147 68.2578,33.4242 68.2983,33.2307 C68.3178,33.1392 68.3358,33.0462 68.3538,32.9547 C68.4093,32.6712 68.4648,32.3877 68.5143,32.0997 C68.5548,31.8717 68.5458,31.6467 68.4963,31.4322" id="Fill-47" fill="#34B7AF"></path>
                    <path d="M53.81865,31.3296 C53.91015,34.1271 54.80415,36.8106 56.42265,39.1206 C58.04415,41.4321 60.26115,43.1886 62.85915,44.2296 C65.26665,40.9251 66.91365,36.8046 67.75965,31.9686 C67.84665,31.4706 67.51215,30.9921 67.01415,30.9066 C64.94565,30.5406 62.92515,30.3546 61.01415,30.3546 C58.47465,30.3546 56.05665,30.6816 53.81865,31.3296 M63.12915,45.9171 C63.04215,45.9171 62.95665,45.9021 62.87115,45.8721 C59.74365,44.7591 57.08115,42.7296 55.16865,40.0011 C53.25615,37.2741 52.25715,34.0776 52.27815,30.7581 C52.28115,30.4236 52.49715,30.1311 52.81365,30.0321 C55.35015,29.2296 58.11015,28.8216 61.01415,28.8216 C63.01515,28.8216 65.12415,29.0151 67.28115,29.3961 C68.61015,29.6301 69.50115,30.9036 69.26865,32.2326 C68.34165,37.5381 66.47865,42.0411 63.73665,45.6156 C63.58965,45.8076 63.36165,45.9171 63.12915,45.9171" id="Fill-49" fill="#333333"></path>
                    <path d="M59.1756,35.0928 C59.7921,35.9733 60.7071,36.3948 61.2186,36.0378 C61.7301,35.6778 61.6446,34.6758 61.0281,33.7938 C60.4116,32.9148 59.4966,32.4918 58.9851,32.8503 C58.4736,33.2073 58.5591,34.2123 59.1756,35.0928" id="Fill-51" fill="#333333"></path>
                    <path d="M51.8586,40.48635 C51.8151,40.48635 51.7701,40.48185 51.7251,40.47435 L45.9441,39.45885 C45.5271,39.38535 45.2496,38.98785 45.3231,38.57235 C45.3951,38.15385 45.7926,37.87485 46.2096,37.94835 L51.9891,38.96385 C52.4061,39.03735 52.6851,39.43635 52.6116,39.85185 C52.5471,40.22385 52.2231,40.48635 51.8586,40.48635" id="Fill-53" fill="#333333"></path>
                    <path d="M55.67895,46.43505 C55.63545,46.43505 55.59045,46.43205 55.54545,46.42305 L41.25645,43.90905 C40.83795,43.83705 40.56045,43.43955 40.63395,43.02255 C40.70745,42.60555 41.10345,42.32805 41.52195,42.40155 L55.81095,44.91405 C56.22795,44.98755 56.50695,45.38505 56.43345,45.80205 C56.36745,46.17405 56.04495,46.43505 55.67895,46.43505" id="Fill-55" fill="#333333"></path>
                    <mask id="mask-2" fill="white">
                        <use xlink:href="#path-1"></use>
                    </mask>
                    <g id="Clip-58"></g>
                    <polygon id="Fill-57" fill="#2B81B4" mask="url(#mask-2)" points="7.014 48.4395 35.091 48.4395 35.091 16.737 7.014 16.737"></polygon>
                    <polygon id="Fill-59" fill="#005D98" mask="url(#mask-2)" points="30.9525 48.4395 35.091 48.4395 35.091 16.737 30.9525 16.737"></polygon>
                    <path d="M7.7805,47.6715 L34.3245,47.6715 L34.3245,17.502 L7.7805,17.502 L7.7805,47.6715 Z M35.091,49.203 L7.014,49.203 C6.591,49.203 6.246,48.861 6.246,48.4395 L6.246,16.737 C6.246,16.3125 6.591,15.969 7.014,15.969 L35.091,15.969 C35.514,15.969 35.8575,16.3125 35.8575,16.737 L35.8575,48.4395 C35.8575,48.861 35.514,49.203 35.091,49.203 L35.091,49.203 Z" id="Fill-60" fill="#333333" mask="url(#mask-2)"></path>
                    <polygon id="Fill-61" fill="#F9C38D" mask="url(#mask-2)" points="30.2757 7.5552 11.8302 7.5552 7.0137 16.7367 35.0907 16.7367"></polygon>
                    <polygon id="Fill-62" fill="#F7A857" mask="url(#mask-2)" points="30.2757 7.5552 26.1372 7.5552 30.9522 16.7367 35.0907 16.7367"></polygon>
                    <path d="M8.28105,15.9693 L33.82305,15.9693 L29.81205,8.3208 L12.29355,8.3208 L8.28105,15.9693 Z M35.09055,17.5008 L7.01355,17.5008 C6.74655,17.5008 6.49755,17.3613 6.35805,17.1318 C6.22005,16.9023 6.20955,16.6173 6.33405,16.3788 L11.15055,7.1973 C11.28405,6.9453 11.54505,6.7878 11.83005,6.7878 L30.27555,6.7878 C30.56055,6.7878 30.82155,6.9453 30.95355,7.1973 L35.77005,16.3788 C35.89455,16.6173 35.88555,16.9023 35.74755,17.1318 C35.60805,17.3613 35.35905,17.5008 35.09055,17.5008 L35.09055,17.5008 Z" id="Fill-63" fill="#333333" mask="url(#mask-2)"></path>
                    <path d="M30.2727,3.6264 C30.2727,2.9004 29.6832,2.3109 28.9572,2.3109 L13.1457,2.3109 C12.4197,2.3109 11.8302,2.9004 11.8302,3.6264 L11.8302,7.5549 L30.2727,7.5549 L30.2727,3.6264 Z" id="Fill-64" fill="#ED5C5C" mask="url(#mask-2)"></path>
                    <path d="M28.95735,2.31105 L25.09635,2.31105 C25.82085,2.31105 26.41035,2.90055 26.41035,3.62655 L26.41035,7.55505 L30.27285,7.55505 L30.27285,3.62655 C30.27285,2.90055 29.68335,2.31105 28.95735,2.31105" id="Fill-65" fill="#E83434" mask="url(#mask-2)"></path>
                    <path d="M12.5964,6.78765 L29.5059,6.78765 L29.5059,3.62715 C29.5059,3.32265 29.2599,3.07665 28.9569,3.07665 L13.1454,3.07665 C12.8424,3.07665 12.5964,3.32265 12.5964,3.62715 L12.5964,6.78765 Z M30.2724,8.32065 L11.8299,8.32065 C11.4069,8.32065 11.0634,7.97715 11.0634,7.55565 L11.0634,3.62715 C11.0634,2.47815 11.9979,1.54515 13.1454,1.54515 L28.9569,1.54515 C30.1059,1.54515 31.0389,2.47815 31.0389,3.62715 L31.0389,7.55565 C31.0389,7.97715 30.6954,8.32065 30.2724,8.32065 L30.2724,8.32065 Z" id="Fill-66" fill="#333333" mask="url(#mask-2)"></path>
                    <path d="M35.09055,43.4526 C34.17555,43.3311 33.24405,43.3296 32.34555,43.5366 C31.13655,43.8156 30.05505,44.5746 28.82805,44.7651 C26.55855,45.1161 25.19055,42.8586 24.88755,40.8771 C24.60705,39.0486 24.52755,36.4296 22.09305,36.3096 C19.86105,36.2016 18.84555,38.8761 16.65705,38.8476 C14.71905,38.8206 13.31805,36.8751 12.69705,35.2206 C11.94405,33.2196 12.17055,30.3831 10.06905,29.1471 C9.08205,28.5636 7.99305,28.6266 7.01355,29.0646 L7.01355,48.4386 L35.09055,48.4386 L35.09055,43.4526 Z" id="Fill-67" fill="#F7F7F7" mask="url(#mask-2)"></path>
                    <path d="M32.34555,43.53615 C31.86855,43.64565 31.40955,43.83315 30.95205,44.02965 L30.95205,48.43965 L35.09055,48.43965 L35.09055,43.45215 C34.17555,43.33065 33.24405,43.32915 32.34555,43.53615" id="Fill-68" fill="#C6C6C9" mask="url(#mask-2)"></path>
                    <path d="M20.39535,27.16065 C20.39535,28.78815 19.07535,30.10815 17.44785,30.10815 C15.82035,30.10815 14.50035,28.78815 14.50035,27.16065 C14.50035,25.53165 15.82035,24.21315 17.44785,24.21315 C19.07535,24.21315 20.39535,25.53165 20.39535,27.16065" id="Fill-69" fill="#F7F7F7" mask="url(#mask-2)"></path>
                    <path d="M29.0364,23.3667 C29.0364,24.4002 28.1994,25.2357 27.1674,25.2357 C26.1354,25.2357 25.2984,24.4002 25.2984,23.3667 C25.2984,22.3362 26.1354,21.4977 27.1674,21.4977 C28.1994,21.4977 29.0364,22.3362 29.0364,23.3667" id="Fill-70" fill="#F7F7F7" mask="url(#mask-2)"></path>
                    <path d="M31.2762,33.57075 C31.2762,34.80675 30.2727,35.80875 29.0367,35.80875 C27.8007,35.80875 26.7987,34.80675 26.7987,33.57075 C26.7987,32.33475 27.8007,31.33275 29.0367,31.33275 C30.2727,31.33275 31.2762,32.33475 31.2762,33.57075" id="Fill-71" fill="#F7F7F7" mask="url(#mask-2)"></path>
                    <path d="M7.78005,47.67135 L34.32405,47.67135 L34.32405,44.14635 C33.66855,44.10885 33.06705,44.15535 32.51805,44.28285 C32.03355,44.39535 31.55355,44.60385 31.04355,44.82435 C30.38655,45.10935 29.70705,45.40335 28.94505,45.52035 C28.75005,45.55335 28.55655,45.56835 28.36455,45.56835 C25.93605,45.56835 24.46605,43.19835 24.12855,40.99485 C24.10005,40.80135 24.07305,40.60185 24.04605,40.39635 C23.77905,38.43735 23.49705,37.14585 22.05705,37.07835 C21.20955,37.03635 20.56155,37.56135 19.80255,38.17635 C18.96705,38.84985 18.02205,39.61485 16.69155,39.61485 L16.64655,39.61485 C14.33655,39.58185 12.72105,37.46385 11.98005,35.48985 C11.73105,34.82835 11.58405,34.10085 11.44005,33.39735 C11.13855,31.90635 10.85205,30.49785 9.68055,29.80635 C9.11205,29.47185 8.45805,29.40435 7.78005,29.59785 L7.78005,47.67135 Z M35.09055,49.20285 L7.01355,49.20285 C6.59055,49.20285 6.24705,48.86085 6.24705,48.43935 L6.24705,29.06535 C6.24705,28.76385 6.42555,28.48785 6.70005,28.36485 C7.30755,28.09485 7.91955,27.95685 8.52255,27.95685 C9.21105,27.95685 9.86205,28.13535 10.45755,28.48485 C12.21855,29.52285 12.60405,31.42035 12.94155,33.09285 C13.07955,33.76635 13.20855,34.40535 13.41405,34.95135 C13.95105,36.38385 15.12705,38.06085 16.66755,38.08035 L16.69155,38.08185 C17.48055,38.08035 18.11055,37.57335 18.83955,36.98385 C19.71105,36.28035 20.70855,35.47785 22.13055,35.54535 C24.95055,35.68335 25.31955,38.39535 25.56255,40.18935 C25.58955,40.38735 25.61805,40.57785 25.64355,40.76235 C25.84605,42.07785 26.73705,44.03535 28.36455,44.03535 C28.47705,44.03535 28.59405,44.02485 28.71105,44.00685 C29.27805,43.91985 29.83905,43.67535 30.43455,43.41885 C30.98205,43.18035 31.55055,42.93435 32.17305,42.79035 C33.08205,42.57885 34.09155,42.54735 35.19105,42.69435 C35.57355,42.74385 35.85705,43.06935 35.85705,43.45185 L35.85705,48.43935 C35.85705,48.86085 35.51505,49.20285 35.09055,49.20285 L35.09055,49.20285 Z" id="Fill-72" fill="#333333" mask="url(#mask-2)"></path>
                    <path d="M17.448,24.978 C16.245,24.978 15.267,25.956 15.267,27.1605 C15.267,28.3635 16.245,29.3415 17.448,29.3415 C18.651,29.3415 19.629,28.3635 19.629,27.1605 C19.629,25.956 18.651,24.978 17.448,24.978 M17.448,30.876 C15.4005,30.876 13.734,29.208 13.734,27.1605 C13.734,25.113 15.4005,23.4465 17.448,23.4465 C19.497,23.4465 21.1635,25.113 21.1635,27.1605 C21.1635,29.208 19.497,30.876 17.448,30.876" id="Fill-73" fill="#333333" mask="url(#mask-2)"></path>
                    <path d="M27.16725,22.2651 C26.55975,22.2651 26.06475,22.7601 26.06475,23.3661 C26.06475,23.9766 26.55975,24.4716 27.16725,24.4716 C27.77475,24.4716 28.27125,23.9766 28.27125,23.3661 C28.27125,22.7601 27.77475,22.2651 27.16725,22.2651 M27.16725,26.0031 C25.71375,26.0031 24.53175,24.8211 24.53175,23.3661 C24.53175,21.9141 25.71375,20.7321 27.16725,20.7321 C28.62225,20.7321 29.80425,21.9141 29.80425,23.3661 C29.80425,24.8211 28.62225,26.0031 27.16725,26.0031" id="Fill-74" fill="#333333" mask="url(#mask-2)"></path>
                    <path d="M29.0364,32.09715 C28.2264,32.09715 27.5664,32.75865 27.5664,33.57015 C27.5664,34.38165 28.2264,35.04165 29.0364,35.04165 C29.8494,35.04165 30.5094,34.38165 30.5094,33.57015 C30.5094,32.75865 29.8494,32.09715 29.0364,32.09715 M29.0364,36.57615 C27.3804,36.57615 26.0319,35.22765 26.0319,33.57015 C26.0319,31.91265 27.3804,30.56565 29.0364,30.56565 C30.6939,30.56565 32.0424,31.91265 32.0424,33.57015 C32.0424,35.22765 30.6939,36.57615 29.0364,36.57615" id="Fill-75" fill="#333333" mask="url(#mask-2)"></path>
                    <path d="M69.7335,66.22515 C69.7335,68.16165 68.1645,69.73215 66.2265,69.73215 L4.275,69.73215 C2.337,69.73215 0.7665,68.16165 0.7665,66.22515 L0.7665,48.43965 L69.7335,48.43965 L69.7335,66.22515 Z" id="Fill-76" fill="#00A500" mask="url(#mask-2)"></path>
                    <path d="M64.75665,48.4389 L64.75665,66.2244 C64.75665,68.1609 63.18465,69.7314 61.24815,69.7314 L66.22515,69.7314 C68.16315,69.7314 69.73365,68.1609 69.73365,66.2244 L69.73365,48.4389 L64.75665,48.4389 Z" id="Fill-77" fill="#007B00" mask="url(#mask-2)"></path>
                    <path d="M1.53255,49.2036 L1.53255,66.2256 C1.53255,67.7361 2.76255,68.9676 4.27455,68.9676 L66.22605,68.9676 C67.73805,68.9676 68.96805,67.7361 68.96805,66.2256 L68.96805,49.2036 L1.53255,49.2036 Z M66.22605,70.4991 L4.27455,70.4991 C1.91805,70.4991 0.00105,68.5806 0.00105,66.2256 L0.00105,48.4386 C0.00105,48.0141 0.34305,47.6721 0.76605,47.6721 L69.73305,47.6721 C70.15755,47.6721 70.50105,48.0141 70.50105,48.4386 L70.50105,66.2256 C70.50105,68.5806 68.58255,70.4991 66.22605,70.4991 L66.22605,70.4991 Z" id="Fill-78" fill="#333333" mask="url(#mask-2)"></path>
                </g>
            </g>
        </g>
    </g>
</svg>