<?xml version="1.0" encoding="UTF-8" standalone="no"?>
<svg width="116px" height="39px" viewBox="0 0 116 39" version="1.1" xmlns="http://www.w3.org/2000/svg" xmlns:xlink="http://www.w3.org/1999/xlink">
    <!-- Generator: sketchtool 41.2 (35397) - http://www.bohemiancoding.com/sketch -->
    <title>2E9A07B7-47D1-420A-85BF-016C08083E3B</title>
    <desc>Created with sketchtool.</desc>
    <defs></defs>
    <g id="BDA" stroke="none" stroke-width="1" fill="none" fill-rule="evenodd">
        <g id="Desktop" transform="translate(-1046.000000, -1583.000000)" fill="#C0C0C0">
            <g id="Page-1" transform="translate(1046.000000, 1583.000000)">
                <path d="M48.8842627,13.434981 C48.8842627,14.1477378 49.3863284,14.725882 50.0067916,14.725882 L74.32925,14.725882 C74.9497132,14.725882 75.4517789,14.1477378 75.4517789,13.434981 C75.4517789,12.7222242 74.9497132,12.1423543 74.32925,12.1423543 L50.0067916,12.1423543 C49.3863284,12.1423543 48.8842627,12.7222242 48.8842627,13.434981" id="Fill-1"></path>
                <path d="M71.1197765,7.22605807 C71.1197765,6.51330126 70.6177109,5.93343131 69.9972477,5.93343131 L45.6732906,5.93343131 C45.054326,5.93343131 44.5522604,6.51330126 44.5522604,7.22605807 C44.5522604,7.93881488 45.054326,8.51868483 45.6732906,8.51868483 L69.9972477,8.51868483 C70.6177109,8.51868483 71.1197765,7.93881488 71.1197765,7.22605807" id="Fill-3"></path>
                <path d="M42.8990406,5.93429421 L40.5370839,5.93429421 C39.9181194,5.93429421 39.4160538,6.51243836 39.4160538,7.22692097 C39.4160538,7.93967778 39.9181194,8.51782193 40.5370839,8.51782193 L42.8990406,8.51782193 C43.5180051,8.51782193 44.0215695,7.93967778 44.0215695,7.22692097 C44.0215695,6.51243836 43.5195038,5.93429421 42.8990406,5.93429421" id="Fill-5"></path>
                <path d="M65.973079,20.9356678 C66.5920435,20.9356678 67.0941092,20.3575237 67.0941092,19.6430411 C67.0941092,18.9302843 66.5920435,18.3521401 65.973079,18.3521401 L52.5731714,18.3521401 C51.9542069,18.3521401 51.4506425,18.9302843 51.4506425,19.6430411 C51.4506425,20.3575237 51.9542069,20.9356678 52.5731714,20.9356678 L65.973079,20.9356678 Z" id="Fill-7"></path>
                <path d="M49.471155,18.3528304 L47.1091983,18.3528304 C46.4902338,18.3528304 45.9881682,18.9309746 45.9881682,19.6437314 C45.9881682,20.3564882 46.4902338,20.9363582 47.1091983,20.9363582 L49.471155,20.9363582 C50.0901195,20.9363582 50.5936839,20.3564882 50.5936839,19.6437314 C50.5936839,18.9309746 50.0901195,18.3528304 49.471155,18.3528304" id="Fill-9"></path>
                <path d="M113.188832,24.3408506 C113.022476,25.1226395 112.033332,29.6166316 112.033332,29.6166316 C112.025838,29.6183574 111.925425,31.1922901 110.688995,31.1922901 L107.898409,31.1922901 C107.87443,30.9972743 107.844456,30.8022586 107.803991,30.6089686 C107.484767,29.0661003 106.667973,27.8028122 105.506478,27.0503619 C104.808082,26.5999272 104.012271,26.3600406 103.20447,26.3600406 C101.34308,26.3600406 99.5940931,27.576732 98.6364216,29.5372447 C98.3696524,30.0843243 98.1793171,30.6607427 98.0609195,31.2492416 L91.8263131,31.2492416 C91.8263131,31.2492416 90.7982025,31.4321768 90.9855405,30.2862433 C90.9855405,30.2845175 90.9795457,30.2827917 90.9795457,30.2827917 L95.4067157,8.21494343 C95.4127105,8.21149182 95.4232014,8.20976602 95.4232014,8.20804022 C95.4232014,7.70583142 95.7753967,7.23468709 96.2115194,7.23468709 L99.1085132,7.23468709 L99.1085132,7.23641289 L102.126902,7.23641289 C102.633464,7.22950968 102.895737,7.57294456 103.023127,7.83354087 L103.113049,8.06479853 C103.12354,8.0993146 103.129535,8.12002424 103.129535,8.12175004 L103.144522,8.14418549 L108.449932,19.1806983 C108.449932,19.1806983 109.046416,20.6372764 110.156955,21.2430334 C110.494163,21.4294202 112.479945,22.5529182 112.479945,22.5529182 C113.624955,23.0965463 113.188832,24.3408506 113.188832,24.3408506 M105.311647,33.8569306 C104.745137,35.0183963 103.730515,35.7380563 102.666435,35.7380563 C102.230313,35.7380563 101.818169,35.6155243 101.443493,35.3739118 C100.824529,34.9717996 100.385409,34.2866557 100.211559,33.441012 C100.028717,32.5591264 100.15311,31.6133862 100.557759,30.7815489 C101.124269,29.621809 102.137393,28.8986974 103.202971,28.8986974 C103.639094,28.8986974 104.049738,29.0212294 104.424414,29.2645677 C105.044878,29.6649541 105.482499,30.3518239 105.659346,31.1974675 C105.842188,32.0810789 105.717795,33.0250934 105.311647,33.8569306 M64.555905,33.8569306 C63.9893951,35.0183963 62.9762716,35.7380563 61.9106934,35.7380563 C61.4745707,35.7380563 61.063926,35.6155243 60.6892501,35.3739118 C60.0687869,34.9717996 59.6311655,34.2866557 59.4558172,33.441012 C59.2729753,32.5591264 59.395869,31.6133862 59.8020177,30.7815489 C60.3685276,29.621809 61.3831498,28.8986974 62.4472293,28.8986974 C62.8848507,28.8986974 63.2954954,29.0212294 63.6701713,29.2645677 C64.2906345,29.6649541 64.7282559,30.3518239 64.9036042,31.1974675 C65.0849473,32.0810789 64.9620537,33.0250934 64.555905,33.8569306 M113.571002,20.2230836 L113.257773,20.0384226 C113.256274,20.034971 113.254775,20.0315194 113.253276,20.0297936 L113.055448,19.9193422 L112.842632,19.7933586 C112.841133,19.7933586 112.842632,19.7968102 112.842632,19.798536 C112.526405,19.5983428 111.588217,18.9856826 111.206048,18.4938286 C110.949769,18.1642001 110.77592,17.7586363 110.668013,17.4566207 L110.626049,17.3358145 C110.5676,17.1563309 105.606891,7.97505675 105.606891,7.97505675 C105.582912,7.68684758 105.466013,7.37447716 105.287668,7.06383255 C104.307515,4.94799756 102.930207,4.70983669 101.801683,4.70983669 L96.410847,4.70983669 C96.4093483,4.70983669 96.4048522,4.70811088 96.4033535,4.70811088 L96.0241815,4.70811088 L96.3718807,2.41796975 C96.3718807,1.11498817 95.4516768,0.0553448696 94.3201557,0.0553448696 L93.9304928,0.0553448696 C93.9200018,0.0553448696 93.9095109,0.0467158525 93.8975213,0.0467158525 L89.8525207,0.0467158525 L89.8270427,0.0380868354 C89.8135544,0.0380868354 89.8030634,0.0415384423 89.7910738,0.0467158525 L53.5119592,0.0467158525 C52.8929947,0.0467158525 52.3894304,0.624859998 52.3894304,1.33761681 C52.3894304,2.05037362 52.8929947,2.63024357 53.5119592,2.63024357 L89.7775855,2.63024357 C89.7955699,2.63196937 89.8090583,2.64405 89.8270427,2.64405 L93.4284271,2.64405 C93.8001056,2.71825954 94.0893553,3.07377505 94.0893553,3.52248394 C94.0893553,3.52420974 94.101345,3.52593554 94.1058411,3.52766135 L93.7566432,5.23102932 L88.6955216,30.4657269 C88.6685449,30.9316938 88.3433263,31.2992899 87.9341802,31.3113706 L87.8997101,31.3113706 C87.8877204,31.307919 87.8757308,31.3044674 87.8652399,31.3027416 L87.8652399,31.3113706 L67.0842177,31.3113706 C67.0602385,31.0697581 67.0977061,30.8471295 67.0482489,30.6072428 C66.729025,29.0643745 65.9122316,27.8010864 64.7507365,27.0503619 C64.0523407,26.5982014 63.2550304,26.3583148 62.4472293,26.3583148 C60.5873383,26.3583148 58.8368526,27.576732 57.8806798,29.5372447 C57.6124119,30.0877759 57.4190792,30.6710975 57.3006816,31.2682255 L55.251954,31.2682255 L55.251954,31.2595965 C55.2384656,31.2595965 55.226476,31.2647739 55.2129877,31.2682255 L55.186011,31.2682255 C54.7573818,31.2595965 54.5475633,30.8592101 54.5475633,30.3621787 C54.5475633,30.3604529 54.5535582,30.3570013 54.5475633,30.3552755 L55.8619263,24.3891731 C55.8619263,24.0992381 55.6566039,23.8645288 55.4048217,23.8645288 L54.0529912,23.8645288 C53.801209,23.8645288 53.5958866,24.0992381 53.5958866,24.3891731 L52.088191,31.1215322 C52.088191,31.1215322 51.0855584,33.9190595 54.3916982,33.9190595 L57.2901907,33.9190595 C57.2976842,33.9553014 57.3021803,33.9915433 57.3096738,34.0277851 C57.6288976,35.5689276 58.445691,36.8339415 59.6086849,37.584666 C60.305582,38.0368265 61.1028923,38.2767132 61.9106934,38.2767132 C63.7705844,38.2767132 65.52107,37.058296 66.4772428,35.0977833 C66.6615834,34.7232839 66.8084563,34.3332524 66.9208591,33.932866 L89.2230652,33.932866 L90.573397,33.932866 L98.0489299,33.932866 C98.0549247,33.9639304 98.0594208,33.9949949 98.0669143,34.0260593 C98.3861381,35.5672018 99.2029315,36.8322157 100.364427,37.584666 C101.062823,38.0351007 101.858634,38.2749874 102.666435,38.2749874 C104.527825,38.2749874 106.278311,37.058296 107.234483,35.0977833 C107.417325,34.7215581 107.565697,34.3298007 107.6781,33.9294144 L111.80403,33.9311402 C113.74635,33.9311402 113.990639,32.5056265 114.344333,30.7228716 L115.661693,24.152738 C116.136782,22.028274 114.856889,20.9634533 113.571002,20.2230836" id="Fill-11"></path>
                <path d="M25.8508062,19.8402 C25.23756,19.8402 24.6243138,20.0762 24.1579292,20.5462 L19.7798677,24.9602 C18.8470985,25.9002 18.8470985,27.4302 19.7798677,28.3722 L24.1579292,32.7842 C25.0946677,33.7262 26.6128985,33.7262 27.5456677,32.7842 L31.9237292,28.3722 C32.8564985,27.4302 32.8564985,25.9002 31.9237292,24.9602 L27.5456677,20.5462 C27.0772985,20.0762 26.4640523,19.8402 25.8508062,19.8402 M25.8508062,35.4902 C24.7294985,35.4902 23.6081908,35.0582 22.7548062,34.1982 L18.3767446,29.7862 C16.6699754,28.0662 16.6699754,25.2662 18.3767446,23.5462 L22.7548062,19.1322 C24.4595908,17.4102 27.2380523,17.4102 28.9487908,19.1322 L33.3268523,23.5462 C35.0336215,25.2662 35.0336215,28.0662 33.3268523,29.7862 L28.9487908,34.1982 C28.0934215,35.0582 26.9721138,35.4902 25.8508062,35.4902" id="Fill-14"></path>
                <path d="M20.7652292,23.1958 L22.4958138,24.9398 C22.9483062,25.3978 23.6845985,25.3978 24.1390754,24.9398 C24.5915677,24.4838 24.5915677,23.7398 24.1390754,23.2838 L22.4084908,21.5398 C21.9559985,21.0818 21.2197062,21.0818 20.7652292,21.5398 C20.3107523,21.9978 20.3107523,22.7378 20.7652292,23.1958" id="Fill-16"></path>
                <path d="M8.75592462,6.3138 C8.11687846,6.3138 7.51554,6.5638 7.06106308,7.0218 L2.68300154,11.4338 C1.75023231,12.3758 1.75023231,13.9058 2.68300154,14.8478 L7.06106308,19.2598 C7.96803231,20.1718 9.54381692,20.1718 10.4488015,19.2598 L14.8288477,14.8478 C15.7616169,13.9058 15.7616169,12.3758 14.8288477,11.4338 L10.4488015,7.0218 C9.99630923,6.5638 9.39497077,6.3138 8.75592462,6.3138 M8.75592462,21.9658 C7.58698615,21.9658 6.48552462,21.5078 5.65794,20.6738 L1.27987846,16.2618 C-0.426890769,14.5398 -0.426890769,11.7398 1.27987846,10.0198 L5.65794,5.6058 C7.31112462,3.9398 10.19874,3.9398 11.8519246,5.6058 L16.2319708,10.0198 C17.93874,11.7398 17.93874,14.5398 16.2319708,16.2618 L11.8519246,20.6738 C11.0263246,21.5078 9.92486308,21.9658 8.75592462,21.9658" id="Fill-18"></path>
                <path d="M12.1988354,8.015 L10.4682508,9.759 C10.0137738,10.215 10.0137738,10.957 10.4682508,11.415 C10.9207431,11.871 11.65902,11.871 12.1115123,11.415 L13.8420969,9.671 C14.2965738,9.215 14.2965738,8.473 13.8420969,8.015 C13.3896046,7.557 12.6533123,7.557 12.1988354,8.015" id="Fill-21"></path>
            </g>
        </g>
    </g>
</svg>