<?xml version="1.0" encoding="UTF-8" standalone="no"?>
<svg width="58px" height="58px" viewBox="0 0 58 58" version="1.1" xmlns="http://www.w3.org/2000/svg" xmlns:xlink="http://www.w3.org/1999/xlink">
    <!-- Generator: sketchtool 41.2 (35397) - http://www.bohemiancoding.com/sketch -->
    <title>11B410BC-616A-492B-B19D-1649059EE2D3</title>
    <desc>Created with sketchtool.</desc>
    <defs></defs>
    <g id="BDA" stroke="none" stroke-width="1" fill="none" fill-rule="evenodd">
        <g id="Desktop" transform="translate(-971.000000, -2771.000000)">
            <g id="Box" transform="translate(391.000000, 2740.000000)">
                <g id="Call-to-action" transform="translate(581.000000, 32.000000)">
                    <g id="Cart">
                        <circle id="Circle" stroke="#B8B8B8" cx="28" cy="28" r="28"></circle>
                        <path d="M38.2272727,40.6362818 C38.9149545,40.6362818 39.4545455,41.1758727 39.4545455,41.8635545 C39.4545455,42.5512364 38.9149545,43.0908273 38.2272727,43.0908273 C37.5395909,43.0908273 37,42.5512364 37,41.8635545 C37,41.1758727 37.5395909,40.6362818 38.2272727,40.6362818 L38.2272727,40.6362818 Z M17.7727273,40.6362818 C18.4604091,40.6362818 19,41.1758727 19,41.8635545 C19,42.5512364 18.4604091,43.0908273 17.7727273,43.0908273 C17.0850455,43.0908273 16.5454545,42.5512364 16.5454545,41.8635545 C16.5454545,41.1758727 17.0850455,40.6362818 17.7727273,40.6362818 L17.7727273,40.6362818 Z M38.2272727,38.9999182 C36.6555455,38.9999182 35.3636364,40.2918273 35.3636364,41.8635545 C35.3636364,43.4356909 36.6551364,44.7271909 38.2272727,44.7271909 C39.7994091,44.7271909 41.0909091,43.4356909 41.0909091,41.8635545 C41.0909091,40.2918273 39.799,38.9999182 38.2272727,38.9999182 L38.2272727,38.9999182 Z M17.7727273,38.9999182 C16.201,38.9999182 14.9090909,40.2918273 14.9090909,41.8635545 C14.9090909,43.4356909 16.201,44.7271909 17.7727273,44.7271909 C19.3444545,44.7271909 20.6363636,43.4356909 20.6363636,41.8635545 C20.6363636,40.2918273 19.3444545,38.9999182 17.7727273,38.9999182 L17.7727273,38.9999182 Z M17.0695,18.9544636 L44.0695,18.9544636 L41.1293636,28.5296455 C40.7763182,29.7205091 39.2491818,30.8181 37.8181818,30.8181 L20.8282273,30.8181 L17.0695,18.9544636 Z M31.6818182,17.3181 L39.0454545,17.3181 L39.0454545,15.6817364 L31.6818182,15.6817364 L31.6818182,17.3181 Z M22.6818182,17.3181 L30.0454545,17.3181 L30.0454545,13.6362818 L22.6818182,13.6362818 L22.6818182,17.3181 Z M10.8181818,11.9999182 C10.3649091,11.9999182 10,12.3648273 10,12.8181 C10,13.2713727 10.3649091,13.6362818 10.8181818,13.6362818 L12.0454545,13.6362818 C12.736,13.6362818 13.1405909,13.7868273 13.4388182,14.0196 C13.7345909,14.2507364 13.9587727,14.6005091 14.1293636,15.1065545 L14.1293636,15.1192364 L19.1660909,30.9972818 C18.3319545,31.2787364 17.6160455,31.8678273 17.1333182,32.6590091 C16.4562727,33.7696909 16.1363636,35.2477364 16.1363636,36.9544636 C16.1363636,37.3831909 16.5262273,37.7726455 16.9545455,37.7726455 L39.0454545,37.7726455 C39.4778636,37.7791909 39.8763182,37.3868727 39.8763182,36.9544636 C39.8763182,36.5220545 39.4778636,36.1301455 39.0454545,36.1362818 L17.8623182,36.1362818 C17.9568182,35.0538273 18.1765,34.1108727 18.5397727,33.5156455 C18.9852727,32.7850091 19.5379545,32.4696 20.2272727,32.4544636 C20.2444545,32.4548727 37.8181818,32.4544636 37.8181818,32.4544636 C40.0019091,32.4544636 42.0833636,31.0467818 42.6888182,29.0029636 C42.6888182,29.0029636 45.8326818,18.7282364 45.9488636,18.4173273 C45.982,18.3285545 46,18.2373273 46,18.1362818 C46,17.6846455 45.6334545,17.3181 45.1818182,17.3181 L40.6818182,17.3181 L40.6818182,14.8635545 C40.6818182,14.4352364 40.2919545,14.0453727 39.8636364,14.0453727 L31.6818182,14.0453727 L31.6818182,12.8181 C31.6818182,12.3897818 31.2919545,11.9999182 30.8636364,11.9999182 L21.8636364,11.9999182 C21.4181364,11.9999182 21.0454545,12.4495091 21.0454545,12.8181 L21.0454545,17.3181 L16.5454545,17.3181 L15.6888182,14.6078727 L15.6888182,14.5951909 C15.4507273,13.8809182 15.0674091,13.2116455 14.4488636,12.7285091 C13.8303182,12.2457818 13.0064091,11.9999182 12.0454545,11.9999182 L10.8181818,11.9999182 Z" id="Fill-1" fill="#BFBFBF"></path>
                    </g>
                </g>
            </g>
        </g>
    </g>
</svg>