<?xml version="1.0" encoding="UTF-8" standalone="no"?>
<svg width="95px" height="83px" viewBox="0 0 95 83" version="1.1" xmlns="http://www.w3.org/2000/svg" xmlns:xlink="http://www.w3.org/1999/xlink">
    <!-- Generator: sketchtool 41.2 (35397) - http://www.bohemiancoding.com/sketch -->
    <title>158D504F-B920-4C3F-B6AD-41AC01D4DE45</title>
    <desc>Created with sketchtool.</desc>
    <defs>
        <polygon id="path-1" points="0 81.56 94.85376 81.56 94.85376 0.26144 0 0.26144"></polygon>
        <polygon id="path-3" points="0.531731117 2.736 14.314496 2.736 14.314496 0.613824 0.531731117 0.613824 0.531731117 2.736"></polygon>
        <polygon id="path-5" points="16.6352 9.71637627 16.6352 0.016832 0.550016 0.016832 0.550016 9.71637627"></polygon>
        <polygon id="path-7" points="2.880128 0.33792 0.259328 0.33792 0.259328 3.21888 2.880128 3.21888 2.880128 0.33792"></polygon>
        <polygon id="path-9" points="0.4688 0.604224 0.4688 9.43425798 16.390016 9.43425798 16.390016 0.604224 0.4688 0.604224"></polygon>
        <polygon id="path-11" points="6.452864 0.26144 0.900224 0.26144 0.900224 34.794176 6.452864 34.794176 6.452864 0.26144"></polygon>
    </defs>
    <g id="BDA" stroke="none" stroke-width="1" fill="none" fill-rule="evenodd">
        <g id="Desktop" transform="translate(-796.000000, -717.000000)">
            <g id="Page-1" transform="translate(796.000000, 717.000000)">
                <g id="Group-28" transform="translate(0.000000, 0.658944)">
                    <path d="M40.269696,37.577408 C41.152896,37.577408 41.961216,38.080448 42.350976,38.873408 L48.331776,51.032768 C48.521856,51.416768 48.813696,51.741248 49.174656,51.969728 L56.816256,56.798528 C57.488256,57.220928 57.897216,57.962048 57.897216,58.758848 L57.897216,68.136128 C57.897216,69.418688 56.858496,70.457408 55.575936,70.457408 L41.713536,70.457408 L2.987136,70.457408 C1.704576,70.457408 0.665856,69.418688 0.665856,68.136128 L0.665856,39.898688 C0.665856,38.616128 1.704576,37.577408 2.987136,37.577408 L40.269696,37.577408 Z" id="Fill-1" fill="#FAFAFA"></path>
                    <path d="M2.986368,37.577408 L7.903488,37.577408 C6.620928,37.577408 5.582208,38.616128 5.582208,39.898688 L5.582208,68.136128 C5.582208,69.418688 6.620928,70.457408 7.903488,70.457408 L2.986368,70.457408 C1.705728,70.457408 0.667008,69.418688 0.667008,68.136128 L0.667008,39.898688 C0.667008,38.616128 1.705728,37.577408 2.986368,37.577408" id="Fill-3" fill="#C6C6C9"></path>
                    <path d="M2.986368,38.243072 C2.074368,38.243072 1.333248,38.986112 1.333248,39.898112 L1.333248,68.135552 C1.333248,69.049472 2.074368,69.790592 2.986368,69.790592 L55.577088,69.790592 C56.489088,69.790592 57.230208,69.049472 57.230208,68.135552 L57.230208,58.760192 C57.230208,58.189952 56.942208,57.665792 56.460288,57.360512 L48.818688,52.531712 C48.352128,52.237952 47.977728,51.821312 47.733888,51.325952 L41.753088,39.166592 C41.472768,38.598272 40.904448,38.243072 40.268928,38.243072 L2.986368,38.243072 Z M0.000768,68.135552 L0.000768,39.898112 C0.000768,38.250752 1.340928,36.912512 2.986368,36.912512 L40.268928,36.912512 C41.417088,36.912512 42.442368,37.551872 42.949248,38.580992 L48.930048,50.738432 C49.064448,51.011072 49.271808,51.243392 49.531008,51.406592 L57.170688,56.233472 C58.042368,56.784512 58.562688,57.727232 58.562688,58.760192 L58.562688,68.135552 C58.562688,69.782912 57.222528,71.123072 55.577088,71.123072 L2.986368,71.123072 C1.340928,71.123072 0.000768,69.782912 0.000768,68.135552 L0.000768,68.135552 Z" id="Fill-5" fill="#333333"></path>
                    <mask id="mask-2" fill="white">
                        <use xlink:href="#path-1"></use>
                    </mask>
                    <g id="Clip-8"></g>
                    <polygon id="Fill-7" fill="#F9CD00" mask="url(#mask-2)" points="53.60448 66.8816 57.89568 66.8816 57.89568 60.21536 53.60448 60.21536"></polygon>
                    <path d="M54.27072,66.21536 L57.22944,66.21536 L57.22944,60.8816 L54.27072,60.8816 L54.27072,66.21536 Z M52.93824,66.8816 L52.93824,60.21536 C52.93824,59.84864 53.23776,59.55104 53.60448,59.55104 L57.89568,59.55104 C58.26432,59.55104 58.56192,59.84864 58.56192,60.21536 L58.56192,66.8816 C58.56192,67.24832 58.26432,67.54784 57.89568,67.54784 L53.60448,67.54784 C53.23776,67.54784 52.93824,67.24832 52.93824,66.8816 L52.93824,66.8816 Z" id="Fill-9" fill="#333333" mask="url(#mask-2)"></path>
                    <path d="M36.324672,70.457408 C36.324672,74.308928 39.446592,77.430848 43.298112,77.430848 C47.149632,77.430848 50.271552,74.308928 50.271552,70.457408 C50.271552,66.605888 47.149632,63.482048 43.298112,63.482048 C39.446592,63.482048 36.324672,66.605888 36.324672,70.457408" id="Fill-10" fill="#9A9A9A" mask="url(#mask-2)"></path>
                    <path d="M5.084352,70.457408 C5.084352,74.308928 8.206272,77.430848 12.057792,77.430848 C15.909312,77.430848 19.031232,74.308928 19.031232,70.457408 C19.031232,66.605888 15.909312,63.482048 12.057792,63.482048 C8.206272,63.482048 5.084352,66.605888 5.084352,70.457408" id="Fill-11" fill="#9A9A9A" mask="url(#mask-2)"></path>
                    <path d="M43.29888,63.482432 C43.74816,63.482432 44.18784,63.526592 44.61408,63.607232 C41.39232,64.225472 38.95584,67.055552 38.95584,70.457792 C38.95584,73.856192 41.39232,76.688192 44.61408,77.304512 C44.18784,77.385152 43.74816,77.431232 43.29888,77.431232 C39.44736,77.431232 36.32544,74.309312 36.32544,70.457792 C36.32544,66.606272 39.44736,63.482432 43.29888,63.482432" id="Fill-12" fill="#666666" mask="url(#mask-2)"></path>
                    <path d="M12.0576,63.482432 C12.50688,63.482432 12.94656,63.526592 13.37472,63.607232 C10.15104,64.225472 7.71648,67.055552 7.71648,70.457792 C7.71648,73.856192 10.15104,76.688192 13.37472,77.304512 C12.94656,77.385152 12.50688,77.431232 12.0576,77.431232 C8.208,77.431232 5.08416,74.309312 5.08416,70.457792 C5.08416,66.606272 8.208,63.482432 12.0576,63.482432" id="Fill-13" fill="#666666" mask="url(#mask-2)"></path>
                    <path d="M36.991296,70.457408 C36.991296,73.934528 39.821376,76.762688 43.298496,76.762688 C46.775616,76.762688 49.605696,73.934528 49.605696,70.457408 C49.605696,66.978368 46.775616,64.150208 43.298496,64.150208 C39.821376,64.150208 36.991296,66.978368 36.991296,70.457408 M35.658816,70.457408 C35.658816,66.244928 39.086016,62.817728 43.298496,62.817728 C47.510976,62.817728 50.938176,66.244928 50.938176,70.457408 C50.938176,74.667968 47.510976,78.097088 43.298496,78.097088 C39.086016,78.097088 35.658816,74.667968 35.658816,70.457408" id="Fill-14" fill="#333333" mask="url(#mask-2)"></path>
                    <path d="M40.667136,70.457408 C40.667136,71.910848 41.844096,73.087808 43.297536,73.087808 C44.750976,73.087808 45.929856,71.910848 45.929856,70.457408 C45.929856,69.002048 44.750976,67.825088 43.297536,67.825088 C41.844096,67.825088 40.667136,69.002048 40.667136,70.457408" id="Fill-15" fill="#ED5C5C" mask="url(#mask-2)"></path>
                    <path d="M9.427008,70.457408 C9.427008,71.910848 10.603968,73.087808 12.057408,73.087808 C13.510848,73.087808 14.689728,71.910848 14.689728,70.457408 C14.689728,69.002048 13.510848,67.825088 12.057408,67.825088 C10.603968,67.825088 9.427008,69.002048 9.427008,70.457408" id="Fill-16" fill="#ED5C5C" mask="url(#mask-2)"></path>
                    <path d="M12.0576,67.824896 C12.36672,67.824896 12.6624,67.878656 12.93696,67.976576 C11.91744,68.339456 11.18592,69.310976 11.18592,70.457216 C11.18592,71.601536 11.91744,72.574976 12.93696,72.935936 C12.6624,73.033856 12.36672,73.087616 12.0576,73.087616 C10.60416,73.087616 9.4272,71.910656 9.4272,70.457216 C9.4272,69.001856 10.60416,67.824896 12.0576,67.824896" id="Fill-17" fill="#E83434" mask="url(#mask-2)"></path>
                    <path d="M43.29888,67.824896 C43.608,67.824896 43.90176,67.878656 44.17824,67.976576 C43.1568,68.339456 42.42528,69.310976 42.42528,70.457216 C42.42528,71.601536 43.1568,72.574976 44.17824,72.935936 C43.90176,73.033856 43.608,73.087616 43.29888,73.087616 C41.84544,73.087616 40.66656,71.910656 40.66656,70.457216 C40.66656,69.001856 41.84544,67.824896 43.29888,67.824896" id="Fill-18" fill="#E83434" mask="url(#mask-2)"></path>
                    <path d="M41.3328,70.457408 C41.3328,71.538368 42.21408,72.421568 43.29696,72.421568 C44.38176,72.421568 45.26304,71.538368 45.26304,70.457408 C45.26304,69.374528 44.38176,68.491328 43.29696,68.491328 C42.21408,68.491328 41.3328,69.374528 41.3328,70.457408 M40.00032,70.457408 C40.00032,68.639168 41.48064,67.158848 43.29696,67.158848 C45.11712,67.158848 46.59552,68.639168 46.59552,70.457408 C46.59552,72.273728 45.11712,73.754048 43.29696,73.754048 C41.48064,73.754048 40.00032,72.273728 40.00032,70.457408" id="Fill-19" fill="#333333" mask="url(#mask-2)"></path>
                    <path d="M5.750976,70.457408 C5.750976,73.934528 8.581056,76.762688 12.058176,76.762688 C15.535296,76.762688 18.365376,73.934528 18.365376,70.457408 C18.365376,66.978368 15.535296,64.150208 12.058176,64.150208 C8.581056,64.150208 5.750976,66.978368 5.750976,70.457408 M4.418496,70.457408 C4.418496,66.244928 7.845696,62.817728 12.058176,62.817728 C16.270656,62.817728 19.697856,66.244928 19.697856,70.457408 C19.697856,74.667968 16.270656,78.097088 12.058176,78.097088 C7.845696,78.097088 4.418496,74.667968 4.418496,70.457408" id="Fill-20" fill="#333333" mask="url(#mask-2)"></path>
                    <path d="M10.09248,70.457408 C10.09248,71.538368 10.97376,72.421568 12.05664,72.421568 C13.14144,72.421568 14.02272,71.538368 14.02272,70.457408 C14.02272,69.374528 13.14144,68.491328 12.05664,68.491328 C10.97376,68.491328 10.09248,69.374528 10.09248,70.457408 M8.76,70.457408 C8.76,68.639168 10.24032,67.158848 12.05664,67.158848 C13.8768,67.158848 15.3552,68.639168 15.3552,70.457408 C15.3552,72.273728 13.8768,73.754048 12.05664,73.754048 C10.24032,73.754048 8.76,72.273728 8.76,70.457408" id="Fill-21" fill="#333333" mask="url(#mask-2)"></path>
                    <path d="M5.084352,37.577408 L38.357952,37.577408 L38.357952,35.382848 C38.357952,33.891008 37.148352,32.681408 35.654592,32.681408 L5.084352,32.681408 L5.084352,37.577408 Z" id="Fill-22" fill="#A0D167" mask="url(#mask-2)"></path>
                    <path d="M37.690752,35.383616 C37.690752,34.260416 36.776832,33.346496 35.655552,33.346496 L5.751552,33.346496 L5.751552,36.911936 L37.690752,36.911936 L37.690752,35.383616 Z M4.419072,37.578176 L4.419072,32.682176 C4.419072,32.313536 4.716672,32.015936 5.085312,32.015936 L35.655552,32.015936 C37.512192,32.015936 39.023232,33.526976 39.023232,35.383616 L39.023232,37.578176 C39.023232,37.944896 38.725632,38.242496 38.356992,38.242496 L5.085312,38.242496 C4.716672,38.242496 4.419072,37.944896 4.419072,37.578176 L4.419072,37.578176 Z" id="Fill-23" fill="#333333" mask="url(#mask-2)"></path>
                    <path d="M28.708416,51.744896 C28.708416,52.378496 29.221056,52.893056 29.854656,52.893056 L42.280896,52.893056 C42.666816,52.893056 43.025856,52.697216 43.237056,52.374656 C43.450176,52.054016 43.486656,51.645056 43.333056,51.293696 L39.452736,42.269696 C39.270336,41.849216 38.857536,41.576576 38.398656,41.576576 L29.854656,41.576576 C29.221056,41.576576 28.708416,42.091136 28.708416,42.722816 L28.708416,51.744896 Z" id="Fill-24" fill="#F7F7F7" mask="url(#mask-2)"></path>
                    <path d="M29.85408,41.576768 L32.91264,41.576768 C32.27904,41.576768 31.7664,42.091328 31.7664,42.723008 L31.7664,51.745088 C31.7664,52.378688 32.27904,52.893248 32.91264,52.893248 L29.85408,52.893248 C29.22048,52.893248 28.70784,52.378688 28.70784,51.745088 L28.70784,42.723008 C28.70784,42.091328 29.22048,41.576768 29.85408,41.576768" id="Fill-25" fill="#C6C6C9" mask="url(#mask-2)"></path>
                    <path d="M29.85408,42.242432 C29.58912,42.242432 29.37408,42.457472 29.37408,42.722432 L29.37408,51.744512 C29.37408,52.009472 29.58912,52.224512 29.85408,52.224512 L42.28032,52.224512 C42.44352,52.224512 42.59328,52.143872 42.6816,52.009472 C42.77184,51.875072 42.78528,51.704192 42.72192,51.556352 L38.83968,42.532352 C38.7648,42.357632 38.592,42.242432 38.4,42.242432 L29.85408,42.242432 Z M28.0416,51.744512 L28.0416,42.722432 C28.0416,41.722112 28.85376,40.911872 29.85408,40.911872 L38.4,40.911872 C39.12384,40.911872 39.77664,41.340032 40.06464,42.006272 L43.94496,51.028352 C44.18688,51.590912 44.1312,52.230272 43.7952,52.742912 C43.45728,53.251712 42.8928,53.558912 42.28032,53.558912 L29.85408,53.558912 C28.85376,53.558912 28.0416,52.744832 28.0416,51.744512 L28.0416,51.744512 Z" id="Fill-26" fill="#333333" mask="url(#mask-2)"></path>
                    <path d="M29.281344,58.031744 L34.939584,58.031744 C35.306304,58.031744 35.603904,57.734144 35.603904,57.365504 C35.603904,56.996864 35.306304,56.699264 34.939584,56.699264 L29.281344,56.699264 C28.914624,56.699264 28.615104,56.996864 28.615104,57.365504 C28.615104,57.734144 28.914624,58.031744 29.281344,58.031744" id="Fill-27" fill="#333333" mask="url(#mask-2)"></path>
                </g>
                <g id="Group-51" transform="translate(8.680000, 41.898944)">
                    <path d="M8.81504,13.000512 C8.81504,13.096512 8.792,13.171392 8.744,13.223232 C8.696,13.278912 8.6288,13.303872 8.5424,13.303872 C8.45792,13.303872 8.39264,13.278912 8.34464,13.223232 C8.29664,13.171392 8.2736,13.096512 8.2736,13.000512 C8.2736,12.906432 8.29664,12.831552 8.34464,12.779712 C8.39264,12.724032 8.45792,12.699072 8.5424,12.699072 C8.6288,12.699072 8.696,12.724032 8.744,12.779712 C8.792,12.831552 8.81504,12.906432 8.81504,13.000512 L8.81504,13.000512 Z M9.35456,13.000512 C9.35456,12.764352 9.2816,12.576192 9.13376,12.439872 C8.984,12.303552 8.78624,12.236352 8.5424,12.236352 C8.30048,12.236352 8.10464,12.303552 7.95488,12.439872 C7.80896,12.576192 7.73408,12.764352 7.73408,13.000512 C7.73408,13.236672 7.80896,13.424832 7.95488,13.561152 C8.1008,13.695552 8.29664,13.762752 8.5424,13.762752 C8.79008,13.762752 8.98784,13.695552 9.13376,13.561152 C9.2816,13.424832 9.35456,13.236672 9.35456,13.000512 L9.35456,13.000512 Z M7.61504,13.278912 C7.61696,13.253952 7.61312,13.234752 7.59776,13.217472 C7.5824,13.200192 7.56512,13.192512 7.54016,13.192512 C7.52864,13.192512 7.51904,13.194432 7.51328,13.196352 C7.5056,13.198272 7.49792,13.200192 7.49024,13.205952 L7.496,13.205952 C7.48448,13.209792 7.47104,13.215552 7.45376,13.221312 C7.43456,13.228992 7.41344,13.236672 7.38464,13.248192 C7.31552,13.275072 7.25216,13.288512 7.19456,13.288512 C7.09088,13.288512 7.01216,13.267392 6.96416,13.221312 C6.91424,13.179072 6.88928,13.109952 6.88928,13.015872 C6.88928,12.910272 6.91232,12.827712 6.9584,12.770112 C7.00448,12.710592 7.06784,12.679872 7.14848,12.679872 C7.21568,12.679872 7.28288,12.695232 7.35008,12.720192 C7.38848,12.735552 7.42112,12.748992 7.44608,12.762432 C7.47104,12.773952 7.49216,12.785472 7.5056,12.795072 C7.5344,12.812352 7.56128,12.814272 7.58624,12.798912 C7.61312,12.783552 7.62272,12.758592 7.61888,12.722112 L7.58624,12.388032 C7.58624,12.378432 7.58048,12.366912 7.57088,12.351552 C7.56128,12.338112 7.55168,12.330432 7.54208,12.326592 C7.49792,12.307392 7.44416,12.286272 7.37696,12.265152 C7.30976,12.244032 7.22336,12.236352 7.11776,12.236352 C6.88352,12.236352 6.69536,12.307392 6.55712,12.447552 C6.488,12.518592 6.43424,12.601152 6.39968,12.695232 C6.36512,12.789312 6.34784,12.896832 6.34784,13.019712 C6.34784,13.246272 6.41504,13.428672 6.55328,13.563072 C6.69344,13.697472 6.87584,13.762752 7.10048,13.762752 C7.1888,13.762752 7.27712,13.753152 7.36352,13.732032 C7.45184,13.707072 7.50752,13.687872 7.53056,13.676352 C7.53632,13.672512 7.54592,13.664832 7.55552,13.651392 C7.56512,13.637952 7.56896,13.626432 7.56896,13.618752 L7.61504,13.278912 Z M6.15968,13.733952 C6.17888,13.733952 6.19808,13.726272 6.21344,13.710912 C6.2288,13.697472 6.23648,13.680192 6.23648,13.657152 L6.23648,12.785472 C6.23648,12.606912 6.19424,12.472512 6.11168,12.378432 C6.03104,12.284352 5.90432,12.238272 5.73728,12.238272 C5.64512,12.238272 5.55488,12.251712 5.46848,12.280512 C5.384,12.311232 5.30528,12.349632 5.23424,12.401472 L5.17472,12.305472 C5.16896,12.295872 5.15744,12.288192 5.144,12.280512 C5.13056,12.274752 5.12096,12.270912 5.11136,12.270912 L4.80224,12.270912 C4.78112,12.270912 4.76384,12.278592 4.74848,12.293952 C4.73504,12.307392 4.72736,12.322752 4.72736,12.343872 L4.72736,13.657152 C4.72736,13.680192 4.73504,13.697472 4.74848,13.710912 C4.76384,13.726272 4.78112,13.733952 4.80224,13.733952 L5.23616,13.733952 C5.25536,13.733952 5.27456,13.726272 5.28992,13.710912 C5.30528,13.697472 5.31296,13.680192 5.31296,13.657152 L5.31296,12.785472 C5.32256,12.777792 5.33408,12.772032 5.34752,12.766272 C5.36096,12.760512 5.37824,12.752832 5.39744,12.743232 L5.3936,12.743232 C5.4224,12.729792 5.4512,12.720192 5.47808,12.714432 C5.50496,12.706752 5.53376,12.704832 5.56256,12.704832 C5.59136,12.704832 5.61248,12.720192 5.62592,12.748992 C5.64128,12.779712 5.64896,12.820032 5.64896,12.869952 L5.64896,13.657152 C5.64896,13.680192 5.65472,13.697472 5.672,13.710912 C5.68736,13.726272 5.70464,13.733952 5.72576,13.733952 L6.15968,13.733952 Z M3.88064,13.334592 C3.82496,13.357632 3.76352,13.367232 3.69632,13.367232 C3.61184,13.367232 3.56768,13.346112 3.56768,13.303872 C3.56768,13.219392 3.69632,13.179072 3.95744,13.179072 L3.96512,13.179072 L3.96512,13.298112 C3.95168,13.303872 3.94016,13.309632 3.92672,13.315392 C3.91328,13.321152 3.89792,13.326912 3.88064,13.334592 L3.88064,13.334592 Z M4.11488,13.684032 C4.1744,13.735872 4.2512,13.760832 4.3376,13.760832 L4.60832,13.538112 C4.62368,13.524672 4.63328,13.513152 4.6352,13.497792 C4.63904,13.482432 4.63904,13.467072 4.63328,13.453632 C4.62752,13.440192 4.61984,13.428672 4.6064,13.419072 C4.59488,13.409472 4.5776,13.405632 4.56032,13.405632 C4.56032,13.405632 4.55456,13.401792 4.54112,13.392192 C4.5296,13.382592 4.52384,13.376832 4.52384,13.376832 L4.52384,12.856512 C4.52384,12.743232 4.5104,12.647232 4.4816,12.568512 C4.4528,12.489792 4.40864,12.426432 4.34912,12.378432 C4.2896,12.328512 4.21472,12.293952 4.12256,12.268992 C4.0304,12.245952 3.92288,12.236352 3.79616,12.236352 C3.71936,12.236352 3.64448,12.242112 3.57536,12.255552 C3.50624,12.268992 3.43904,12.288192 3.37568,12.313152 C3.3104,12.336192 3.25664,12.361152 3.21824,12.382272 C3.17792,12.401472 3.14912,12.420672 3.12992,12.439872 C3.12224,12.447552 3.11456,12.460992 3.11072,12.478272 C3.10688,12.493632 3.10688,12.508992 3.11264,12.522432 L3.20864,12.743232 C3.21632,12.764352 3.23168,12.779712 3.25472,12.787392 C3.27392,12.795072 3.29504,12.793152 3.31232,12.783552 C3.34112,12.768192 3.37376,12.754752 3.40448,12.741312 C3.43712,12.727872 3.47168,12.714432 3.512,12.699072 C3.55424,12.681792 3.59648,12.668352 3.6368,12.662592 C3.67712,12.654912 3.71936,12.651072 3.76352,12.651072 C3.82304,12.651072 3.86912,12.664512 3.90368,12.691392 C3.93632,12.716352 3.95552,12.754752 3.95744,12.806592 L3.7424,12.798912 C3.6368,12.793152 3.53888,12.800832 3.45248,12.825792 C3.36416,12.852672 3.28544,12.885312 3.21632,12.933312 C3.07616,13.029312 3.00512,13.152192 3.00512,13.303872 C3.00512,13.444032 3.0512,13.555392 3.14336,13.639872 C3.23744,13.722432 3.37184,13.762752 3.54656,13.762752 C3.6368,13.762752 3.72512,13.753152 3.81152,13.726272 C3.89792,13.699392 3.97856,13.668672 4.05536,13.628352 C4.06496,13.639872 4.07264,13.649472 4.08224,13.657152 C4.09184,13.666752 4.10144,13.676352 4.11488,13.684032 L4.11488,13.684032 Z M1.9088,12.194112 C1.97408,12.194112 2.02784,12.211392 2.06624,12.242112 C2.10272,12.274752 2.12384,12.315072 2.12384,12.357312 C2.12384,12.397632 2.10272,12.432192 2.0624,12.464832 C2.02208,12.495552 1.97216,12.512832 1.90688,12.512832 L1.75136,12.512832 L1.75136,12.194112 L1.9088,12.194112 Z M1.93568,12.898752 C2.00672,12.898752 2.0624,12.916032 2.10656,12.952512 C2.15072,12.985152 2.17376,13.033152 2.17376,13.092672 C2.17376,13.148352 2.15072,13.194432 2.10272,13.227072 C2.05664,13.261632 1.99904,13.278912 1.928,13.278912 L1.75136,13.278912 L1.75136,12.898752 L1.93568,12.898752 Z M2.19104,13.733952 C2.39072,13.733952 2.55008,13.682112 2.67488,13.584192 C2.80544,13.476672 2.87072,13.338432 2.87072,13.165632 C2.87072,13.012032 2.82848,12.885312 2.744,12.787392 C2.69792,12.733632 2.63072,12.691392 2.5424,12.654912 C2.6288,12.610752 2.69216,12.555072 2.7344,12.482112 C2.77472,12.411072 2.79392,12.328512 2.79392,12.236352 C2.79392,12.159552 2.77856,12.090432 2.74784,12.032832 C2.7152,11.975232 2.67104,11.921472 2.61152,11.873472 C2.55392,11.831232 2.48864,11.796672 2.41568,11.773632 C2.34464,11.752512 2.264,11.739072 2.17568,11.739072 L1.14848,11.739072 C1.12928,11.739072 1.11008,11.748672 1.09472,11.762112 C1.07936,11.777472 1.07168,11.794752 1.07168,11.815872 L1.07168,13.657152 C1.07168,13.678272 1.07936,13.695552 1.09472,13.710912 C1.11008,13.726272 1.12928,13.733952 1.14848,13.733952 L2.19104,13.733952 Z" id="Fill-29" fill="#00693F"></path>
                    <path d="M2.421248,14.519232 C2.434688,14.492352 2.453888,14.478912 2.480768,14.478912 C2.501888,14.478912 2.517248,14.488512 2.530688,14.507712 C2.542208,14.526912 2.549888,14.555712 2.553728,14.588352 L2.400128,14.588352 C2.403968,14.559552 2.411648,14.538432 2.421248,14.519232 L2.421248,14.519232 Z M2.870528,14.999232 L2.816768,14.860992 C2.811008,14.849472 2.803328,14.841792 2.789888,14.836032 C2.780288,14.830272 2.768768,14.830272 2.757248,14.836032 C2.753408,14.837952 2.745728,14.839872 2.738048,14.843712 C2.726528,14.845632 2.713088,14.851392 2.695808,14.855232 C2.663168,14.864832 2.628608,14.868672 2.594048,14.868672 C2.521088,14.868672 2.469248,14.853312 2.440448,14.824512 C2.430848,14.814912 2.421248,14.801472 2.413568,14.786112 L2.835968,14.786112 C2.847488,14.786112 2.859008,14.782272 2.866688,14.772672 C2.874368,14.763072 2.878208,14.753472 2.878208,14.740032 L2.878208,14.676672 C2.878208,14.546112 2.843648,14.440512 2.772608,14.359872 C2.699648,14.277312 2.601728,14.236992 2.482688,14.236992 C2.363648,14.236992 2.263808,14.277312 2.185088,14.359872 C2.108288,14.440512 2.067968,14.544192 2.067968,14.667072 C2.067968,14.811072 2.112128,14.924352 2.198528,15.004992 C2.286848,15.085632 2.402048,15.125952 2.547968,15.125952 C2.576768,15.125952 2.605568,15.124032 2.632448,15.120192 C2.661248,15.118272 2.690048,15.112512 2.716928,15.106752 C2.741888,15.100992 2.768768,15.093312 2.789888,15.083712 C2.814848,15.074112 2.834048,15.064512 2.853248,15.051072 L2.870528,14.999232 Z M1.609088,14.847552 C1.576448,14.868672 1.545728,14.878272 1.518848,14.878272 C1.474688,14.878272 1.440128,14.862912 1.417088,14.828352 C1.392128,14.793792 1.380608,14.745792 1.380608,14.688192 C1.380608,14.620992 1.394048,14.565312 1.420928,14.526912 C1.449728,14.486592 1.490048,14.469312 1.543808,14.469312 C1.574528,14.469312 1.599488,14.476992 1.620608,14.488512 C1.630208,14.492352 1.635968,14.496192 1.643648,14.500032 C1.649408,14.503872 1.655168,14.505792 1.660928,14.507712 L1.660928,14.812992 C1.655168,14.816832 1.649408,14.822592 1.639808,14.828352 C1.632128,14.832192 1.620608,14.839872 1.609088,14.847552 L1.609088,14.847552 Z M1.781888,15.085632 C1.785728,15.091392 1.791488,15.097152 1.799168,15.100992 C1.806848,15.106752 1.816448,15.108672 1.822208,15.108672 L1.958528,15.108672 C1.971968,15.108672 1.981568,15.104832 1.991168,15.095232 C1.998848,15.085632 2.004608,15.076032 2.004608,15.064512 L2.004608,13.991232 C2.004608,13.979712 1.998848,13.968192 1.991168,13.958592 C1.981568,13.950912 1.971968,13.945152 1.958528,13.945152 L1.705088,13.945152 C1.691648,13.945152 1.682048,13.950912 1.672448,13.958592 C1.664768,13.968192 1.660928,13.979712 1.660928,13.991232 L1.660928,14.273472 C1.651328,14.267712 1.641728,14.263872 1.634048,14.260032 C1.624448,14.256192 1.614848,14.252352 1.605248,14.246592 C1.553408,14.225472 1.501568,14.213952 1.447808,14.213952 C1.323008,14.213952 1.227008,14.256192 1.155968,14.340672 C1.086848,14.423232 1.054208,14.532672 1.054208,14.668992 C1.054208,14.807232 1.088768,14.916672 1.157888,14.999232 C1.230848,15.083712 1.328768,15.125952 1.447808,15.125952 C1.534208,15.125952 1.603328,15.108672 1.657088,15.072192 C1.672448,15.060672 1.687808,15.051072 1.701248,15.039552 C1.714688,15.031872 1.730048,15.020352 1.743488,15.008832 L1.781888,15.085632 Z" id="Fill-31" fill="#00693F"></path>
                    <g id="Group-35" transform="translate(1.920000, 13.440000)">
                        <mask id="mask-4" fill="white">
                            <use xlink:href="#path-3"></use>
                        </mask>
                        <g id="Clip-34"></g>
                        <path d="M14.314496,2.234304 C14.314496,2.121024 14.279936,2.032704 14.212736,1.957824 C14.145536,1.886784 14.051456,1.829184 13.930496,1.785024 C13.826816,1.744704 13.751936,1.713984 13.705856,1.692864 C13.661696,1.669824 13.638656,1.644864 13.638656,1.623744 C13.638656,1.610304 13.646336,1.600704 13.661696,1.591104 C13.677056,1.581504 13.698176,1.575744 13.723136,1.575744 C13.790336,1.575744 13.861376,1.594944 13.934336,1.633344 C13.974656,1.650624 14.003456,1.665984 14.028416,1.679424 C14.049536,1.692864 14.064896,1.700544 14.072576,1.704384 C14.097536,1.721664 14.122496,1.723584 14.147456,1.712064 C14.172416,1.700544 14.185856,1.675584 14.185856,1.641024 L14.185856,1.343424 C14.185856,1.329984 14.182016,1.316544 14.172416,1.301184 C14.164736,1.285824 14.155136,1.276224 14.141696,1.274304 C14.118656,1.262784 14.089856,1.253184 14.059136,1.241664 C14.026496,1.232064 13.991936,1.222464 13.955456,1.212864 C13.915136,1.205184 13.876736,1.197504 13.834496,1.191744 C13.794176,1.185984 13.753856,1.182144 13.713536,1.182144 C13.627136,1.182144 13.548416,1.191744 13.475456,1.212864 C13.402496,1.232064 13.339136,1.258944 13.285376,1.299264 C13.223936,1.341504 13.177856,1.395264 13.149056,1.456704 C13.120256,1.516224 13.106816,1.587264 13.106816,1.667904 C13.106816,1.825344 13.162496,1.942464 13.275776,2.013504 C13.377536,2.078784 13.460096,2.119104 13.523456,2.140224 L13.523456,2.136384 C13.602176,2.167104 13.665536,2.190144 13.711616,2.207424 C13.757696,2.226624 13.780736,2.247744 13.780736,2.270784 C13.780736,2.282304 13.771136,2.291904 13.753856,2.297664 C13.734656,2.303424 13.709696,2.307264 13.677056,2.307264 C13.577216,2.307264 13.481216,2.288064 13.387136,2.251584 C13.337216,2.232384 13.294976,2.217024 13.264256,2.203584 C13.231616,2.192064 13.206656,2.182464 13.193216,2.176704 C13.162496,2.161344 13.139456,2.163264 13.118336,2.180544 C13.097216,2.195904 13.087616,2.220864 13.091456,2.251584 L13.124096,2.562624 C13.126016,2.576064 13.131776,2.589504 13.141376,2.599104 C13.152896,2.610624 13.162496,2.618304 13.174016,2.622144 C13.250816,2.649024 13.333376,2.668224 13.423616,2.681664 C13.513856,2.695104 13.609856,2.702784 13.713536,2.702784 C13.901696,2.702784 14.049536,2.664384 14.155136,2.583744 C14.260736,2.501184 14.314496,2.385984 14.314496,2.234304 L14.314496,2.234304 Z M12.442496,1.944384 C12.442496,2.036544 12.417536,2.111424 12.371456,2.165184 C12.323456,2.217024 12.258176,2.243904 12.171776,2.243904 C12.087296,2.243904 12.022016,2.217024 11.974016,2.165184 C11.927936,2.111424 11.904896,2.036544 11.904896,1.944384 C11.904896,1.848384 11.927936,1.775424 11.974016,1.721664 C12.022016,1.669824 12.087296,1.641024 12.171776,1.641024 C12.258176,1.641024 12.323456,1.669824 12.371456,1.721664 C12.417536,1.775424 12.442496,1.848384 12.442496,1.944384 L12.442496,1.944384 Z M12.978176,1.944384 C12.978176,1.708224 12.905216,1.521984 12.757376,1.385664 C12.609536,1.249344 12.413696,1.182144 12.171776,1.182144 C11.929856,1.182144 11.735936,1.249344 11.588096,1.385664 C11.440256,1.521984 11.367296,1.708224 11.367296,1.944384 C11.367296,2.178624 11.440256,2.361024 11.588096,2.499264 C11.732096,2.633664 11.927936,2.700864 12.171776,2.700864 C12.417536,2.700864 12.613376,2.633664 12.757376,2.499264 C12.905216,2.361024 12.978176,2.178624 12.978176,1.944384 L12.978176,1.944384 Z M10.954496,2.176704 L10.954496,1.639104 L11.236736,1.639104 C11.257856,1.639104 11.275136,1.633344 11.288576,1.617984 C11.303936,1.602624 11.309696,1.583424 11.309696,1.560384 L11.309696,1.291584 C11.309696,1.268544 11.303936,1.251264 11.288576,1.235904 C11.275136,1.222464 11.257856,1.216704 11.236736,1.216704 L10.954496,1.216704 L10.956416,0.830784 C10.956416,0.805824 10.948736,0.784704 10.931456,0.769344 C10.914176,0.753984 10.894976,0.748224 10.870016,0.753984 L10.447616,0.826944 C10.432256,0.828864 10.416896,0.836544 10.403456,0.851904 C10.391936,0.867264 10.386176,0.884544 10.386176,0.903744 L10.386176,1.216704 L10.180736,1.216704 C10.161536,1.216704 10.146176,1.222464 10.130816,1.235904 C10.115456,1.251264 10.107776,1.268544 10.107776,1.291584 L10.107776,1.560384 C10.107776,1.583424 10.115456,1.602624 10.130816,1.617984 C10.146176,1.633344 10.161536,1.639104 10.180736,1.639104 L10.386176,1.639104 L10.386176,2.284224 C10.386176,2.447424 10.426496,2.564544 10.509056,2.633664 C10.589696,2.700864 10.720256,2.737344 10.900736,2.737344 C10.935296,2.737344 10.967936,2.733504 11.002496,2.729664 C11.035136,2.723904 11.071616,2.716224 11.110016,2.708544 C11.146496,2.698944 11.177216,2.691264 11.202176,2.685504 C11.229056,2.677824 11.250176,2.672064 11.267456,2.664384 C11.278976,2.660544 11.288576,2.650944 11.298176,2.637504 C11.305856,2.622144 11.309696,2.608704 11.309696,2.593344 L11.309696,2.293824 C11.309696,2.266944 11.300096,2.243904 11.278976,2.228544 C11.257856,2.213184 11.234816,2.211264 11.209856,2.222784 C11.190656,2.232384 11.163776,2.241984 11.131136,2.253504 C11.096576,2.266944 11.060096,2.272704 11.017856,2.272704 C10.998656,2.272704 10.983296,2.265024 10.971776,2.247744 C10.960256,2.232384 10.954496,2.207424 10.954496,2.176704 L10.954496,2.176704 Z M9.988736,2.672064 C10.009856,2.672064 10.027136,2.664384 10.040576,2.649024 C10.057856,2.635584 10.065536,2.616384 10.065536,2.593344 L10.065536,1.727424 C10.065536,1.552704 10.023296,1.416384 9.942656,1.324224 C9.860096,1.232064 9.735296,1.184064 9.570176,1.184064 C9.476096,1.184064 9.387776,1.199424 9.303296,1.228224 C9.218816,1.257024 9.140096,1.297344 9.069056,1.347264 L9.011456,1.251264 C9.003776,1.241664 8.994176,1.233984 8.980736,1.228224 C8.967296,1.222464 8.955776,1.218624 8.948096,1.218624 L8.638976,1.218624 C8.619776,1.218624 8.602496,1.226304 8.589056,1.237824 C8.573696,1.253184 8.566016,1.270464 8.566016,1.291584 L8.566016,2.593344 C8.566016,2.616384 8.573696,2.635584 8.589056,2.649024 C8.602496,2.664384 8.619776,2.672064 8.638976,2.672064 L9.072896,2.672064 C9.092096,2.672064 9.109376,2.664384 9.124736,2.649024 C9.140096,2.635584 9.147776,2.616384 9.147776,2.593344 L9.147776,1.727424 C9.157376,1.721664 9.168896,1.713984 9.182336,1.710144 C9.195776,1.704384 9.213056,1.696704 9.230336,1.689024 L9.228416,1.689024 C9.257216,1.673664 9.284096,1.664064 9.312896,1.656384 C9.337856,1.650624 9.366656,1.646784 9.395456,1.646784 C9.424256,1.646784 9.445376,1.662144 9.458816,1.692864 C9.474176,1.721664 9.479936,1.763904 9.479936,1.811904 L9.479936,2.593344 C9.479936,2.616384 9.487616,2.635584 9.502976,2.649024 C9.518336,2.664384 9.537536,2.672064 9.556736,2.672064 L9.988736,2.672064 Z M7.675136,1.665984 C7.696256,1.619904 7.730816,1.596864 7.774976,1.596864 C7.809536,1.596864 7.836416,1.614144 7.859456,1.644864 C7.880576,1.679424 7.895936,1.723584 7.901696,1.785024 L7.638656,1.785024 C7.646336,1.737024 7.657856,1.698624 7.675136,1.665984 L7.675136,1.665984 Z M8.439296,2.483904 L8.347136,2.245824 C8.337536,2.228544 8.324096,2.213184 8.304896,2.205504 C8.285696,2.195904 8.266496,2.195904 8.247296,2.205504 C8.241536,2.209344 8.230016,2.213184 8.212736,2.218944 C8.195456,2.222784 8.172416,2.230464 8.141696,2.238144 C8.086016,2.253504 8.028416,2.261184 7.966976,2.261184 C7.844096,2.261184 7.757696,2.236224 7.707776,2.186304 C7.690496,2.170944 7.675136,2.147904 7.661696,2.119104 L8.381696,2.119104 C8.402816,2.119104 8.420096,2.113344 8.433536,2.097984 C8.448896,2.082624 8.454656,2.063424 8.454656,2.044224 L8.454656,1.932864 C8.454656,1.712064 8.395136,1.531584 8.274176,1.395264 C8.147456,1.253184 7.982336,1.182144 7.778816,1.182144 C7.573376,1.182144 7.406336,1.251264 7.273856,1.393344 C7.139456,1.531584 7.074176,1.706304 7.074176,1.917504 C7.074176,2.163264 7.147136,2.355264 7.294976,2.493504 C7.442816,2.631744 7.640576,2.700864 7.890176,2.700864 C7.938176,2.700864 7.988096,2.697024 8.036096,2.691264 C8.084096,2.685504 8.132096,2.677824 8.178176,2.668224 C8.222336,2.656704 8.266496,2.643264 8.304896,2.627904 C8.345216,2.612544 8.379776,2.593344 8.410496,2.576064 L8.439296,2.483904 Z M6.884096,2.672064 C6.905216,2.672064 6.924416,2.664384 6.939776,2.649024 C6.955136,2.635584 6.960896,2.616384 6.960896,2.593344 L6.960896,1.727424 C6.960896,1.366464 6.791936,1.184064 6.448256,1.184064 C6.384896,1.184064 6.323456,1.193664 6.263936,1.209024 C6.204416,1.224384 6.144896,1.243584 6.085376,1.274304 C6.052736,1.291584 6.023936,1.306944 5.997056,1.320384 C5.972096,1.333824 5.947136,1.349184 5.924096,1.362624 C5.887616,1.310784 5.839616,1.266624 5.776256,1.233984 C5.712896,1.201344 5.638016,1.184064 5.555456,1.184064 C5.459456,1.184064 5.369216,1.199424 5.284736,1.228224 C5.200256,1.257024 5.121536,1.297344 5.048576,1.347264 L4.989056,1.251264 C4.983296,1.241664 4.971776,1.233984 4.956416,1.228224 C4.942976,1.222464 4.931456,1.218624 4.919936,1.218624 L4.601216,1.218624 C4.580096,1.218624 4.560896,1.226304 4.547456,1.237824 C4.532096,1.253184 4.524416,1.270464 4.524416,1.291584 L4.524416,2.593344 C4.524416,2.616384 4.532096,2.635584 4.547456,2.649024 C4.560896,2.664384 4.580096,2.672064 4.601216,2.672064 L5.052416,2.672064 C5.073536,2.672064 5.092736,2.664384 5.108096,2.649024 C5.123456,2.635584 5.131136,2.616384 5.131136,2.593344 L5.131136,1.727424 C5.138816,1.721664 5.150336,1.713984 5.163776,1.708224 C5.177216,1.702464 5.192576,1.694784 5.211776,1.685184 L5.207936,1.685184 C5.265536,1.660224 5.317376,1.646784 5.371136,1.646784 C5.394176,1.646784 5.411456,1.662144 5.422976,1.692864 C5.434496,1.721664 5.440256,1.763904 5.440256,1.811904 L5.440256,2.593344 C5.440256,2.616384 5.447936,2.635584 5.463296,2.649024 C5.478656,2.664384 5.497856,2.672064 5.518976,2.672064 L5.968256,2.672064 C5.991296,2.672064 6.010496,2.664384 6.025856,2.649024 C6.039296,2.635584 6.046976,2.616384 6.046976,2.593344 L6.046976,1.725504 C6.056576,1.719744 6.068096,1.713984 6.081536,1.710144 C6.096896,1.704384 6.112256,1.696704 6.131456,1.689024 C6.158336,1.673664 6.183296,1.664064 6.208256,1.656384 C6.235136,1.650624 6.260096,1.646784 6.285056,1.646784 C6.308096,1.646784 6.325376,1.662144 6.338816,1.692864 C6.350336,1.721664 6.356096,1.763904 6.356096,1.811904 L6.356096,2.593344 C6.356096,2.616384 6.363776,2.635584 6.379136,2.649024 C6.394496,2.664384 6.411776,2.672064 6.434816,2.672064 L6.884096,2.672064 Z M3.902336,0.853824 C3.902336,0.926784 3.923456,0.988224 3.967616,1.030464 C4.009856,1.074624 4.069376,1.093824 4.142336,1.093824 C4.219136,1.093824 4.276736,1.074624 4.318976,1.030464 C4.361216,0.988224 4.382336,0.926784 4.382336,0.853824 C4.382336,0.778944 4.361216,0.721344 4.318976,0.677184 C4.276736,0.634944 4.219136,0.613824 4.142336,0.613824 C4.069376,0.613824 4.009856,0.634944 3.967616,0.677184 C3.923456,0.721344 3.902336,0.778944 3.902336,0.853824 L3.902336,0.853824 Z M4.347776,2.672064 C4.363136,2.672064 4.378496,2.664384 4.390016,2.649024 C4.401536,2.633664 4.407296,2.614464 4.407296,2.593344 L4.407296,1.255104 C4.407296,1.245504 4.403456,1.235904 4.393856,1.228224 C4.388096,1.218624 4.376576,1.209024 4.365056,1.203264 C4.353536,1.195584 4.342016,1.189824 4.328576,1.185984 C4.315136,1.182144 4.305536,1.180224 4.295936,1.180224 L3.940736,1.180224 C3.921536,1.180224 3.906176,1.187904 3.894656,1.203264 C3.883136,1.218624 3.877376,1.233984 3.877376,1.255104 L3.877376,2.593344 C3.877376,2.614464 3.883136,2.633664 3.894656,2.649024 C3.906176,2.664384 3.921536,2.672064 3.940736,2.672064 L4.347776,2.672064 Z M3.259136,0.688704 C3.239936,0.688704 3.224576,0.696384 3.213056,0.713664 C3.201536,0.729024 3.193856,0.746304 3.193856,0.765504 L3.193856,2.593344 C3.193856,2.614464 3.201536,2.633664 3.213056,2.649024 C3.224576,2.664384 3.239936,2.672064 3.259136,2.672064 L3.666176,2.672064 C3.681536,2.672064 3.696896,2.664384 3.708416,2.649024 C3.719936,2.633664 3.725696,2.614464 3.725696,2.593344 L3.725696,0.765504 C3.725696,0.746304 3.719936,0.729024 3.708416,0.713664 C3.696896,0.696384 3.681536,0.688704 3.666176,0.688704 L3.259136,0.688704 Z M1.828736,1.495104 L2.055296,1.936704 L1.586816,1.936704 L1.828736,1.495104 Z M3.074816,2.672064 C3.107456,2.672064 3.130496,2.660544 3.145856,2.637504 C3.157376,2.612544 3.157376,2.589504 3.145856,2.558784 L2.166656,0.732864 C2.158976,0.721344 2.151296,0.711744 2.135936,0.702144 C2.122496,0.694464 2.110976,0.688704 2.099456,0.688704 L1.652096,0.688704 C1.640576,0.688704 1.629056,0.694464 1.613696,0.702144 C1.598336,0.711744 1.588736,0.721344 1.582976,0.730944 L0.544256,2.556864 C0.528896,2.585664 0.526976,2.610624 0.542336,2.635584 C0.557696,2.658624 0.582656,2.672064 0.615296,2.672064 L1.139456,2.672064 C1.152896,2.672064 1.166336,2.668224 1.179776,2.658624 C1.193216,2.650944 1.202816,2.639424 1.208576,2.627904 L1.339136,2.380224 L2.285696,2.380224 L2.414336,2.627904 C2.420096,2.639424 2.429696,2.650944 2.443136,2.658624 C2.458496,2.668224 2.471936,2.672064 2.481536,2.672064 L3.074816,2.672064 Z" id="Fill-33" fill="#00693F" mask="url(#mask-4)"></path>
                    </g>
                    <path d="M2.926592,11.108736 C2.926592,11.051136 2.947712,11.003136 2.988032,10.968576 C3.030272,10.932096 3.085952,10.912896 3.156992,10.912896 C3.180032,10.912896 3.203072,10.914816 3.224192,10.916736 C3.247232,10.920576 3.268352,10.922496 3.289472,10.928256 C3.335552,10.935936 3.373952,10.945536 3.406592,10.955136 C3.416192,10.958976 3.425792,10.957056 3.431552,10.951296 C3.439232,10.943616 3.443072,10.935936 3.441152,10.926336 L3.425792,10.803456 C3.425792,10.797696 3.423872,10.793856 3.420032,10.788096 C3.414272,10.784256 3.410432,10.780416 3.406592,10.780416 C3.375872,10.770816 3.333632,10.761216 3.285632,10.753536 C3.233792,10.745856 3.176192,10.742016 3.114752,10.742016 C2.984192,10.742016 2.880512,10.774656 2.799872,10.839936 C2.721152,10.909056 2.680832,10.999296 2.680832,11.116416 C2.680832,11.233536 2.719232,11.321856 2.796032,11.379456 C2.874752,11.435136 2.986112,11.463936 3.132032,11.463936 C3.197312,11.463936 3.256832,11.460096 3.314432,11.452416 C3.368192,11.442816 3.418112,11.431296 3.462272,11.417856 C3.466112,11.415936 3.471872,11.412096 3.475712,11.408256 C3.479552,11.402496 3.481472,11.396736 3.481472,11.390976 L3.481472,11.079936 C3.481472,11.072256 3.479552,11.066496 3.473792,11.060736 C3.468032,11.056896 3.460352,11.053056 3.452672,11.053056 L3.168512,11.053056 C3.160832,11.053056 3.155072,11.056896 3.149312,11.060736 C3.143552,11.066496 3.141632,11.072256 3.141632,11.079936 L3.141632,11.198976 C3.141632,11.206656 3.143552,11.212416 3.149312,11.218176 C3.155072,11.223936 3.160832,11.225856 3.168512,11.225856 L3.262592,11.225856 L3.262592,11.270016 C3.233792,11.281536 3.193472,11.287296 3.139712,11.287296 C3.072512,11.287296 3.020672,11.270016 2.982272,11.237376 C2.945792,11.206656 2.926592,11.162496 2.926592,11.108736 M2.310272,10.972416 C2.285312,10.937856 2.260352,10.905216 2.235392,10.870656 C2.210432,10.836096 2.185472,10.803456 2.160512,10.766976 C2.158592,10.763136 2.154752,10.761216 2.150912,10.757376 C2.145152,10.755456 2.141312,10.753536 2.137472,10.753536 L1.939712,10.753536 C1.932032,10.753536 1.926272,10.757376 1.920512,10.763136 C1.916672,10.768896 1.912832,10.774656 1.912832,10.782336 L1.912832,11.425536 C1.912832,11.433216 1.916672,11.438976 1.920512,11.444736 C1.926272,11.450496 1.932032,11.454336 1.939712,11.454336 L2.112512,11.454336 C2.122112,11.454336 2.127872,11.450496 2.131712,11.444736 C2.137472,11.438976 2.141312,11.433216 2.141312,11.425536 L2.141312,11.102976 L2.392832,11.442816 C2.394752,11.444736 2.398592,11.448576 2.402432,11.450496 C2.406272,11.452416 2.410112,11.454336 2.413952,11.454336 L2.613632,11.454336 C2.621312,11.454336 2.627072,11.450496 2.632832,11.444736 C2.638592,11.438976 2.640512,11.433216 2.640512,11.425536 L2.640512,10.782336 C2.640512,10.774656 2.638592,10.768896 2.632832,10.763136 C2.627072,10.757376 2.621312,10.753536 2.613632,10.753536 L2.440832,10.753536 C2.433152,10.753536 2.425472,10.757376 2.419712,10.763136 C2.413952,10.768896 2.412032,10.774656 2.412032,10.782336 L2.412032,11.108736 C2.394752,11.085696 2.377472,11.062656 2.362112,11.039616 C2.344832,11.016576 2.327552,10.993536 2.310272,10.972416 M1.626752,11.102976 C1.626752,11.152896 1.613312,11.193216 1.582592,11.218176 C1.553792,11.243136 1.511552,11.256576 1.455872,11.256576 C1.400192,11.256576 1.357952,11.243136 1.327232,11.218176 C1.298432,11.193216 1.284992,11.152896 1.284992,11.102976 C1.284992,11.053056 1.298432,11.012736 1.327232,10.989696 C1.357952,10.962816 1.400192,10.949376 1.455872,10.949376 C1.511552,10.949376 1.553792,10.962816 1.582592,10.989696 C1.613312,11.012736 1.626752,11.053056 1.626752,11.102976 M1.874432,11.102976 C1.874432,10.982016 1.837952,10.891776 1.766912,10.830336 C1.697792,10.770816 1.594112,10.742016 1.455872,10.742016 C1.317632,10.742016 1.213952,10.770816 1.142912,10.830336 C1.071872,10.891776 1.037312,10.982016 1.037312,11.102976 C1.037312,11.225856 1.071872,11.314176 1.142912,11.375616 C1.213952,11.433216 1.317632,11.463936 1.455872,11.463936 C1.594112,11.463936 1.697792,11.433216 1.766912,11.375616 C1.837952,11.314176 1.874432,11.225856 1.874432,11.102976" id="Fill-36" fill="#00693F"></path>
                    <g id="Group-40" transform="translate(0.000000, 1.000000)">
                        <mask id="mask-6" fill="white">
                            <use xlink:href="#path-5"></use>
                        </mask>
                        <g id="Clip-39"></g>
                        <path d="M0.550016,4.601792 C3.493376,13.184192 18.346496,10.501952 16.472576,0.016832 C16.459136,10.238912 3.936896,11.333312 0.550016,4.601792" id="Fill-38" fill="#00693F" mask="url(#mask-6)"></path>
                    </g>
                    <path d="M3.45824,2.819328 L3.45248,3.155328 C4.74848,2.886528 6.09056,3.259008 7.0544,4.163328 L7.31744,3.806208 C6.2576,2.886528 4.8272,2.521728 3.45824,2.819328" id="Fill-41" fill="#00693F"></path>
                    <g id="Group-45" transform="translate(9.600000, 0.000000)">
                        <mask id="mask-8" fill="white">
                            <use xlink:href="#path-7"></use>
                        </mask>
                        <g id="Clip-44"></g>
                        <path d="M0.259328,3.048 L0.549248,3.21888 C0.879488,2.07072 1.747328,1.15104 2.880128,0.75936 L2.782208,0.33696 C1.559168,0.79008 0.626048,1.8 0.259328,3.048" id="Fill-43" fill="#00693F" mask="url(#mask-8)"></path>
                    </g>
                    <g id="Group-48">
                        <mask id="mask-10" fill="white">
                            <use xlink:href="#path-9"></use>
                        </mask>
                        <g id="Clip-47"></g>
                        <path d="M0.467456,5.189184 C3.854336,11.922624 16.376576,10.826304 16.390016,0.604224 C11.983616,4.684224 6.703616,6.295104 0.467456,5.189184" id="Fill-46" fill="#E93037" mask="url(#mask-10)"></path>
                    </g>
                    <path d="M14.832896,3.991104 C13.892096,3.753024 14.583296,3.255744 14.832896,3.991104 M12.734336,6.502464 C11.793536,6.262464 12.484736,5.765184 12.734336,6.502464 M12.256256,4.582464 C11.313536,4.344384 12.006656,3.847104 12.256256,4.582464 M9.967616,6.556224 C10.146176,5.601984 10.687616,6.260544 9.967616,6.556224 M9.443456,8.393664 C8.502656,8.155584 9.193856,7.658304 9.443456,8.393664 M6.718976,6.467904 C6.793856,5.500224 7.400576,6.097344 6.718976,6.467904 M6.480896,8.311104 C5.540096,8.073024 6.231296,7.575744 6.480896,8.311104 M4.029056,7.049664 C3.005696,6.569664 3.973376,6.272064 4.029056,7.049664" id="Fill-49" fill="#37343C"></path>
                </g>
                <g id="Group-73" transform="translate(29.800000, 0.658944)">
                    <path d="M42.087872,32.016128 C42.087872,33.087488 41.221952,33.951488 40.156352,33.951488 C39.088832,33.951488 38.222912,33.087488 38.222912,32.016128 L38.222912,3.033728 C38.222912,1.970048 39.088832,1.104128 40.156352,1.104128 C41.221952,1.104128 42.087872,1.970048 42.087872,3.033728 L42.087872,32.016128 Z" id="Fill-52" fill="#A97218"></path>
                    <path d="M40.156544,1.104896 C39.835904,1.104896 39.536384,1.181696 39.269504,1.319936 C39.893504,1.636736 40.317824,2.285696 40.317824,3.034496 L40.317824,32.016896 C40.317824,32.763776 39.893504,33.412736 39.269504,33.733376 C39.536384,33.867776 39.835904,33.950336 40.156544,33.950336 C41.222144,33.950336 42.088064,33.086336 42.088064,32.016896 L42.088064,3.034496 C42.088064,1.968896 41.222144,1.104896 40.156544,1.104896" id="Fill-54" fill="#8D5B00"></path>
                    <g id="Group-58" transform="translate(36.480000, 0.000000)">
                        <mask id="mask-12" fill="white">
                            <use xlink:href="#path-11"></use>
                        </mask>
                        <g id="Clip-57"></g>
                        <path d="M3.676544,1.944896 C3.077504,1.944896 2.587904,2.434496 2.587904,3.033536 L2.587904,32.015936 C2.587904,32.616896 3.077504,33.104576 3.676544,33.104576 C4.275584,33.104576 4.765184,32.616896 4.765184,32.015936 L4.765184,3.033536 C4.765184,2.434496 4.275584,1.944896 3.676544,1.944896 M3.676544,34.794176 C2.146304,34.794176 0.900224,33.548096 0.900224,32.015936 L0.900224,3.033536 C0.900224,1.505216 2.146304,0.261056 3.676544,0.261056 C5.206784,0.261056 6.452864,1.505216 6.452864,3.033536 L6.452864,32.015936 C6.452864,33.548096 5.206784,34.794176 3.676544,34.794176" id="Fill-56" fill="#333333" mask="url(#mask-12)"></path>
                    </g>
                    <path d="M64.021568,15.870464 C64.244288,16.191104 64.271168,16.613504 64.088768,16.959104 C63.906368,17.308544 63.545408,17.525504 63.155648,17.525504 L42.087488,17.525504 L42.087488,3.033344 L63.155648,3.033344 C63.545408,3.033344 63.906368,3.250304 64.088768,3.599744 C64.271168,3.945344 64.244288,4.367744 64.021568,4.690304 L60.569408,9.678464 C60.319808,10.039424 60.319808,10.519424 60.569408,10.878464 L64.021568,15.870464 Z" id="Fill-59" fill="#ED5C5C"></path>
                    <path d="M60.566912,10.879232 C60.317312,10.520192 60.317312,10.040192 60.566912,9.679232 L64.020992,4.689152 C64.245632,4.366592 64.270592,3.951872 64.088192,3.600512 C63.905792,3.254912 63.544832,3.034112 63.153152,3.034112 L58.516352,3.034112 C58.909952,3.034112 59.268992,3.254912 59.451392,3.600512 C59.633792,3.951872 59.606912,4.366592 59.384192,4.689152 L55.932032,9.679232 C55.680512,10.040192 55.680512,10.520192 55.932032,10.879232 L59.384192,15.871232 C59.606912,16.191872 59.633792,16.612352 59.451392,16.959872 C59.268992,17.309312 58.909952,17.526272 58.516352,17.526272 L63.153152,17.526272 C63.544832,17.526272 63.905792,17.309312 64.088192,16.959872 C64.270592,16.612352 64.245632,16.191872 64.020992,15.871232 L60.566912,10.879232 Z" id="Fill-61" fill="#E93037"></path>
                    <path d="M42.93248,16.68608 L63.15392,16.68608 C63.23264,16.68608 63.30368,16.63808 63.34208,16.56896 C63.37856,16.49792 63.3728,16.41536 63.32864,16.35008 L59.87264,11.36 C59.4272,10.7168 59.4272,9.84704 59.87264,9.20192 L63.32864,4.20992 C63.3728,4.14848 63.37856,4.06208 63.34208,3.99488 C63.30368,3.92384 63.23264,3.87776 63.15392,3.87776 L42.93248,3.87776 L42.93248,16.68608 Z M63.15392,18.36992 L42.08768,18.36992 C41.62304,18.36992 41.24672,17.99168 41.24672,17.52512 L41.24672,3.03488 C41.24672,2.56832 41.62304,2.19008 42.08768,2.19008 L63.15392,2.19008 C63.86048,2.19008 64.5056,2.58368 64.83584,3.21152 C65.16416,3.83552 65.11808,4.58816 64.71488,5.17568 L61.25888,10.16 C61.21088,10.23296 61.21088,10.32704 61.25888,10.4 L64.71296,15.39008 C65.11808,15.97184 65.16416,16.72448 64.83584,17.35424 C64.5056,17.98208 63.86048,18.36992 63.15392,18.36992 L63.15392,18.36992 Z" id="Fill-63" fill="#333333"></path>
                    <path d="M49.827776,81.559232 L1.386176,81.559232 C0.919616,81.559232 0.545216,81.180992 0.545216,80.716352 C0.545216,80.249792 0.919616,79.871552 1.386176,79.871552 L49.827776,79.871552 C52.268096,79.871552 54.255296,77.890112 54.255296,75.445952 C54.255296,72.999872 52.260416,71.003072 49.810496,71.003072 L38.902976,71.003072 C35.160896,71.003072 32.117696,67.961792 32.117696,64.219712 L32.117696,64.127552 C32.117696,60.385472 35.160896,57.342272 38.902976,57.342272 L54.266816,57.342272 C57.661376,57.342272 60.426176,54.577472 60.426176,51.186752 C60.426176,47.678912 57.571136,44.823872 54.063296,44.823872 L31.430336,44.823872 C28.206656,44.823872 25.583936,42.199232 25.583936,38.979392 C25.583936,35.740352 28.218176,33.106112 31.453376,33.106112 L32.234816,33.106112 C32.701376,33.106112 33.075776,33.484352 33.075776,33.950912 C33.075776,34.415552 32.701376,34.795712 32.234816,34.795712 L31.453376,34.795712 C29.147456,34.795712 27.267776,36.671552 27.267776,38.979392 C27.267776,41.273792 29.137856,43.138112 31.430336,43.138112 L54.063296,43.138112 C58.502336,43.138112 62.108096,46.747712 62.108096,51.186752 C62.108096,55.510592 58.592576,59.028032 54.266816,59.028032 L38.902976,59.028032 C36.090176,59.028032 33.803456,61.314752 33.803456,64.127552 L33.803456,64.219712 C33.803456,67.030592 36.090176,69.319232 38.902976,69.319232 L49.810496,69.319232 C53.191616,69.319232 55.939136,72.068672 55.939136,75.445952 C55.939136,78.815552 53.199296,81.559232 49.827776,81.559232" id="Fill-65" fill="#333333"></path>
                    <path d="M43.861568,33.951104 C43.861568,35.993984 42.200768,37.654784 40.155968,37.654784 C38.113088,37.654784 36.452288,35.993984 36.452288,33.951104 C36.452288,31.906304 38.113088,30.245504 40.155968,30.245504 C42.200768,30.245504 43.861568,31.906304 43.861568,33.951104" id="Fill-67" fill="#A0D167"></path>
                    <path d="M40.156544,30.24608 C39.722624,30.24608 39.307904,30.32288 38.918144,30.45728 C40.358144,30.96608 41.387264,32.33888 41.387264,33.95168 C41.387264,35.56256 40.358144,36.9296 38.918144,37.4384 C39.307904,37.57664 39.722624,37.65344 40.156544,37.65344 C42.201344,37.65344 43.862144,35.99456 43.862144,33.95168 C43.862144,31.90496 42.201344,30.24608 40.156544,30.24608" id="Fill-69" fill="#79BD28"></path>
                    <path d="M40.156544,31.08992 C38.580224,31.08992 37.297664,32.37248 37.297664,33.95072 C37.297664,35.53088 38.580224,36.8096 40.156544,36.8096 C41.734784,36.8096 43.017344,35.53088 43.017344,33.95072 C43.017344,32.37248 41.734784,31.08992 40.156544,31.08992 M40.156544,38.49344 C37.649024,38.49344 35.609984,36.4544 35.609984,33.95072 C35.609984,31.44128 37.649024,29.40224 40.156544,29.40224 C42.664064,29.40224 44.703104,31.44128 44.703104,33.95072 C44.703104,36.4544 42.664064,38.49344 40.156544,38.49344" id="Fill-71" fill="#333333"></path>
                </g>
            </g>
        </g>
    </g>
</svg>