<?xml version="1.0" encoding="UTF-8" standalone="no"?>
<svg width="96px" height="87px" viewBox="0 0 96 87" version="1.1" xmlns="http://www.w3.org/2000/svg" xmlns:xlink="http://www.w3.org/1999/xlink">
    <!-- Generator: sketchtool 41.2 (35397) - http://www.bohemiancoding.com/sketch -->
    <title>2522B9E2-F983-44E3-9FCE-E8732B52A930</title>
    <desc>Created with sketchtool.</desc>
    <defs>
        <polygon id="path-1" points="24.4729552 24.0743403 24.4729552 0.150280597 0.304883582 0.150280597 0.304883582 24.0743403 24.4729552 24.0743403"></polygon>
    </defs>
    <g id="BDA" stroke="none" stroke-width="1" fill="none" fill-rule="evenodd">
        <g id="Desktop" transform="translate(-1211.000000, -710.000000)">
            <g id="Page-1" transform="translate(1211.000000, 709.000000)">
                <path d="M38.2786388,2.52023881 C47.5089672,11.7491343 46.7638925,27.4601791 36.6136836,37.6118209 C26.4620418,47.7620299 10.7495642,48.5099701 1.51923582,39.278209 L38.2786388,2.52023881 Z" id="Fill-1" fill="#AED467"></path>
                <path d="M35.2540657,5.54409552 C43.0830806,13.3745433 42.4483343,26.6999164 33.8398567,35.3069612 C25.2285134,43.9183045 11.906006,44.5516179 4.07699104,36.722603 L35.2540657,5.54409552 Z" id="Fill-3" fill="#F1787B"></path>
                <path d="M28.6448239,12.1540537 C32.963391,16.4726209 32.6152119,23.8245015 27.866794,28.5729194 C23.1155104,33.3227701 15.7650627,33.6723821 11.4464955,29.3523821 L28.6448239,12.1540537 Z" id="Fill-5" fill="#F49395"></path>
                <path d="M3.05939104,39.259009 C11.944406,47.2656955 26.4189134,46.2856358 35.8541373,36.8504119 C45.2879284,27.4166209 46.2651224,12.9449791 38.2584358,4.05996418 L3.05939104,39.259009 Z M37.3729433,38.3720836 C26.8201075,48.9249194 10.3955104,49.6742925 0.759689552,40.0384716 L0.000286567164,39.2790687 L38.2784955,0.999426866 L39.0378985,1.76026269 C48.6737194,11.3946507 47.9257791,27.8192478 37.3729433,38.3720836 L37.3729433,38.3720836 Z" id="Fill-7" fill="#414042"></path>
                <path d="M34.9778149,35.9763821 C25.8764418,45.0777552 11.7071284,45.7196657 3.39381493,37.4049194 C2.97399403,36.9850985 2.97399403,36.3045015 3.39381493,35.8861134 C3.81363582,35.4662925 4.49423284,35.4662925 4.91405373,35.8861134 C12.3891582,43.3612179 25.1944119,42.7193075 33.4575761,34.4561433 C41.7207403,26.1929791 42.3612179,13.3891582 34.8846806,5.91405373 C34.4662925,5.49423284 34.4662925,4.81363582 34.8846806,4.39381493 C35.3045015,3.97399403 35.9850985,3.97399403 36.4049194,4.39381493 C44.7182328,12.7085612 44.0791881,26.875009 34.9778149,35.9763821" id="Fill-9" fill="#414042"></path>
                <path d="M32.1058388,33.1036896 C31.6860179,33.5235104 31.0054209,33.5235104 30.5856,33.1036896 L28.753003,31.2710925 C28.3346149,30.8527045 28.3346149,30.1706746 28.753003,29.7508537 C29.1728239,29.3310328 29.8534209,29.3310328 30.2732418,29.7508537 L32.1058388,31.5834507 C32.5242269,32.0032716 32.5242269,32.6838687 32.1058388,33.1036896" id="Fill-11" fill="#414042"></path>
                <path d="M28.8763701,21.9741373 C28.6643104,22.186197 28.3634149,22.3079881 28.0410269,22.2864955 L25.456191,22.1030925 C24.8658627,22.0629731 24.4188179,21.5485851 24.461803,20.955391 C24.5033552,20.3664955 25.0163104,19.9165851 25.6095045,19.961003 L28.1929075,20.144406 C28.7846687,20.1845254 29.2302806,20.6974806 29.1872955,21.2906746 C29.1686687,21.5586149 29.0540418,21.7978985 28.8763701,21.9741373" id="Fill-13" fill="#414042"></path>
                <path d="M21.2846328,29.5664478 C21.1069612,29.7441194 20.8691104,29.8587463 20.5997373,29.878806 C20.0079761,29.9203582 19.4935881,29.4747463 19.4534687,28.8815522 L19.2700657,26.2995821 C19.2285134,25.7063881 19.6755582,25.1934328 20.2658866,25.1518806 C20.8576478,25.1088955 21.3720358,25.5545075 21.4121552,26.1462687 L21.5955582,28.7296716 C21.6184836,29.0549254 21.4966925,29.3543881 21.2846328,29.5664478" id="Fill-15" fill="#414042"></path>
                <path d="M25.5894448,37.0356776 C25.4719522,37.1517373 25.3286687,37.2434388 25.159594,37.2978866 C24.5950567,37.4798567 23.9889672,37.1689313 23.806997,36.6029612 L23.0146388,34.1384836 C22.8312358,33.5739463 23.1421612,32.9692896 23.7081313,32.7858866 C24.2726687,32.6039164 24.8773254,32.9148418 25.0592955,33.4808119 L25.8530866,35.9452896 C25.980609,36.3436179 25.8645493,36.7605731 25.5894448,37.0356776" id="Fill-17" fill="#414042"></path>
                <path d="M17.9985672,37.5533612 C17.7607164,37.7912119 17.4182687,37.9144358 17.0629254,37.8542567 C16.4768955,37.7582567 16.0814328,37.2066149 16.1774328,36.6205851 L16.6001194,34.0615403 C16.6961194,33.4755104 17.2520597,33.0814806 17.8352239,33.1774806 C18.4212537,33.2749134 18.8167164,33.8265552 18.7192836,34.4125851 L18.296597,36.970197 C18.2593433,37.1994507 18.1504478,37.4029134 17.9985672,37.5533612" id="Fill-19" fill="#414042"></path>
                <path d="M11.0071881,34.5477015 C10.6375164,34.918806 10.0414567,34.9718209 9.6087403,34.6508657 C9.13160597,34.2969552 9.0327403,33.6235224 9.38521791,33.1463881 L10.9269493,31.0659104 C11.2837254,30.6045373 11.9528597,30.4899104 12.4314269,30.8423881 C12.9085612,31.1962985 13.0074269,31.8697313 12.6549493,32.3468657 L11.1117851,34.4273433 C11.0788299,34.4688955 11.0444418,34.5104478 11.0071881,34.5477015" id="Fill-21" fill="#414042"></path>
                <path d="M36.8142806,25.8108418 C36.5377433,26.0859463 36.1222209,26.202006 35.7253254,26.0759164 L33.2594149,25.2821254 C32.6934448,25.0987224 32.3825194,24.4940657 32.5644896,23.9309612 C32.7507582,23.3606925 33.3525493,23.0526328 33.9170866,23.234603 L36.3815642,24.028394 C36.9475343,24.2103642 37.2584597,24.8164537 37.0764896,25.3795582 C37.0220418,25.5486328 36.9317731,25.6933493 36.8142806,25.8108418" id="Fill-23" fill="#414042"></path>
                <path d="M37.3326806,18.2198209 C37.1793672,18.3731343 36.9787701,18.4820299 36.7495164,18.5178507 L34.1919045,18.9405373 C33.6058746,19.0379701 33.0542328,18.6425075 32.9568,18.0564776 C32.8593672,17.4718806 33.2576955,16.9173731 33.8408597,16.8213731 L36.3984716,16.3986866 C36.9845015,16.3026866 37.5361433,16.6981493 37.6335761,17.2841791 C37.6923224,17.6409552 37.5705313,17.9819701 37.3326806,18.2198209" id="Fill-25" fill="#414042"></path>
                <path d="M34.3271642,11.2278687 C34.2899104,11.2651224 34.2483582,11.3009433 34.206806,11.3324657 L32.1248955,12.8756299 C31.649194,13.2281075 30.9757612,13.1292418 30.6218507,12.6521075 C30.2679403,12.1735403 30.384,11.504406 30.8453731,11.1476299 L32.9258507,9.60589851 C33.4029851,9.2534209 34.0764179,9.35228657 34.4303284,9.8294209 C34.7498507,10.2621373 34.6968358,10.858197 34.3271642,11.2278687" id="Fill-27" fill="#414042"></path>
                <path d="M17.76,59.2487881 C18.5924776,58.2200119 19.8447761,57.6225194 21.1687164,57.6225194 L28.6108657,57.6225194 L38.0518209,57.6225194 C40.128,57.6225194 41.8115821,59.3061015 41.8115821,61.3822806 L41.8115821,61.4567881 C41.8115821,63.5329672 40.128,65.2179821 38.0518209,65.2179821 L28.4374925,65.2179821 C26.6851343,65.3082507 25.2895522,66.7582806 25.2895522,68.534997 C25.2895522,70.3704597 26.7768358,71.8591761 28.6108657,71.8591761 L46.2677015,71.8591761 C47.398209,71.8591761 48.4828657,71.423594 49.2995821,70.6441313 L62.5346866,57.9878925 C64.2841791,56.3143403 67.0595821,56.3773851 68.7317015,58.1268776 C70.4167164,59.8864 70.3536716,62.6804299 68.5941493,64.3625791 L52.8272239,79.4374448 C52.0119403,80.2183403 50.9258507,80.6524896 49.7967761,80.6524896 L25.4156418,80.6524896 C24.2378507,80.6524896 23.1087761,81.128191 22.2834627,81.9678328 L18.0494328,86.2892657 C16.8945672,87.4684896 15.0103881,87.5215045 13.7896119,86.4110567 L5.55940299,78.9216239 C4.35725373,77.8269373 4.21683582,75.9843104 5.24131343,74.7191164 L17.76,59.2487881 Z" id="Fill-29" fill="#F9C38D"></path>
                <path d="M38.0519642,60.7180179 L28.6124418,60.7180179 L21.1688597,60.7180179 C19.8449194,60.7180179 18.5926209,61.3169433 17.7601433,62.3442866 L5.24002388,77.8174806 C5.13972537,77.9392716 5.05518806,78.0682269 4.97781493,78.2014806 C4.3488,77.1254209 4.41614328,75.7355701 5.24002388,74.7182567 L17.7601433,59.2493612 C18.5926209,58.2205851 19.8449194,57.6230925 21.1688597,57.6230925 L28.6124418,57.6230925 L38.0519642,57.6230925 C40.1281433,57.6230925 41.8117254,59.3066746 41.8117254,61.3828537 L41.8117254,61.4573612 C41.8117254,61.9961075 41.6985313,62.506197 41.4950687,62.9675701 C40.9133373,61.6436299 39.5908299,60.7180179 38.0519642,60.7180179" id="Fill-31" fill="#FBDAB8"></path>
                <path d="M68.7334209,61.2245254 C67.0598687,59.4736 64.2858985,59.4105552 62.5349731,61.0841075 L49.2998687,73.7389134 C48.4831522,74.519809 47.3984955,74.955391 46.2694209,74.955391 L28.6125851,74.955391 C26.7785552,74.955391 25.2898388,73.4681075 25.2898388,71.6326448 C25.2898388,71.072406 25.427391,70.5465552 25.672406,70.0837493 C26.2283463,71.1397493 27.3359284,71.8590328 28.6125851,71.8590328 L46.2694209,71.8590328 C47.3984955,71.8590328 48.4831522,71.4234507 49.2998687,70.6439881 L62.5349731,57.9891821 C64.2858985,56.3156299 67.0598687,56.3772418 68.7334209,58.1267343 C69.9427343,59.3919284 70.2522269,61.1887045 69.6762269,62.7247045 C69.474197,62.1816597 69.1589731,61.6701373 68.7334209,61.2245254" id="Fill-33" fill="#FBDAB8"></path>
                <path d="M63.041194,58.5170388 L49.8046567,71.1732776 C48.8489552,72.0888597 47.593791,72.5903522 46.2698507,72.5903522 L28.6130149,72.5903522 C26.3763582,72.5903522 24.5580896,70.7720836 24.5580896,68.5368597 C24.5580896,66.3761433 26.2459701,64.597994 28.4009552,64.4876657 C28.4138507,64.4862328 28.4267463,64.4848 28.438209,64.4848 L38.0525373,64.4848 C39.721791,64.4848 41.0801194,63.1279045 41.0801194,61.4572179 L41.0801194,61.3827104 C41.0801194,59.7134567 39.721791,58.3551284 38.0525373,58.3551284 L21.168,58.3551284 C20.0604179,58.3551284 19.0259104,58.8480239 18.3295522,59.7091582 L5.80943284,75.1809194 C5.03140299,76.1423522 5.13743284,77.5479642 6.05301493,78.3804418 L14.2832239,85.8713075 C14.7130746,86.2624716 15.2733134,86.4802627 15.8550448,86.4802627 C16.489791,86.4802627 17.0829851,86.2295164 17.5257313,85.7767403 L21.7597612,81.4567403 C22.7168955,80.4809791 24.0494328,79.9207403 25.4149254,79.9207403 L49.7989254,79.9207403 C50.7417313,79.9207403 51.6386866,79.5625313 52.3221493,78.9077254 L68.0876418,63.8342925 C68.7983284,63.1551284 69.2009552,62.2409791 69.2224478,61.2580537 C69.2453731,60.2765612 68.8842985,59.3437851 68.2051343,58.6330985 C67.5302687,57.9281433 66.6218507,57.5283821 65.6460896,57.5054567 L65.5644179,57.5054567 C64.6201791,57.5054567 63.7246567,57.8650985 63.041194,58.5170388 M13.296,86.9530985 L5.06722388,79.4636657 C3.57850746,78.1096358 3.40513433,75.8228299 4.67176119,74.259606 L17.1904478,58.7878448 C18.1676418,57.5828299 19.6162388,56.8893373 21.168,56.8893373 L38.0525373,56.8893373 C40.5284776,56.8893373 42.5444776,58.9053373 42.5444776,61.3827104 L42.5444776,61.4572179 C42.5444776,63.9331582 40.5284776,65.9491582 38.0525373,65.9491582 L28.4582687,65.9491582 C27.0899104,66.029397 26.0224478,67.1627701 26.0224478,68.5368597 C26.0224478,69.9639642 27.1844776,71.1274269 28.6130149,71.1274269 L46.2698507,71.1274269 C47.2140896,71.1274269 48.1110448,70.7677851 48.7945075,70.1158448 L62.0281791,57.459606 C63.0125373,56.5168 64.3135522,56.011009 65.6804776,56.0410985 C67.0459701,56.0726209 68.3183284,56.6342925 69.2625672,57.6215164 C70.2125373,58.6130388 70.7168955,59.9183522 70.686806,61.291009 C70.6552836,62.6636657 70.0936119,63.9417552 69.1006567,64.8917254 L53.3337313,79.9680239 C52.376597,80.8807403 51.1214328,81.3850985 49.7989254,81.3850985 L25.4149254,81.3850985 C24.440597,81.3850985 23.489194,81.7848597 22.8071642,82.4826507 L18.5731343,86.8026507 C17.8509851,87.5391284 16.8866866,87.9431881 15.8550448,87.9431881 C14.9065075,87.9431881 13.9980896,87.5921433 13.296,86.9530985" id="Fill-35" fill="#333333"></path>
                <path d="M93.5456955,52.2566925 C92.1286209,50.8396179 89.8346507,50.8396179 88.4161433,52.2566925 L76.6239045,40.4644537 L73.0346507,44.0508418 L83.5975164,54.6151403 C81.9569194,56.258603 81.9569194,58.9208119 83.5975164,60.5628418 C85.2409791,62.2048716 87.9031881,62.2048716 89.5452179,60.5628418 C90.1541731,59.9538866 90.5338746,59.2059463 90.6929194,58.4207522 C91.7145313,58.5024239 92.7648,58.1671403 93.5456955,57.3848119 C94.9613373,55.9691701 94.9613373,53.6723343 93.5456955,52.2566925" id="Fill-37" fill="#F1F2F2"></path>
                <g id="Group-41" transform="translate(71.208955, 38.794651)">
                    <mask id="mask-2" fill="white">
                        <use xlink:href="#path-1"></use>
                    </mask>
                    <g id="Clip-40"></g>
                    <path d="M3.34536119,5.25690746 L13.9082269,15.821206 L13.1488239,16.580609 C11.9294806,17.8028179 11.9294806,19.7887284 13.1488239,21.0080716 C14.3323463,22.1930269 16.3927642,22.191594 17.5762866,21.0080716 C18.0133015,20.5710567 18.3070328,20.0222806 18.4302567,19.4133254 L18.619391,18.4791164 L19.570794,18.5536239 C20.3173015,18.6281313 21.0537791,18.3544597 21.5767642,17.8300418 C22.0596299,17.348609 22.3247045,16.7081313 22.3247045,16.0275343 C22.3247045,15.3440716 22.0596299,14.703594 21.5767642,14.2221612 C20.6110328,13.2564299 18.9331821,13.2564299 17.9674507,14.2221612 L17.2080478,14.9815642 L5.41437612,3.18932537 L3.34536119,5.25690746 Z M15.3625552,24.0743403 C13.9526448,24.0743403 12.6272716,23.5255642 11.6285851,22.5283104 C9.83180896,20.7301015 9.6054209,17.9461015 10.9465552,15.9000119 L0.304883582,5.25690746 L5.41437612,0.150280597 L17.2940179,12.0299224 C19.0721672,10.9237731 21.5796299,11.1845493 23.097003,12.7019224 C23.9839284,13.5888478 24.4739582,14.7709373 24.4739582,16.0275343 C24.4739582,17.2826985 23.9839284,18.4633552 23.097003,19.3502806 C22.3376,20.1096836 21.3561075,20.5739224 20.2915104,20.6871164 C20.0278687,21.3748776 19.6223761,22.0024597 19.0950925,22.5283104 C18.0978388,23.5255642 16.7724657,24.0743403 15.3625552,24.0743403 L15.3625552,24.0743403 Z" id="Fill-39" fill="#414042" mask="url(#mask-2)"></path>
                </g>
                <path d="M79.9750209,42.1457433 C79.9750209,42.1457433 75.8384239,26.3573254 72.9039761,23.2179821 C67.9205731,17.8906985 59.9368119,17.8319522 55.2614687,22.5058627 C50.5875582,27.1826388 50.8411701,35.3612657 55.9750209,40.1483701 C59.1172299,43.0785194 75.0790209,47.4572657 75.0790209,47.4572657 L79.9750209,42.1457433 Z" id="Fill-42" fill="#F4A800"></path>
                <path d="M58.9134806,38.8602507 C54.3828537,33.4985791 55.0992716,25.3457433 60.2961672,21.2592955 C61.5828537,20.2477134 63.0357493,19.5484896 64.5602866,19.1573254 C61.1573015,18.8908179 57.7428537,20.024191 55.2611821,22.5058627 C50.5872716,27.1826388 50.8408836,35.3612657 55.9747343,40.1483701 C58.7057194,42.6973851 71.1183761,46.3353552 74.3193313,47.2437731 C69.7915701,45.2908179 60.9552716,41.2774448 58.9134806,38.8602507" id="Fill-44" fill="#B77E00"></path>
                <path d="M63.5862448,20.1843821 C60.6947821,20.1843821 58.0082149,21.2790687 56.0208716,23.2649791 C53.8845134,25.4027701 52.7167522,28.589397 52.8972896,31.7932179 C53.067797,34.846591 54.3989015,37.517397 56.6441552,39.3098746 C60.7492299,42.5839045 70.7819463,45.3507104 73.7608119,46.1215761 C73.7851701,46.1273075 73.8396179,46.1387701 73.9227224,46.1387701 C74.2551403,46.1387701 74.6147821,45.9854567 74.7580657,45.8407403 L78.3602149,42.2414567 C78.5679761,42.0336955 78.7212896,41.5006806 78.6525134,41.2227104 C77.0133493,34.4898149 74.4356776,26.4186507 72.1216478,23.9541731 C69.8362746,21.5240836 66.8058269,20.1843821 63.5862448,20.1843821 M73.9227224,48.2880239 L73.9227224,48.2880239 C73.6762746,48.2880239 73.4398567,48.2593672 73.2206328,48.2020537 C69.2717373,47.1804418 59.6201552,44.4322627 55.3044537,40.9891582 C52.5734687,38.8098149 50.9572299,35.5859343 50.7509015,31.9135761 C50.537409,28.109397 51.9401552,24.3095164 54.5020657,21.7461731 C56.8949015,19.3533373 60.1216478,18.0351284 63.5862448,18.0351284 C67.4047522,18.0351284 70.9911403,19.6155463 73.6863045,22.4826507 C76.8700657,25.8713075 79.6812896,36.3610985 80.7415881,40.7140537 C80.9851701,41.7170388 80.6140657,43.0266507 79.8775881,43.7616955 L76.2783045,47.3609791 C75.7152,47.9240836 74.7910209,48.2880239 73.9227224,48.2880239" id="Fill-46" fill="#414042"></path>
                <path d="M69.9801313,26.1661851 C69.7637731,26.1661851 69.5459821,26.1017075 69.3568478,25.9655881 C66.4381612,23.8851104 62.7113552,23.2646925 59.3871761,24.3063642 C58.8169075,24.4811701 58.2179821,24.1673791 58.0403104,23.6028418 C57.8640716,23.0354388 58.1792955,22.4336478 58.7452657,22.2559761 C62.7099224,21.0165731 67.1416836,21.7487522 70.6048478,24.2175284 C71.0877134,24.561409 71.2009075,25.2319761 70.855594,25.7162746 C70.6464,26.010006 70.3154149,26.1661851 69.9801313,26.1661851" id="Fill-48" fill="#414042"></path>
                <path d="M61.7840239,28.0930627 C61.7840239,28.2678687 61.6407403,28.4111522 61.4659343,28.4111522 C61.2911284,28.4111522 61.1478448,28.2678687 61.1478448,28.0930627 C61.1478448,27.9182567 61.2911284,27.7749731 61.4659343,27.7749731 C61.6407403,27.7749731 61.7840239,27.9182567 61.7840239,28.0930627" id="Fill-50" fill="#414042"></path>
                <path d="M64.5152955,27.2395224 C64.5152955,27.5361194 64.2745791,27.775403 63.9779821,27.775403 C63.6828179,27.775403 63.4421015,27.5361194 63.4421015,27.2395224 C63.4421015,26.9429254 63.6828179,26.7036418 63.9779821,26.7036418 C64.2745791,26.7036418 64.5152955,26.9429254 64.5152955,27.2395224" id="Fill-52" fill="#414042"></path>
                <path d="M65.0518925,30.5935045 C65.0518925,30.7711761 64.9071761,30.9158925 64.7295045,30.9158925 C64.5532657,30.9158925 64.4071164,30.7711761 64.4071164,30.5935045 C64.4071164,30.4158328 64.5532657,30.2711164 64.7295045,30.2711164 C64.9071761,30.2711164 65.0518925,30.4158328 65.0518925,30.5935045" id="Fill-54" fill="#414042"></path>
                <path d="M67.1578746,30.1821373 C67.1578746,30.2752716 67.0819343,30.3512119 66.9888,30.3512119 C66.8956657,30.3512119 66.8197254,30.2752716 66.8197254,30.1821373 C66.8197254,30.0918687 66.8956657,30.0144955 66.9888,30.0144955 C67.0819343,30.0144955 67.1578746,30.0918687 67.1578746,30.1821373" id="Fill-56" fill="#414042"></path>
                <path d="M62.9768597,30.6466627 C62.9768597,30.7799164 62.8679642,30.8888119 62.7347104,30.8888119 C62.6014567,30.8888119 62.4911284,30.7799164 62.4911284,30.6466627 C62.4911284,30.513409 62.6014567,30.4059463 62.7347104,30.4059463 C62.8679642,30.4059463 62.9768597,30.513409 62.9768597,30.6466627" id="Fill-58" fill="#414042"></path>
                <path d="M63.6114627,29.1718448 C63.6114627,29.2649791 63.5355224,29.3409194 63.4423881,29.3409194 C63.3492537,29.3409194 63.2733134,29.2649791 63.2733134,29.1718448 C63.2733134,29.0815761 63.3492537,29.0056358 63.4423881,29.0056358 C63.5355224,29.0056358 63.6114627,29.0815761 63.6114627,29.1718448" id="Fill-60" fill="#414042"></path>
                <path d="M65.6018149,28.8864239 C65.6018149,29.0325731 65.4828896,29.1514985 65.3381731,29.1514985 C65.1920239,29.1514985 65.0730985,29.0325731 65.0730985,28.8864239 C65.0730985,28.7417075 65.1920239,28.6227821 65.3381731,28.6227821 C65.4828896,28.6227821 65.6018149,28.7417075 65.6018149,28.8864239" id="Fill-62" fill="#414042"></path>
            </g>
        </g>
    </g>
</svg>