<?xml version="1.0" encoding="UTF-8" standalone="no"?>
<svg width="97px" height="96px" viewBox="0 0 97 96" version="1.1" xmlns="http://www.w3.org/2000/svg" xmlns:xlink="http://www.w3.org/1999/xlink">
    <!-- Generator: sketchtool 41.2 (35397) - http://www.bohemiancoding.com/sketch -->
    <title>4483A0CF-3872-4282-ADDF-F95216E6EB83</title>
    <desc>Created with sketchtool.</desc>
    <defs>
        <polygon id="path-1" points="16.0407958 0.0908404233 0.389492632 0.0908404233 0.389492632 17.3270936 16.0407958 17.3270936 16.0407958 0.0908404233"></polygon>
        <polygon id="path-3" points="0 0.103111849 0 52.9060821 95.0739104 52.9060821 95.0739104 0.103111849 0 0.103111849"></polygon>
    </defs>
    <g id="BDA" stroke="none" stroke-width="1" fill="none" fill-rule="evenodd">
        <g id="Desktop" transform="translate(-423.000000, -22.000000)">
            <g id="Page-1" transform="translate(423.000000, 22.000000)">
                <path d="M49.84026,76.5404673 C49.84026,77.1086184 49.6986552,77.5524615 49.4154457,77.8711998 C49.1314407,78.1915319 48.7320834,78.350901 48.215783,78.350901 C47.7090289,78.350901 47.3144448,78.1915319 47.0304398,77.8711998 C46.7472303,77.5524615 46.6056255,77.1086184 46.6056255,76.5404673 C46.6056255,75.9723162 46.7472303,75.5284731 47.0304398,75.2097348 C47.3144448,74.8901996 47.7090289,74.7308305 48.215783,74.7308305 C48.7320834,74.7308305 49.1314407,74.8901996 49.4154457,75.2097348 C49.6986552,75.5284731 49.84026,75.9723162 49.84026,76.5404673 L49.84026,76.5404673 Z M53.0597794,76.5404673 C53.0597794,75.1204881 52.61985,74.0001228 51.7391957,73.1785748 C50.8481995,72.3673858 49.6731982,71.9617912 48.215783,71.9617912 C46.7679141,71.9617912 45.597686,72.3673858 44.7066898,73.1785748 C43.8260355,74.0001228 43.3853106,75.1204881 43.3853106,76.5404673 C43.3853106,77.9500876 43.8260355,79.0656717 44.7066898,79.8872198 C45.5777977,80.6992056 46.7472303,81.1048002 48.215783,81.1048002 C49.693882,81.1048002 50.8680878,80.6992056 51.7391957,79.8872198 C52.61985,79.0656717 53.0597794,77.9500876 53.0597794,76.5404673 L53.0597794,76.5404673 Z M42.6717181,78.1987035 C42.6924019,78.0560681 42.6597851,77.9349475 42.5730721,77.8337481 C42.4871546,77.7325487 42.3733935,77.6815505 42.2317887,77.6815505 C42.1601908,77.6815505 42.1045035,77.6887221 42.0647269,77.7046591 C42.0241548,77.7190023 41.9788094,77.7421108 41.9278954,77.772391 L41.9581256,77.772391 C41.8976651,77.7931089 41.8141342,77.8233891 41.7075329,77.8640282 C41.6009316,77.9046674 41.4672821,77.9556655 41.3049936,78.0162258 C40.8897257,78.1787823 40.5102567,78.2592637 40.1657912,78.2592637 C39.5381162,78.2592637 39.077503,78.1277842 38.7839516,77.8640282 C38.4904001,77.6002723 38.3432267,77.1890998 38.3432267,76.6321046 C38.3432267,76.0033932 38.4800582,75.5109425 38.7529258,75.1563461 C39.0265889,74.8009529 39.4068534,74.6240531 39.8929237,74.6240531 C40.2875077,74.6240531 40.6876605,74.7053314 41.0917909,74.8670911 C41.3256774,74.9587284 41.5174007,75.0392098 41.6693474,75.1109259 C41.821294,75.1810484 41.9374418,75.2471866 42.0185861,75.3085437 C42.190421,75.4201021 42.3527096,75.4272737 42.5046563,75.3308554 C42.656603,75.234437 42.7226322,75.08463 42.7019483,74.8822312 L42.5046563,72.8741797 C42.5046563,72.8136194 42.4744261,72.7419033 42.4139656,72.6614219 C42.3527096,72.5801436 42.2970224,72.5291455 42.2469038,72.5092243 C41.9835826,72.3873069 41.6518456,72.2653895 41.2516929,72.1442689 C40.8515401,72.0223515 40.3376262,71.9617912 39.7099512,71.9617912 C38.3026545,71.9617912 37.184136,72.3825258 36.3536003,73.223995 C35.9383324,73.6503075 35.6272793,74.1443519 35.4204409,74.7069251 C35.2120114,75.2702951 35.1085922,75.916537 35.1085922,76.6464478 C35.1085922,78.0058668 35.5182913,79.0911708 36.3384852,79.9023598 C37.1690209,80.7039867 38.2573092,81.1048002 39.6041454,81.1048002 C40.1299923,81.1048002 40.6518615,81.038662 41.168162,80.9063856 C41.6948044,80.764547 42.028928,80.6529886 42.1705327,80.5717103 C42.2111049,80.5517892 42.2596324,80.5039784 42.3153196,80.4274812 C42.3702113,80.350984 42.3988505,80.2880332 42.3988505,80.2370351 L42.6717181,78.1987035 Z M33.984505,80.9223225 C34.1062214,80.9223225 34.2120272,80.878496 34.3035135,80.7924366 C34.3942041,80.7063773 34.440345,80.5972094 34.440345,80.4657298 L34.440345,75.2471866 C34.440345,74.1826005 34.1945255,73.3714115 33.7036821,72.8136194 C33.2128386,72.2558274 32.4658338,71.9761345 31.463463,71.9761345 C30.9065904,71.9761345 30.3719926,72.0629907 29.8612609,72.2359062 C29.3497336,72.4072281 28.8819606,72.645485 28.4563508,72.9506769 L28.1071121,72.3721668 C28.0665399,72.3219656 28.0060795,72.2757485 27.9249352,72.2359062 C27.8437909,72.1944702 27.7777617,72.1745491 27.7276432,72.1745491 L25.8748484,72.1745491 C25.7531319,72.1745491 25.6489172,72.2175788 25.5629997,72.3044349 C25.4770822,72.3904943 25.4333279,72.4932874 25.4333279,72.6152048 L25.4333279,80.4657298 C25.4333279,80.5972094 25.4770822,80.7063773 25.5629997,80.7924366 C25.6489172,80.878496 25.7531319,80.9223225 25.8748484,80.9223225 L28.4714659,80.9223225 C28.5931823,80.9223225 28.6989881,80.878496 28.7904744,80.7924366 C28.8819606,80.7063773 28.9265104,80.5972094 28.9265104,80.4657298 L28.9265104,75.2471866 C28.9877664,75.2065474 29.0585688,75.1682988 29.1397131,75.1332376 C29.2208574,75.0981764 29.3171168,75.0543499 29.4284913,75.0041486 L29.4133762,75.0041486 C29.5852112,74.9228703 29.752273,74.86231 29.9145616,74.8216709 C30.0760546,74.7810317 30.2431164,74.7611106 30.4157469,74.7611106 C30.5875819,74.7611106 30.7164582,74.851951 30.8031712,75.0344287 C30.8890887,75.2169064 30.9312519,75.4551633 30.9312519,75.7491994 L30.9312519,80.4657298 C30.9312519,80.5972094 30.9773928,80.7063773 31.068879,80.7924366 C31.1595697,80.878496 31.266171,80.9223225 31.3870919,80.9223225 L33.984505,80.9223225 Z M20.3761288,78.5333787 C20.0420053,78.6656551 19.6776515,78.7317933 19.2830674,78.7317933 C18.7659714,78.7317933 18.5082189,78.604298 18.5082189,78.350901 C18.5082189,77.8536692 19.2830674,77.6050533 20.8319689,77.6050533 L20.8773142,77.6050533 L20.8773142,78.319824 C20.8065118,78.350901 20.7309363,78.3835717 20.649792,78.4194298 C20.5686477,78.454491 20.477957,78.4927396 20.3761288,78.5333787 L20.3761288,78.5333787 Z M21.7738792,80.6322706 C22.138233,80.9366657 22.5837311,81.0888632 23.1103735,81.0888632 L24.7197354,79.7501623 C24.8112216,79.679243 24.8669089,79.5979647 24.8867972,79.5071243 C24.907481,79.415487 24.9019123,79.3294277 24.8716821,79.2481494 C24.8414518,79.1668711 24.7881512,79.0983424 24.7125756,79.04336 C24.6362045,78.986784 24.5431272,78.9596912 24.4317527,78.9596912 C24.4317527,78.9596912 24.3959537,78.9341922 24.3251514,78.883194 C24.254349,78.8226337 24.21855,78.7915568 24.21855,78.7915568 L24.21855,75.6734991 C24.21855,75.0041486 24.1326325,74.433607 23.9607975,73.9618742 C23.788167,73.4901415 23.5248458,73.1076555 23.1708339,72.8136194 C22.8168221,72.5195833 22.3657552,72.3044349 21.8192245,72.1673775 C21.2726938,72.03032 20.6243349,71.9617912 19.8749435,71.9617912 C19.4095571,71.9617912 18.9688321,72.0024304 18.5535643,72.0829118 C18.1382964,72.1641901 17.7381436,72.2757485 17.3539015,72.4183839 C16.9696594,72.5705814 16.6578107,72.7092326 16.4199465,72.836728 C16.1820824,72.9626296 16.0070652,73.0765785 15.8964863,73.1785748 C15.8455722,73.2287761 15.8073866,73.3052733 15.7819296,73.4064727 C15.7564726,73.508469 15.7596547,73.5993094 15.7898849,73.6805877 L16.3666459,75.0041486 C16.4175599,75.1252691 16.505864,75.2097348 16.6323537,75.255155 C16.7596388,75.3005752 16.8781732,75.2934036 16.9895477,75.2320465 C17.1613827,75.1507682 17.3435596,75.0702868 17.5368739,74.9890085 C17.7285972,74.9077302 17.9410044,74.8216709 18.1740953,74.7308305 C18.4270746,74.6288342 18.6752807,74.5579149 18.9187136,74.5172758 C19.161351,74.4766366 19.4143302,74.4567155 19.6776515,74.4567155 C20.0324589,74.4567155 20.3100997,74.5324159 20.5129604,74.6846134 C20.7158211,74.836811 20.821627,75.0702868 20.8319689,75.384244 L19.555935,75.3236838 C18.9187136,75.2934036 18.3387705,75.3515734 17.8176968,75.498193 C17.2958276,75.6456095 16.8272591,75.8559768 16.4119912,76.1292949 C15.5719091,76.7078049 15.151868,77.4480747 15.151868,78.350901 C15.151868,79.1923702 15.4279177,79.8617207 15.9792216,80.3589525 C16.5313211,80.8561843 17.3340132,81.1048002 18.3865025,81.1048002 C18.9234868,81.1048002 19.4501292,81.028303 19.9664297,80.8761054 C20.4827302,80.7239079 20.9688004,80.5310712 21.4238449,80.2983922 C21.474759,80.3589525 21.5280597,80.4147317 21.5837469,80.4657298 C21.6394342,80.5159311 21.7030768,80.5717103 21.7738792,80.6322706 L21.7738792,80.6322706 Z M8.60622792,71.7179564 C9.00081196,71.7179564 9.31186511,71.8143748 9.54018289,72.0072115 C9.76770513,72.1992513 9.88146626,72.427946 9.88146626,72.691702 C9.88146626,72.9251778 9.76293194,73.1379357 9.52506777,73.3307724 C9.28640807,73.523609 8.97535493,73.6200274 8.59111281,73.6200274 L7.66431764,73.6200274 L7.66431764,71.7179564 L8.60622792,71.7179564 Z M8.75737907,75.9316771 C9.18298887,75.9316771 9.52745437,76.0360639 9.79077557,76.2432438 C10.0540968,76.4520174 10.1853596,76.733304 10.1853596,77.0879004 C10.1853596,77.4225756 10.0461415,77.6911127 9.76770513,77.8943084 C9.48926882,78.097504 9.13764352,78.1987035 8.71203372,78.1987035 L7.66431764,78.1987035 L7.66431764,75.9316771 L8.75737907,75.9316771 Z M10.2919609,80.9223225 C11.4765086,80.9223225 12.4383072,80.6227084 13.1773567,80.0242772 C13.9569784,79.3852069 14.3467893,78.5540967 14.3467893,77.529353 C14.3467893,76.6066055 14.09381,75.8511957 13.5878514,75.2623266 C13.3141883,74.9483694 12.9140355,74.6846134 12.3873931,74.4718556 C12.9036936,74.2073028 13.2839581,73.8630654 13.5265954,73.4367529 C13.7700283,73.0112372 13.8917448,72.5195833 13.8917448,71.9617912 C13.8917448,71.5051986 13.7970764,71.1019946 13.6101263,70.7521793 C13.4231762,70.402364 13.1518997,70.0852193 12.7978878,69.8015422 C12.4534223,69.5377863 12.0659981,69.3369811 11.6356151,69.2007205 C11.2052321,69.063663 10.7271171,68.9951343 10.2004747,68.9951343 L4.06453381,68.9951343 C3.9436129,68.9951343 3.83701157,69.0405545 3.74632088,69.1321917 C3.65483466,69.2230322 3.60948932,69.3298095 3.60948932,69.4517269 L3.60948932,80.4657298 C3.60948932,80.5876472 3.65483466,80.6936277 3.74632088,80.7844681 C3.83701157,80.8761054 3.9436129,80.9223225 4.06453381,80.9223225 L10.2919609,80.9223225 Z" id="Fill-1" fill="#00693F"></path>
                <path d="M11.6656066,85.618613 C11.7419777,85.4592438 11.8597165,85.3795592 12.018823,85.3795592 C12.1365618,85.3795592 12.2344123,85.4369321 12.3115789,85.5524748 C12.38795,85.6680174 12.4380685,85.8281834 12.461139,86.0353634 L11.5415036,86.0353634 C11.5653696,85.8696194 11.6067372,85.7309683 11.6656066,85.618613 L11.6656066,85.618613 Z M14.3449595,88.4888516 L14.0179957,87.6561477 C13.9877655,87.5916032 13.939238,87.5437925 13.8716178,87.5143092 C13.8039975,87.4848259 13.7371728,87.4848259 13.6727347,87.5143092 C13.6488687,87.5262619 13.6075011,87.5406051 13.5486317,87.5589326 C13.4897623,87.5764632 13.4070269,87.5995717 13.3012211,87.629055 C13.1071112,87.6824437 12.9034549,87.7087396 12.6918433,87.7087396 C12.2606648,87.7087396 11.957567,87.6202897 11.7801633,87.4433899 C11.7212939,87.3900012 11.6679932,87.313504 11.6210568,87.2131015 L14.1413033,87.2131015 C14.2121056,87.2131015 14.2725661,87.1868056 14.3226846,87.1334169 C14.3728032,87.0800282 14.3982602,87.0186711 14.3982602,86.946955 L14.3982602,86.5572974 C14.3982602,85.7779822 14.1850575,85.1492708 13.7610388,84.6711633 C13.3187228,84.1747284 12.7419619,83.9269093 12.0283694,83.9269093 C11.3147769,83.9269093 10.7252874,84.1723378 10.2591055,84.662398 C9.79371904,85.1468803 9.56062807,85.7604515 9.56062807,86.5039087 C9.56062807,87.3668927 9.81997161,88.0402274 10.3386587,88.5239128 C10.8573458,89.0083951 11.5502544,89.2506362 12.4165892,89.2506362 C12.5884241,89.2506362 12.7594636,89.2402772 12.9297075,89.2195592 C13.100747,89.1988413 13.2662177,89.169358 13.4253242,89.1303125 C13.5844306,89.0920639 13.7331952,89.0466437 13.8716178,88.993255 C14.0100404,88.9398664 14.1325524,88.8785092 14.2383582,88.80759 L14.3449595,88.4888516 Z M6.81047278,87.5852285 C6.61636289,87.7087396 6.43975471,87.7708935 6.28064824,87.7708935 C6.01494044,87.7708935 5.81048863,87.6696941 5.66570175,87.4657016 C5.52171039,87.2617091 5.44931695,86.982813 5.44931695,86.6290135 C5.44931695,86.2210284 5.53205231,85.9006964 5.69672751,85.6680174 C5.86219823,85.4345416 6.10324453,85.3182021 6.42145747,85.3182021 C6.6044299,85.3182021 6.76035424,85.3588413 6.89082155,85.4417132 C6.93775795,85.4656186 6.9807167,85.4871334 7.01890225,85.5078514 C7.0570878,85.5293663 7.09129569,85.5453032 7.12073039,85.5572559 L7.12073039,87.3812359 C7.09129569,87.4051413 7.05151908,87.4330309 7.00140054,87.4657016 C6.951282,87.4975754 6.88763942,87.5382146 6.81047278,87.5852285 L6.81047278,87.5852285 Z M7.85421121,89.0028172 C7.87171292,89.0378784 7.90432974,89.0705491 7.95206168,89.1000324 C7.99899809,89.1295157 8.0459345,89.1438589 8.09287091,89.1438589 L8.90670049,89.1438589 C8.97750286,89.1438589 9.03875885,89.117563 9.09285505,89.0641743 C9.14536019,89.0107856 9.17161275,88.9494285 9.17161275,88.8785092 L9.17161275,82.4567288 C9.17161275,82.3858095 9.14536019,82.3236555 9.09285505,82.2710637 C9.03875885,82.217675 8.97750286,82.1913791 8.90670049,82.1913791 L7.38564266,82.1913791 C7.30847602,82.1913791 7.24562897,82.217675 7.19551043,82.2710637 C7.14539189,82.3236555 7.12073039,82.3858095 7.12073039,82.4567288 L7.12073039,84.1484325 C7.06742972,84.1189492 7.01412906,84.0934501 6.96082839,84.0735289 C6.90832326,84.052811 6.85184046,84.0273119 6.79297107,83.9978286 C6.48112239,83.8623648 6.16529605,83.7946329 5.84708312,83.7946329 C5.11042018,83.7946329 4.52968157,84.0480299 4.10566284,84.5564175 C3.69835028,85.0456808 3.494694,85.701485 3.494694,86.5222361 C3.494694,87.3429873 3.70391901,87.9979946 4.12316455,88.4888516 C4.55911627,88.9964424 5.13667274,89.2506362 5.85583398,89.2506362 C6.36895233,89.2506362 6.78422021,89.1438589 7.10243315,88.9318979 C7.1971015,88.8665565 7.28540558,88.8028089 7.36814095,88.7406549 C7.45087631,88.6785009 7.53281614,88.6155501 7.6155515,88.5502088 L7.85421121,89.0028172 Z" id="Fill-3" fill="#00693F"></path>
                <path d="M94.1387622,92.5244773 C94.1387622,91.8599079 93.936697,91.3124748 93.5349531,90.8845686 C93.1332093,90.4566624 92.5691769,90.1068471 91.8452424,89.8351226 C91.2223406,89.6032405 90.7768425,89.419966 90.5103392,89.2829085 C90.2438358,89.1474447 90.1109819,89.0087935 90.1109819,88.8677518 C90.1109819,88.7976294 90.1555318,88.7346786 90.2462224,88.6788994 C90.3369131,88.6231201 90.457834,88.5960274 90.6089852,88.5960274 C91.010729,88.5960274 91.4339522,88.706789 91.8754727,88.9283121 C92.1069726,89.0390737 92.2907406,89.1323046 92.425981,89.208005 C92.5620171,89.2829085 92.6503212,89.3315161 92.6908933,89.3514372 C92.8412489,89.4621988 92.9916045,89.4797294 93.1427557,89.4040291 C93.2939068,89.3283287 93.3686869,89.1896775 93.3686869,88.9888724 L93.3686869,87.2055314 C93.3686869,87.12505 93.3440254,87.0397875 93.2939068,86.9489471 C93.2437883,86.8581067 93.1825323,86.8031243 93.1125255,86.7824063 C92.9717162,86.721846 92.80545,86.6596921 92.6145222,86.5935538 C92.4235945,86.5282125 92.215165,86.4700427 91.9884383,86.4198415 C91.7625071,86.3696402 91.526234,86.3274073 91.279619,86.2915493 C91.0337995,86.2564881 90.789571,86.2381606 90.5485247,86.2381606 C90.0354064,86.2381606 89.5628602,86.2971272 89.1300906,86.4126698 C88.6981165,86.5282125 88.3210342,86.7019249 87.9988436,86.933807 C87.6265345,87.1959693 87.3552579,87.507536 87.1842185,87.8708977 C87.0123835,88.2334625 86.9280571,88.6565877 86.9280571,89.1394762 C86.9280571,90.0861291 87.2645672,90.7769944 87.9383831,91.2096817 C88.5413966,91.5929645 89.0346267,91.8439709 89.4164822,91.9650915 L89.4164822,91.9499514 C89.8890284,92.1212733 90.2637242,92.262315 90.5405694,92.3738734 C90.8174147,92.484635 90.9550418,92.6049587 90.9550418,92.7364383 C90.9550418,92.8169197 90.90015,92.8742926 90.789571,92.9093538 C90.678992,92.9452119 90.5278409,92.9627425 90.3369131,92.9627425 C89.743446,92.9627425 89.1658895,92.8519809 88.6026526,92.6296609 C88.3003504,92.5196962 88.0545309,92.4256684 87.8628076,92.3507649 C87.6718798,92.2750645 87.5310706,92.2168948 87.4403799,92.1770525 C87.2693404,92.0965711 87.1213714,92.1061332 86.9956773,92.2073326 C86.8699832,92.3085321 86.8174781,92.4487769 86.8373664,92.6296609 L87.0330673,94.4887022 C87.0434093,94.5691836 87.0784127,94.644884 87.1388731,94.7158033 C87.1985381,94.7859257 87.2645672,94.8313459 87.3353696,94.8512671 C87.787232,95.0026678 88.2828486,95.120601 88.8206285,95.2066603 C89.3584084,95.2919228 89.9343738,95.3349525 90.5485247,95.3349525 C91.674203,95.3349525 92.5548573,95.0935082 93.188101,94.6098228 C93.8221403,94.1261374 94.1387622,93.4312878 94.1387622,92.5244773 L94.1387622,92.5244773 Z M82.9599418,90.7865565 C82.9599418,91.3507234 82.8191326,91.792176 82.5375141,92.1093206 C82.2566912,92.4256684 81.858925,92.5850376 81.3458067,92.5850376 C80.8430302,92.5850376 80.4508328,92.4256684 80.1692143,92.1093206 C79.8875959,91.792176 79.7467867,91.3507234 79.7467867,90.7865565 C79.7467867,90.2223897 79.8875959,89.781734 80.1692143,89.4645893 C80.4508328,89.1474447 80.8430302,88.9888724 81.3458067,88.9888724 C81.858925,88.9888724 82.2566912,89.1474447 82.5375141,89.4645893 C82.8191326,89.781734 82.9599418,90.2223897 82.9599418,90.7865565 L82.9599418,90.7865565 Z M86.1579818,90.7865565 C86.1579818,89.3761394 85.7212345,88.2637427 84.8453534,87.4477726 C83.961517,86.6413646 82.7944711,86.2381606 81.3458067,86.2381606 C79.9082797,86.2381606 78.7468025,86.6413646 77.861375,87.4477726 C76.9862895,88.2637427 76.5487467,89.3761394 76.5487467,90.7865565 C76.5487467,92.1866147 76.9862895,93.2950272 77.861375,94.1109973 C78.7261187,94.9166084 79.8875959,95.3198124 81.3458067,95.3198124 C82.8143594,95.3198124 83.9814053,94.9166084 84.8453534,94.1109973 C85.7212345,93.2950272 86.1579818,92.1866147 86.1579818,90.7865565 L86.1579818,90.7865565 Z M74.0754366,92.1770525 L74.0754366,88.9729355 L75.7643518,88.9729355 C75.8852727,88.9729355 75.9878964,88.9283121 76.0738139,88.8374717 C76.1589358,88.7474281 76.2018946,88.6366665 76.2018946,88.505187 L76.2018946,86.8883868 C76.2018946,86.7577041 76.1589358,86.6485362 76.0738139,86.5640706 C75.9878964,86.4780112 75.8852727,86.4349815 75.7643518,86.4349815 L74.0754366,86.4349815 L74.0897562,84.1233318 C74.0897562,83.9822901 74.0396377,83.8635601 73.9386051,83.7679386 C73.8391635,83.6723171 73.7182426,83.6396464 73.5766379,83.6699265 L71.0579825,84.1081917 C70.9569499,84.1185507 70.8694413,84.168752 70.7938658,84.2587956 C70.7190857,84.349636 70.6809002,84.4508354 70.6809002,84.561597 L70.6809002,86.4349815 L69.4589625,86.4349815 C69.3483835,86.4349815 69.2481464,86.4780112 69.1574557,86.5640706 C69.0667651,86.6485362 69.0214197,86.7577041 69.0214197,86.8883868 L69.0214197,88.505187 C69.0214197,88.6366665 69.0667651,88.7474281 69.1574557,88.8374717 C69.2481464,88.9283121 69.3483835,88.9729355 69.4589625,88.9729355 L70.6809002,88.9729355 L70.6809002,92.8264818 C70.6809002,93.8034148 70.9243331,94.4990612 71.4119944,94.9118274 C71.8996557,95.3253903 72.681664,95.5309766 73.7580192,95.5309766 C73.9592889,95.5309766 74.1605586,95.5158365 74.3618283,95.4855563 C74.5623024,95.456073 74.7794828,95.4154339 75.0101871,95.3652326 C75.2217987,95.3142345 75.4047712,95.2696111 75.5606955,95.2297688 C75.7166199,95.1891297 75.8447006,95.1437095 75.9457332,95.0935082 C76.01574,95.0735871 76.0762005,95.0201984 76.126319,94.934139 C76.1764375,94.8488765 76.2018946,94.7660046 76.2018946,94.6855231 L76.2018946,92.887839 C76.2018946,92.7157203 76.1390475,92.5850376 76.0133534,92.4941971 C75.8876593,92.4033567 75.7492367,92.3929977 75.5980855,92.463917 C75.4875065,92.5141183 75.3323777,92.5746786 75.1303125,92.6455978 C74.9298384,92.7157203 74.7039072,92.7515783 74.452519,92.7515783 C74.3411444,92.7515783 74.2504538,92.7029707 74.1812424,92.6073492 C74.1104401,92.5117277 74.0754366,92.3682955 74.0754366,92.1770525 L74.0754366,92.1770525 Z M68.3126004,95.1381316 C68.4335213,95.1381316 68.5385316,95.0958987 68.6292223,95.0098394 C68.719913,94.9245769 68.7652583,94.815409 68.7652583,94.6855231 L68.7652583,89.5028379 C68.7652583,88.4446267 68.5210299,87.6390156 68.0333685,87.0852077 C67.5457072,86.5313999 66.8034756,86.2540975 65.8082646,86.2540975 C65.2553696,86.2540975 64.7247496,86.33936 64.2164044,86.5106819 C63.7096503,86.6820037 63.2442639,86.9186669 62.8218362,87.2206715 L62.4749841,86.6469425 C62.4336164,86.5959444 62.3739515,86.5505242 62.2936027,86.5106819 C62.213254,86.4700427 62.1480203,86.4501216 62.0971063,86.4501216 L60.25704,86.4501216 C60.136119,86.4501216 60.0334954,86.4931513 59.9475779,86.5784138 C59.8624559,86.6644731 59.8194972,86.7672662 59.8194972,86.8883868 L59.8194972,94.6855231 C59.8194972,94.815409 59.8624559,94.9245769 59.9475779,95.0098394 C60.0334954,95.0958987 60.136119,95.1381316 60.25704,95.1381316 L62.8361558,95.1381316 C62.9578722,95.1381316 63.0628825,95.0958987 63.1535732,95.0098394 C63.2442639,94.9245769 63.2896092,94.815409 63.2896092,94.6855231 L63.2896092,89.5028379 C63.3492741,89.4621988 63.419281,89.4239502 63.5004253,89.388889 C63.5807741,89.3538278 63.6762379,89.3107981 63.7868169,89.2605968 L63.7724974,89.2605968 C63.9427413,89.1801154 64.1090075,89.1195551 64.2697051,89.0797128 C64.4304026,89.0390737 64.5958733,89.0191525 64.7677083,89.0191525 C64.9379522,89.0191525 65.0668285,89.1099929 65.1519504,89.2908769 C65.2378679,89.4717609 65.2808267,89.7084242 65.2808267,90.0008666 L65.2808267,94.6855231 C65.2808267,94.815409 65.3253765,94.9245769 65.4160672,95.0098394 C65.5067578,95.0958987 65.6125636,95.1381316 65.732689,95.1381316 L68.3126004,95.1381316 Z M54.4949992,89.125133 C54.6254665,88.8526117 54.8259407,88.7163511 55.0980128,88.7163511 C55.2984869,88.7163511 55.4655487,88.81516 55.5952205,89.0111841 C55.7264833,89.208005 55.8124008,89.4821199 55.8521774,89.8351226 L54.2833876,89.8351226 C54.3231643,89.5530392 54.3939666,89.316376 54.4949992,89.125133 L54.4949992,89.125133 Z M59.0653325,94.0201569 L58.5076643,92.6001776 C58.4567503,92.4894161 58.3740149,92.4081378 58.2578672,92.3587333 C58.142515,92.3085321 58.0287539,92.3085321 57.9189704,92.3587333 C57.8783983,92.3786545 57.8083914,92.4033567 57.7081544,92.4344337 C57.6071217,92.463917 57.4663125,92.5045561 57.2849311,92.5547574 C56.9531942,92.6455978 56.6063421,92.6902212 56.2435793,92.6902212 C55.509303,92.6902212 54.992207,92.5396173 54.6907002,92.2376128 C54.5896676,92.1467724 54.4997724,92.0160896 54.4186281,91.8439709 L58.7176849,91.8439709 C58.8394013,91.8439709 58.942025,91.7985507 59.0279425,91.7085072 C59.1130645,91.6176667 59.1560232,91.5116862 59.1560232,91.3913625 L59.1560232,90.7267931 C59.1560232,89.3968574 58.794056,88.324303 58.069326,87.507536 C57.3151614,86.6620826 56.3294968,86.2381606 55.1123323,86.2381606 C53.8959634,86.2381606 52.8904105,86.6565047 52.0956737,87.4931928 C51.3017324,88.318725 50.9039663,89.3665773 50.9039663,90.6351558 C50.9039663,92.1061332 51.3470778,93.2551849 52.2317097,94.0807172 C53.1163417,94.9070463 54.2977072,95.3198124 55.7766018,95.3198124 C56.0685622,95.3198124 56.359727,95.3022818 56.6516874,95.2664237 C56.9436478,95.2313625 57.2252662,95.1811612 57.4965427,95.1158199 C57.7678193,95.0504785 58.0223896,94.9723876 58.2578672,94.8815472 C58.4941403,94.7907068 58.7033653,94.6855231 58.8847467,94.5644026 L59.0653325,94.0201569 Z M49.7727193,95.1381316 C49.9031866,95.1381316 50.0137656,95.0958987 50.1044563,95.0098394 C50.195147,94.9245769 50.2404923,94.815409 50.2404923,94.6855231 L50.2404923,89.5028379 C50.2404923,87.337011 49.2198243,86.2540975 47.1784883,86.2540975 C46.7958373,86.2540975 46.4259148,86.2995177 46.0695163,86.3895613 C45.7123222,86.4804017 45.3575148,86.6118813 45.0058895,86.7824063 C44.8149618,86.8828089 44.6415357,86.9768367 44.4848159,87.062896 C44.329687,87.1473617 44.1809225,87.2310305 44.0401133,87.3115119 C43.8292972,86.9991484 43.5349502,86.7449546 43.1578679,86.5481336 C42.7807856,86.3521096 42.3408562,86.2540975 41.8380798,86.2540975 C41.2652965,86.2540975 40.7267211,86.33936 40.2239447,86.5106819 C39.7211682,86.6820037 39.2533952,86.9186669 38.8206256,87.2206715 L38.4586584,86.6469425 C38.4180863,86.5959444 38.3552392,86.5505242 38.2701172,86.5106819 C38.1849953,86.4700427 38.1118063,86.4501216 38.0513458,86.4501216 L36.1508191,86.4501216 C36.0195563,86.4501216 35.9097728,86.4931513 35.8182866,86.5784138 C35.7283914,86.6644731 35.6830461,86.7672662 35.6830461,86.8883868 L35.6830461,94.6855231 C35.6830461,94.815409 35.7283914,94.9245769 35.8182866,95.0098394 C35.9097728,95.0958987 36.0195563,95.1381316 36.1508191,95.1381316 L38.8357407,95.1381316 C38.966208,95.1381316 39.0775826,95.0958987 39.1674777,95.0098394 C39.2581684,94.9245769 39.3035137,94.815409 39.3035137,94.6855231 L39.3035137,89.5028379 C39.3536323,89.4621988 39.4196615,89.4215597 39.4992147,89.3817174 C39.580359,89.3410782 39.6758229,89.295658 39.7864019,89.2454567 L39.7712868,89.2454567 C40.1030237,89.094056 40.4244188,89.0191525 40.737063,89.0191525 C40.8770767,89.0191525 40.9828825,89.1099929 41.0536849,89.2908769 C41.1236917,89.4717609 41.1586952,89.7084242 41.1586952,90.0008666 L41.1586952,94.6855231 C41.1586952,94.815409 41.2040405,94.9245769 41.2947312,95.0098394 C41.3854219,95.0958987 41.4960009,95.1381316 41.6264682,95.1381316 L44.3121853,95.1381316 C44.4426526,95.1381316 44.5532316,95.0958987 44.6439223,95.0098394 C44.7338175,94.9245769 44.7799583,94.815409 44.7799583,94.6855231 L44.7799583,89.486901 C44.8300769,89.4574177 44.8976971,89.4239502 44.9828191,89.388889 C45.0687366,89.3538278 45.1665871,89.3107981 45.2779616,89.2605968 C45.4386591,89.1801154 45.5937879,89.1195551 45.7449391,89.0797128 C45.8960902,89.0390737 46.0464458,89.0191525 46.197597,89.0191525 C46.3384062,89.0191525 46.444212,89.1099929 46.5142188,89.2908769 C46.5850212,89.4717609 46.6200246,89.7084242 46.6200246,90.0008666 L46.6200246,94.6855231 C46.6200246,94.815409 46.66537,94.9245769 46.7552651,95.0098394 C46.8459558,95.0958987 46.9565348,95.1381316 47.0870021,95.1381316 L49.7727193,95.1381316 Z M31.9718877,84.2739357 C31.9718877,84.7177788 32.100764,85.0675941 32.3569254,85.3241785 C32.6138823,85.5815597 32.963121,85.7098518 33.405437,85.7098518 C33.8580949,85.7098518 34.2097202,85.5815597 34.4611084,85.3241785 C34.7124966,85.0675941 34.8381907,84.7177788 34.8381907,84.2739357 C34.8381907,83.8308894 34.7124966,83.4810741 34.4611084,83.2244897 C34.2097202,82.9671085 33.8580949,82.8388164 33.405437,82.8388164 C32.963121,82.8388164 32.6138823,82.9671085 32.3569254,83.2244897 C32.100764,83.4810741 31.9718877,83.8308894 31.9718877,84.2739357 L31.9718877,84.2739357 Z M34.6273747,95.1381316 C34.7276117,95.1381316 34.8135292,95.0935082 34.8835361,95.0026678 C34.9543385,94.9118274 34.9893419,94.8058469 34.9893419,94.6855231 L34.9893419,86.6764258 C34.9893419,86.6166624 34.9638848,86.5584926 34.9137663,86.5027134 C34.8636478,86.4477311 34.8031873,86.3999203 34.7323849,86.3592812 C34.6623781,86.3194389 34.5891891,86.2867682 34.5136135,86.2612691 C34.4388335,86.2357701 34.3751909,86.2238174 34.3250724,86.2238174 L32.1986144,86.2238174 C32.0880355,86.2238174 31.9973448,86.2684408 31.9265424,86.3592812 C31.8565355,86.4501216 31.8215321,86.5561021 31.8215321,86.6764258 L31.8215321,94.6855231 C31.8215321,94.8058469 31.8565355,94.9118274 31.9265424,95.0026678 C31.9973448,95.0935082 32.0880355,95.1381316 32.1986144,95.1381316 L34.6273747,95.1381316 Z M28.1254889,83.2922216 C28.0149099,83.2922216 27.9242192,83.3376418 27.8542124,83.4284823 C27.78341,83.5185258 27.7484066,83.6245063 27.7484066,83.74483 L27.7484066,94.6855231 C27.7484066,94.8058469 27.78341,94.9118274 27.8542124,95.0026678 C27.9242192,95.0935082 28.0149099,95.1381316 28.1254889,95.1381316 L30.5542491,95.1381316 C30.6544862,95.1381316 30.7404037,95.0935082 30.8112061,95.0026678 C30.8812129,94.9118274 30.9162163,94.8058469 30.9162163,94.6855231 L30.9162163,83.74483 C30.9162163,83.6245063 30.8812129,83.5185258 30.8112061,83.4284823 C30.7404037,83.3376418 30.6544862,83.2922216 30.5542491,83.2922216 L28.1254889,83.2922216 Z M19.5870403,88.112342 L20.945014,90.7419332 L18.1391715,90.7419332 L19.5870403,88.112342 Z M27.0244721,95.1381316 C27.2257418,95.1381316 27.366551,95.0703997 27.4468998,94.934139 C27.5272486,94.7986752 27.5272486,94.644884 27.4468998,94.4735621 L21.608488,83.548806 C21.5679158,83.4786835 21.5082509,83.4181233 21.4279021,83.3671251 C21.3475534,83.3169238 21.2719778,83.2922216 21.2011754,83.2922216 L18.5313689,83.2922216 C18.4709084,83.2922216 18.3953329,83.3169238 18.3054377,83.3671251 C18.214747,83.4181233 18.1542866,83.4739025 18.1240564,83.5336659 L11.9236773,94.4584221 C11.8234402,94.6297439 11.8178715,94.7859257 11.9085622,94.9269674 C12.0000484,95.0680091 12.1448353,95.1381316 12.3469005,95.1381316 L15.4685694,95.1381316 C15.5489182,95.1381316 15.6300625,95.1134293 15.7104112,95.0632281 C15.79076,95.0122299 15.8512205,94.9524665 15.8917926,94.8815472 L16.6602769,93.4010077 L22.3181028,93.4010077 L23.0873826,94.8815472 C23.1176128,94.9524665 23.1748912,95.0122299 23.2608086,95.0632281 C23.3459306,95.1134293 23.4238928,95.1381316 23.4946952,95.1381316 L27.0244721,95.1381316 Z" id="Fill-5" fill="#00693F"></path>
                <path d="M14.681072,65.2204756 C14.681072,64.872254 14.8035839,64.5925611 15.0478124,64.3798033 C15.3031782,64.1670454 15.6396884,64.0602681 16.0573429,64.0602681 C16.1917879,64.0602681 16.3254373,64.0674397 16.4582912,64.0809861 C16.5911451,64.0953293 16.7232035,64.1152505 16.8544663,64.1399527 C17.1233562,64.1933414 17.3540606,64.2483237 17.5449884,64.3048998 C17.6054488,64.3232272 17.6571584,64.3128682 17.6993216,64.2754165 C17.7422804,64.2387616 17.7597821,64.190154 17.7526223,64.1295937 L17.6619316,63.3893239 C17.6587495,63.3614343 17.6452254,63.3335447 17.622155,63.3072488 C17.5990846,63.280156 17.5736275,63.2634223 17.5449884,63.2562507 C17.3612204,63.1996746 17.118583,63.1470828 16.8170763,63.099272 C16.5163651,63.0514613 16.1782638,63.0275559 15.8027725,63.0275559 C15.0303106,63.0275559 14.4050222,63.2267674 13.9269073,63.6235966 C13.4479968,64.0283943 13.2093371,64.5766242 13.2093371,65.2682864 C13.2093371,65.9750886 13.440837,66.4970226 13.9054279,66.8356821 C14.3692233,67.1751384 15.0390615,67.3440697 15.9141471,67.3440697 C16.2999803,67.3440697 16.6587653,67.3185707 16.9897068,67.2699631 C17.3214438,67.2205586 17.6157907,67.1544204 17.8743387,67.0731421 C17.9069556,67.0619863 17.9340037,67.0412683 17.9570741,67.011785 C17.9801446,66.9815049 17.9920775,66.9504279 17.9920775,66.9177572 L17.9920775,65.0499506 C17.9920775,65.0045304 17.9761669,64.965485 17.9443456,64.9360017 C17.9117288,64.9057215 17.8727477,64.8905814 17.8266068,64.8905814 L16.1265542,64.8905814 C16.0804133,64.8905814 16.0414322,64.9057215 16.009611,64.9360017 C15.9777897,64.965485 15.961879,65.0045304 15.961879,65.0499506 L15.961879,65.7583465 C15.961879,65.8045636 15.9777897,65.8428122 16.009611,65.874686 C16.0414322,65.9065599 16.0804133,65.9224968 16.1265542,65.9224968 L16.6850179,65.9224968 L16.6850179,66.1894401 C16.5179561,66.2531878 16.2753188,66.2850616 15.9563103,66.2850616 C15.5561575,66.2850616 15.2427178,66.1894401 15.0159911,65.9981971 C14.793242,65.8061573 14.681072,65.5471824 14.681072,65.2204756 M11.0041215,64.4005213 C10.8521748,64.1989193 10.7018192,63.9965204 10.5546457,63.7965121 C10.4082678,63.595707 10.2563211,63.3893239 10.1011923,63.1765661 C10.093237,63.1590355 10.0749397,63.1430986 10.0447095,63.1287553 C10.0152748,63.1144121 9.98902223,63.1080374 9.96833839,63.1080374 L8.7877684,63.1080374 C8.74560519,63.1080374 8.7090107,63.1231774 8.67639387,63.1550513 C8.64457258,63.1877219 8.62866193,63.2243768 8.62866193,63.2674065 L8.62866193,67.120156 C8.62866193,67.1631857 8.64457258,67.1998406 8.67639387,67.2325113 C8.7090107,67.2635883 8.74560519,67.2795252 8.7877684,67.2795252 L9.82434704,67.2795252 C9.87048791,67.2795252 9.909469,67.2635883 9.94129029,67.2325113 C9.97390712,67.1998406 9.98902223,67.1631857 9.98902223,67.120156 L9.98902223,65.1941797 L11.4878052,67.2165744 C11.5021247,67.234105 11.5228086,67.2492451 11.5514477,67.2619946 C11.5800869,67.2739473 11.6023618,67.2795252 11.6198635,67.2795252 L12.8107754,67.2795252 C12.8569163,67.2795252 12.8958974,67.2635883 12.9277187,67.2325113 C12.95954,67.1998406 12.9754506,67.1631857 12.9754506,67.120156 L12.9754506,63.2674065 C12.9754506,63.2243768 12.95954,63.1877219 12.9277187,63.1550513 C12.8958974,63.1231774 12.8569163,63.1080374 12.8107754,63.1080374 L11.7749923,63.1080374 C11.7288515,63.1080374 11.6890748,63.1231774 11.6580491,63.1550513 C11.6262278,63.1877219 11.6103171,63.2243768 11.6103171,63.2674065 L11.6103171,65.2260535 C11.5068979,65.084215 11.4058653,64.944767 11.3072193,64.8077095 C11.2077778,64.6714488 11.1067452,64.5359851 11.0041215,64.4005213 M6.92383614,65.1886018 C6.92383614,65.4937937 6.83553205,65.7232853 6.6597194,65.8778734 C6.48470229,66.0324615 6.23013194,66.1097556 5.89759942,66.1097556 C5.56427137,66.1097556 5.31129209,66.0324615 5.13786604,65.8778734 C4.96443999,65.7232853 4.87772697,65.4937937 4.87772697,65.1886018 C4.87772697,64.8834098 4.96443999,64.6539182 5.13786604,64.4993302 C5.31129209,64.3447421 5.56427137,64.267448 5.89759942,64.267448 C6.23013194,64.267448 6.48470229,64.3447421 6.6597194,64.4993302 C6.83553205,64.6539182 6.92383614,64.8834098 6.92383614,65.1886018 M8.39477543,65.1886018 C8.39477543,64.4610816 8.18395936,63.9192264 7.76232722,63.5622395 C7.34149061,63.2060494 6.71938433,63.0275559 5.89759942,63.0275559 C5.07581452,63.0275559 4.45450377,63.2060494 4.03207609,63.5622395 C3.61044396,63.9192264 3.40042342,64.4610816 3.40042342,65.1886018 C3.40042342,65.916122 3.61044396,66.4571803 4.03207609,66.8117767 C4.45450377,67.1663731 5.07581452,67.3440697 5.89759942,67.3440697 C6.71938433,67.3440697 7.34149061,67.1663731 7.76232722,66.8117767 C8.18395936,66.4571803 8.39477543,65.916122 8.39477543,65.1886018" id="Fill-7" fill="#00693F"></path>
                <path d="M0.491241218,32.284049 C18.0661416,83.6168566 106.752882,67.5803345 95.5645152,4.86458435 C95.4841665,65.9946113 20.7144687,72.544684 0.491241218,32.284049" id="Fill-9" fill="#00693F"></path>
                <path d="M17.8527798,15.6463864 L17.8225496,17.6552347 C25.556715,16.0479967 33.5709077,18.2823524 39.3241976,23.6897481 L40.8921918,21.5478265 C34.5677097,16.0527778 26.0316478,13.8646391 17.8527798,15.6463864" id="Fill-11" fill="#00693F"></path>
                <g id="Group-15" transform="translate(55.687264, 0.706802)">
                    <mask id="mask-2" fill="white">
                        <use xlink:href="#path-1"></use>
                    </mask>
                    <g id="Clip-14"></g>
                    <path d="M0.389492632,16.3095215 L2.11977546,17.3270936 C4.08712693,10.4654542 9.27399777,4.96323387 16.0407958,2.61492924 L15.4568751,0.090521685 C8.1530927,2.81015646 2.57720656,8.83829508 0.389492632,16.3095215" id="Fill-13" fill="#00693F" mask="url(#mask-2)"></path>
                </g>
                <g id="Group-18" transform="translate(0.000000, 2.300494)">
                    <mask id="mask-4" fill="white">
                        <use xlink:href="#path-3"></use>
                    </mask>
                    <g id="Clip-17"></g>
                    <path d="M-0.000159106467,27.5233733 C20.2222729,67.7832115 94.9927661,61.2331388 95.0739104,0.103111849 C68.7545186,24.506515 37.2339364,34.1316157 -0.000159106467,27.5233733" id="Fill-16" fill="#E93037" mask="url(#mask-4)"></path>
                </g>
                <path d="M85.772069,22.6565578 C80.1540197,21.2286101 84.2812414,18.2563752 85.772069,22.6565578 M73.2432303,37.6667425 C67.6251809,36.2379979 71.7524027,33.2665599 73.2432303,37.6667425 M70.384087,26.1889753 C64.7660377,24.7602308 68.8932594,21.7887927 70.384087,26.1889753 M56.727979,37.9990272 C57.7892191,32.2912206 61.0158983,36.2252484 56.727979,37.9990272 M53.591195,48.9859373 C47.9723501,47.5571928 52.1003674,44.5849579 53.591195,48.9859373 M37.3241497,37.4659373 C37.7704434,31.6776493 41.3980708,35.2443312 37.3241497,37.4659373 M35.903329,48.4934866 C30.2852796,47.0647421 34.4125014,44.0925072 35.903329,48.4934866 M21.2551921,40.9425756 C15.1582322,38.0715402 20.9274328,36.3033393 21.2551921,40.9425756" id="Fill-19" fill="#37343C"></path>
            </g>
        </g>
    </g>
</svg>