<?xml version="1.0" encoding="UTF-8" standalone="no"?>
<svg width="95px" height="23px" viewBox="0 0 95 23" version="1.1" xmlns="http://www.w3.org/2000/svg" xmlns:xlink="http://www.w3.org/1999/xlink">
    <!-- Generator: sketchtool 41.2 (35397) - http://www.bohemiancoding.com/sketch -->
    <title>686BF2ED-5BFF-4A10-AF40-E2C2C3015A31</title>
    <desc>Created with sketchtool.</desc>
    <defs></defs>
    <g id="BDA" stroke="none" stroke-width="1" fill="none" fill-rule="evenodd">
        <g id="Desktop" transform="translate(-972.000000, -49.000000)">
            <g id="Logo-PayPal" transform="translate(972.000000, 49.000000)">
                <g id="PayPal">
                    <path d="M55.7868522,9.92703443 L53.6245983,9.92703443 C53.176487,9.92703443 52.9943374,10.254937 53.1369183,10.6719944 L55.8314296,18.5630275 L53.176153,22.3160431 C52.9546017,22.6292536 53.1255652,22.9159179 53.4382748,22.9159179 L55.8778435,22.9159179 C56.2421426,22.9159179 56.4196174,22.8229231 56.6029357,22.5599666 L64.8899896,10.6719944 C65.145433,10.3056918 65.0248904,9.92252661 64.6064974,9.9221927 L62.299993,9.9198553 C61.9041391,9.91935443 61.7451965,10.0759597 61.5178017,10.4055318 L58.0611339,15.4204049 L56.5232974,10.3968501 C56.428633,10.0871457 56.2025739,9.92703443 55.7868522,9.92703443 L55.7868522,9.92703443 Z M45.0174887,17.2759597 C43.5963548,17.2759597 42.6059687,16.1426588 42.8126609,14.7529127 C43.01952,13.3633336 44.3469913,12.2300327 45.7681252,12.2300327 C47.1890922,12.2300327 48.1796452,13.3633336 47.9727861,14.7529127 C47.7660939,16.1426588 46.4384557,17.2759597 45.0174887,17.2759597 L45.0174887,17.2759597 Z M46.8084313,18.5475005 C47.028313,18.3479875 47.2530365,18.2433057 47.220313,18.4902344 L47.1421774,19.0817614 C47.10144,19.3899631 47.224153,19.5547492 47.5119861,19.5547492 L49.6520348,19.5547492 C50.011993,19.5547492 50.1879652,19.4088292 50.2767861,18.8515283 L51.5955757,10.5734901 C51.6618574,10.1576014 51.5611826,9.95358052 51.2453009,9.95358052 L48.8922157,9.95358052 C48.6800139,9.95358052 48.5771687,10.0727875 48.5215722,10.3968501 L48.4344209,10.9064014 C48.3888417,11.1723631 48.2672974,11.2182762 48.1541009,10.9508118 C47.7545739,10.0051701 46.7363061,9.58126748 45.30816,9.61065183 C42.0067617,9.67860313 39.7810643,12.1846205 39.5431513,15.397031 C39.3589983,17.8820118 41.1399235,19.8333997 43.4864974,19.8333997 C45.18912,19.8332327 45.9507757,19.3256849 46.8084313,18.5475005 L46.8084313,18.5475005 Z M32.4149426,11.9393614 L34.3773496,11.9396953 C35.6039791,11.8932814 36.4198957,11.0436397 36.5017043,9.51064487 C36.5524591,8.56383443 35.9131826,7.88665878 34.8952487,7.89133357 L33.0478748,7.89951443 L32.4149426,11.9393614 Z M36.3390887,5.10733357 C38.5218783,5.10733357 40.535207,6.29072139 40.2597287,9.24184487 C39.9329948,12.7402518 38.0475548,14.6886344 35.082073,14.6964814 L32.4952487,14.6964814 C32.1222678,14.6964814 31.9431235,14.9996744 31.84512,15.6237579 L31.34592,18.8077857 C31.2706226,19.2884536 31.0243617,19.5258657 30.6590609,19.5258657 L28.2498783,19.5258657 C27.8657113,19.5258657 27.7316452,19.2802727 27.8172939,18.7313197 L29.8087513,5.9684953 C29.9067548,5.34073878 30.1468383,5.10733357 30.5724104,5.10733357 L36.3390887,5.10733357 Z" id="Fill-4" fill="#1C3D92"></path>
                    <path d="M92.0653357,19.569575 L89.595047,19.569575 C89.398873,19.569575 89.2626365,19.415808 89.2923548,19.227815 L91.4646261,5.47811061 C91.4943443,5.29011757 91.6791652,5.13635061 91.8755061,5.13635061 L94.3456278,5.13635061 C94.5419687,5.13635061 94.6780383,5.29011757 94.6486539,5.47811061 L92.4762157,19.227815 C92.4463304,19.415808 92.2616765,19.569575 92.0653357,19.569575 L92.0653357,19.569575 Z M82.1931965,17.2759263 C80.7722296,17.2759263 79.7818435,16.1426254 79.9883687,14.7528793 C80.1952278,13.3633002 81.5228661,12.2299993 82.943833,12.2299993 C84.3648,12.2299993 85.355353,13.3633002 85.1484939,14.7528793 C84.9418017,16.1426254 83.6143304,17.2759263 82.1931965,17.2759263 L82.1931965,17.2759263 Z M83.9841391,18.5474671 C84.2040209,18.3479541 84.4289113,18.2432723 84.3960209,18.490201 L84.3178852,19.081728 C84.2773148,19.3899297 84.3998609,19.5547158 84.6876939,19.5547158 L86.8277426,19.5547158 C87.1877009,19.5547158 87.36384,19.4087958 87.4524939,18.851495 L88.7714504,10.5734567 C88.8375652,10.157568 88.7368904,9.95354713 88.4210087,9.95354713 L86.0680904,9.95354713 C85.8557217,9.95354713 85.7528765,10.0727541 85.697447,10.3968167 L85.6101287,10.906368 C85.5645496,11.1723297 85.4430052,11.2182428 85.3298087,10.9507784 C84.9302817,10.0051367 83.9120139,9.58123409 82.4838678,9.61061843 C79.1824696,9.67856974 76.9569391,12.1847541 76.7188591,15.3969976 C76.534873,17.8821454 78.3157983,19.8333663 80.6622052,19.8333663 C82.3648278,19.8331993 83.1266504,19.3256515 83.9841391,18.5474671 L83.9841391,18.5474671 Z M69.5906504,11.939328 L71.5530574,11.9396619 C72.779687,11.893248 73.5956035,11.0437732 73.6775791,9.51061148 C73.728167,8.56380104 73.0888904,7.88662539 72.0709565,7.89130017 L70.2237496,7.899648 L69.5906504,11.939328 Z M73.5149635,5.10730017 C75.697753,5.10730017 77.7109148,6.290688 77.4354365,9.24181148 C77.1087026,12.7402184 75.2232626,14.688601 72.2577809,14.696615 L69.6709565,14.696615 C69.2979757,14.696615 69.1188313,14.999641 69.0209948,15.6237245 L68.5216278,18.8079193 C68.4463304,19.2884202 68.2000696,19.5258323 67.8347687,19.5258323 L65.4255861,19.5258323 C65.0414191,19.5258323 64.90752,19.2804063 64.9931687,18.7312863 L66.9844591,5.96846191 C67.0824626,5.34070539 67.3225461,5.10730017 67.7481183,5.10730017 L73.5149635,5.10730017 Z" id="Fill-6" fill="#00A2D3"></path>
                    <path d="M8.2587047,5.3971033 L14.7274351,5.3971033 C18.1999638,5.3971033 19.5075673,7.15498852 19.3057169,9.74197983 C18.9728056,14.0065503 16.394329,16.3648111 12.9743917,16.3648111 L11.2477273,16.3648111 C10.7790803,16.3648111 10.4636995,16.6745155 10.3359777,17.5164772 L9.59519165,22.405632 C9.54727513,22.7230163 9.38015165,22.9095068 9.129216,22.9322129 L5.07317426,22.9322129 C4.69151165,22.9322129 4.555776,22.6402059 4.655616,22.0077746 L7.13258296,6.3248807 C7.23175513,5.69628939 7.57568557,5.3971033 8.2587047,5.3971033" id="Fill-1" fill="#00A2D3"></path>
                    <path d="M4.21473391,5.00869565e-05 L10.6898087,5.00869565e-05 C12.5134748,5.00869565e-05 14.6763965,0.0591526957 16.1234087,1.33536835 C17.08992,2.18784835 17.5971339,3.54603965 17.4799304,5.00407096 C17.0829078,9.94832139 14.12544,12.7174623 10.1595548,12.7174623 L6.96601043,12.7174623 C6.42256696,12.7174623 6.06227478,13.0777544 5.90884174,14.0531144 L5.01779478,19.7221231 C4.96002783,20.0900953 4.80058435,20.3066379 4.50957913,20.3328501 L0.52082087,20.3328501 C0.0782191304,20.3328501 -0.079053913,19.9942623 0.036813913,19.2609892 L2.9088,1.07575096 C3.024,0.346985739 3.42252522,5.00869565e-05 4.21473391,5.00869565e-05" id="Fill-8" fill="#1C3D92"></path>
                    <path d="M6.00178643,13.4817057 L7.13258296,6.32478052 C7.23175513,5.69635617 7.57568557,5.39717009 8.2587047,5.39717009 L14.7274351,5.39717009 C15.7981273,5.39717009 16.663296,5.56429357 17.3413064,5.87232835 C16.6913447,10.2726344 13.8454038,12.7175457 10.1182664,12.7175457 L6.92488904,12.7175457 C6.50449252,12.7175457 6.1904473,12.9324188 6.00178643,13.4817057" id="Fill-10" fill="#1B2E7E"></path>
                </g>
            </g>
        </g>
    </g>
</svg>